%TF.GenerationSoftware,Altium Limited,Altium Designer,21.3.0 (21)*%
G04 Layer_Color=128*
%FSLAX45Y45*%
%MOMM*%
%TF.SameCoordinates,798F48EE-B9F3-42F3-8741-5E889E50E555*%
%TF.FilePolarity,Positive*%
%TF.FileFunction,Drillmap*%
%TF.Part,Single*%
G01*
G75*
%TA.AperFunction,NonConductor*%
%ADD35C,0.12700*%
D35*
X25632501Y20320000D02*
X25802499D01*
X25717499Y20235001D02*
Y20405000D01*
X25632501Y19812000D02*
X25802499D01*
X25717499Y19727000D02*
Y19897000D01*
X25632501Y19303999D02*
X25802499D01*
X25717499Y19219000D02*
Y19389000D01*
X23122501Y19177000D02*
X23232500D01*
X23177499Y19122000D02*
Y19232001D01*
X23122501Y19431000D02*
X23232500D01*
X23177499Y19375999D02*
Y19486000D01*
X23122501Y19685001D02*
X23232500D01*
X23177499Y19630000D02*
Y19739999D01*
X23122501Y19939000D02*
X23232500D01*
X23177499Y19884000D02*
Y19994000D01*
X23122501Y20447000D02*
X23232500D01*
X23177499Y20392000D02*
Y20502000D01*
X23122501Y20192999D02*
X23232500D01*
X23177499Y20138000D02*
Y20248000D01*
X25276500Y19558000D02*
X25396500D01*
X25336501Y19498000D02*
Y19617999D01*
X25276500Y19812000D02*
X25396500D01*
X25336501Y19752000D02*
Y19872000D01*
X25276500Y20066000D02*
X25396500D01*
X25336501Y20006000D02*
Y20125999D01*
X24514500Y20066000D02*
X24634500D01*
X24574500Y20006000D02*
Y20125999D01*
X24514500Y19812000D02*
X24634500D01*
X24574500Y19752000D02*
Y19872000D01*
X24514500Y19558000D02*
X24634500D01*
X24574500Y19498000D02*
Y19617999D01*
X25173940Y19024600D02*
X25245061D01*
X25209500Y18989040D02*
Y19060159D01*
X24107140Y19075400D02*
X24178259D01*
X24142700Y19039841D02*
Y19110960D01*
X23776939Y19735800D02*
X23848061D01*
X23812500Y19700240D02*
Y19771359D01*
X25173940Y20599400D02*
X25245061D01*
X25209500Y20563840D02*
Y20634959D01*
%TF.MD5,4a77a5bb56dcc79757544af7170426f5*%
M02*
