%TF.GenerationSoftware,Altium Limited,Altium Designer,21.3.0 (21)*%
G04 Layer_Physical_Order=2*
G04 Layer_Color=16711680*
%FSLAX45Y45*%
%MOMM*%
%TF.SameCoordinates,798F48EE-B9F3-42F3-8741-5E889E50E555*%
%TF.FilePolarity,Positive*%
%TF.FileFunction,Copper,L2,Bot,Signal*%
%TF.Part,Single*%
G01*
G75*
%TA.AperFunction,ComponentPad*%
%ADD17C,2.70000*%
%ADD18R,2.70000X2.70000*%
%ADD19C,1.70000*%
%ADD20R,1.70000X1.70000*%
%ADD21R,1.70000X1.70000*%
%TA.AperFunction,ViaPad*%
%ADD22C,1.27000*%
G36*
X31001965Y12532677D02*
X31005014Y12532338D01*
X31008401Y12531323D01*
X31012463Y12530307D01*
X31016187Y12528614D01*
X31020251Y12526244D01*
X31020587Y12525905D01*
X31021942Y12524890D01*
X31023636Y12523197D01*
X31026007Y12520827D01*
X31028714Y12517779D01*
X31031424Y12514055D01*
X31034131Y12509653D01*
X31036502Y12504236D01*
X31036841Y12503898D01*
X31037180Y12502205D01*
X31037857Y12499835D01*
X31038531Y12496110D01*
X31039209Y12491709D01*
X31039886Y12485953D01*
X31040564Y12479520D01*
Y12471732D01*
Y12401307D01*
Y12400630D01*
Y12398937D01*
Y12396228D01*
X31040903Y12392843D01*
X31041580Y12385732D01*
X31041919Y12382685D01*
X31042596Y12379977D01*
X31042935Y12379299D01*
X31044290Y12377606D01*
X31046320Y12375575D01*
X31049368Y12373205D01*
X31049707D01*
X31050385Y12372866D01*
X31051398Y12372528D01*
X31053091Y12371851D01*
X31055124Y12371512D01*
X31057831Y12370835D01*
X31061218Y12370496D01*
X31064944D01*
Y12364063D01*
X30984360D01*
Y12370496D01*
X30989438D01*
X30991470Y12370835D01*
X30993839Y12371173D01*
X30998920Y12372189D01*
X31001627Y12373205D01*
X31003998Y12374559D01*
X31004337D01*
X31004675Y12375236D01*
X31006369Y12376591D01*
X31008060Y12379638D01*
X31009076Y12381331D01*
X31009753Y12383701D01*
Y12384039D01*
X31010092Y12384378D01*
Y12385394D01*
X31010431Y12387087D01*
Y12389457D01*
X31010770Y12392504D01*
Y12396228D01*
Y12401307D01*
Y12471394D01*
Y12471732D01*
Y12472409D01*
Y12473425D01*
Y12474779D01*
X31010431Y12478165D01*
X31010092Y12482567D01*
X31009415Y12486968D01*
X31008737Y12491709D01*
X31007385Y12496110D01*
X31005692Y12499835D01*
X31005353Y12500173D01*
X31004337Y12501527D01*
X31002643Y12503559D01*
X31000275Y12505590D01*
X30997226Y12507622D01*
X30993164Y12509653D01*
X30988763Y12511008D01*
X30983344Y12511346D01*
X30981653D01*
X30979959Y12511008D01*
X30977249Y12510669D01*
X30974542Y12509992D01*
X30971155Y12509315D01*
X30967770Y12507961D01*
X30964044Y12506268D01*
X30963708Y12505929D01*
X30962354Y12505252D01*
X30960321Y12504236D01*
X30957611Y12502205D01*
X30954227Y12499835D01*
X30950500Y12496787D01*
X30945761Y12493063D01*
X30941022Y12488661D01*
X30940683Y12486968D01*
X30941360Y12479181D01*
Y12401307D01*
Y12400969D01*
Y12400630D01*
Y12398599D01*
Y12395551D01*
X30941699Y12392165D01*
Y12388441D01*
X30942038Y12385055D01*
X30942377Y12382008D01*
X30943054Y12379977D01*
X30943393Y12379299D01*
X30944745Y12377606D01*
X30946777Y12375575D01*
X30950162Y12373205D01*
X30950500D01*
X30951178Y12372866D01*
X30952533Y12372528D01*
X30954227Y12371851D01*
X30956595Y12371512D01*
X30959644Y12370835D01*
X30963367Y12370496D01*
X30967770D01*
Y12364063D01*
X30885156D01*
Y12370496D01*
X30887186D01*
X30889557Y12370835D01*
X30892267D01*
X30898361Y12371851D01*
X30901068Y12372528D01*
X30903439Y12373543D01*
X30903778D01*
X30904117Y12374221D01*
X30906149Y12375914D01*
X30908517Y12378961D01*
X30910550Y12383362D01*
Y12383701D01*
X30910889Y12384039D01*
Y12385055D01*
X30911227Y12386748D01*
Y12389118D01*
X30911566Y12392165D01*
Y12396228D01*
Y12401307D01*
Y12471394D01*
Y12471732D01*
Y12472409D01*
Y12473425D01*
Y12474779D01*
X30911227Y12478165D01*
X30910889Y12482567D01*
X30910211Y12487307D01*
X30908856Y12492047D01*
X30907501Y12496449D01*
X30905472Y12500173D01*
X30905133Y12500850D01*
X30904117Y12502205D01*
X30902423Y12503898D01*
X30899716Y12506268D01*
X30896667Y12508299D01*
X30892944Y12510331D01*
X30888541Y12511685D01*
X30883463Y12512023D01*
X30881769D01*
X30880078Y12511685D01*
X30877707Y12511346D01*
X30874661Y12510669D01*
X30871613Y12509653D01*
X30867889Y12508299D01*
X30864502Y12506606D01*
X30863824Y12506268D01*
X30862131Y12505252D01*
X30859424Y12503559D01*
X30856039Y12501527D01*
X30852313Y12498819D01*
X30848590Y12495772D01*
X30845203Y12492386D01*
X30841818Y12488661D01*
Y12401307D01*
Y12400969D01*
Y12400630D01*
Y12398599D01*
Y12395890D01*
X30842157Y12392504D01*
Y12389118D01*
X30842834Y12385394D01*
X30843170Y12382347D01*
X30843848Y12379977D01*
Y12379638D01*
X30844186Y12379299D01*
X30845541Y12377268D01*
X30847574Y12374898D01*
X30850281Y12372866D01*
X30850620D01*
X30851297Y12372528D01*
X30852313Y12372189D01*
X30854346Y12371851D01*
X30856714Y12371173D01*
X30859763Y12370835D01*
X30863486Y12370496D01*
X30868228D01*
Y12364063D01*
X30786966D01*
Y12370496D01*
X30790692D01*
X30793060Y12370835D01*
X30798141Y12371512D01*
X30800510Y12372189D01*
X30802542Y12372866D01*
X30802881D01*
X30803220Y12373205D01*
X30805249Y12374559D01*
X30807620Y12376929D01*
X30809653Y12380315D01*
Y12380654D01*
X30809991Y12381331D01*
X30810330Y12383024D01*
X30811005Y12385055D01*
X30811346Y12387764D01*
X30811682Y12391488D01*
X30812021Y12395890D01*
Y12401307D01*
Y12463945D01*
Y12464283D01*
Y12464961D01*
Y12466315D01*
Y12468346D01*
Y12470378D01*
Y12472748D01*
X30811682Y12478504D01*
Y12484260D01*
X30811346Y12490016D01*
X30811005Y12495094D01*
X30810669Y12497126D01*
X30810330Y12498819D01*
Y12499157D01*
X30809991Y12499835D01*
X30809314Y12501866D01*
X30807959Y12504575D01*
X30807281Y12505590D01*
X30806265Y12506606D01*
X30805927Y12506945D01*
X30804236Y12507961D01*
X30801865Y12508638D01*
X30798816Y12508976D01*
X30796786D01*
X30795432Y12508638D01*
X30791708Y12507961D01*
X30786627Y12506606D01*
X30784259Y12513039D01*
X30834030Y12533016D01*
X30841818D01*
Y12497803D01*
X30842157Y12498142D01*
X30842493Y12498480D01*
X30844525Y12500512D01*
X30847574Y12503559D01*
X30850958Y12507283D01*
X30854684Y12510669D01*
X30858069Y12514055D01*
X30860779Y12516764D01*
X30862131Y12517779D01*
X30862808Y12518457D01*
X30863147Y12518795D01*
X30864163Y12519472D01*
X30865857Y12520827D01*
X30867889Y12522181D01*
X30870258Y12523874D01*
X30873306Y12525905D01*
X30879739Y12528953D01*
X30880078Y12529291D01*
X30881430Y12529630D01*
X30883124Y12530307D01*
X30885495Y12530984D01*
X30888541Y12531661D01*
X30891589Y12532338D01*
X30894974Y12533016D01*
X30901068D01*
X30903778Y12532677D01*
X30907501Y12532000D01*
X30911566Y12530645D01*
X30915967Y12529291D01*
X30920367Y12526921D01*
X30924771Y12523874D01*
X30925107Y12523535D01*
X30926462Y12522181D01*
X30928494Y12520149D01*
X30930865Y12517102D01*
X30933234Y12513378D01*
X30935944Y12508976D01*
X30937973Y12503898D01*
X30939667Y12497803D01*
X30940005Y12498142D01*
X30940344Y12498819D01*
X30941360Y12499835D01*
X30942715Y12501189D01*
X30946100Y12504913D01*
X30950500Y12509653D01*
X30955582Y12514394D01*
X30960660Y12518795D01*
X30965738Y12523197D01*
X30968448Y12524890D01*
X30970816Y12526244D01*
X30971494Y12526583D01*
X30973187Y12527260D01*
X30975558Y12528275D01*
X30978943Y12529630D01*
X30983005Y12530984D01*
X30987408Y12532000D01*
X30992148Y12532677D01*
X30997226Y12533016D01*
X30999258D01*
X31001965Y12532677D01*
D02*
G37*
G36*
X31996719D02*
X31999091Y12532338D01*
X32001462Y12531661D01*
X32004507Y12530307D01*
X32007217Y12528953D01*
X32009586Y12526921D01*
X32009924Y12526583D01*
X32010602Y12525905D01*
X32011618Y12524551D01*
X32012973Y12522858D01*
X32014328Y12520827D01*
X32015341Y12518457D01*
X32016019Y12515748D01*
X32016357Y12513039D01*
Y12512701D01*
Y12512023D01*
X32016019Y12510669D01*
X32015680Y12508976D01*
X32014328Y12504913D01*
X32013312Y12503220D01*
X32011618Y12501189D01*
X32011279Y12500850D01*
X32010941Y12500512D01*
X32009924Y12499835D01*
X32008572Y12498819D01*
X32004846Y12497126D01*
X32002814Y12496787D01*
X32000446Y12496449D01*
X31999429D01*
X31998074Y12496787D01*
X31996381Y12497126D01*
X31994012Y12497803D01*
X31991641Y12499157D01*
X31988934Y12500512D01*
X31986224Y12502543D01*
X31985886Y12502882D01*
X31984869Y12503559D01*
X31983517Y12504575D01*
X31981824Y12505929D01*
X31978098Y12507961D01*
X31976404Y12508638D01*
X31974713Y12508976D01*
X31974036D01*
X31972681Y12508638D01*
X31970651Y12507283D01*
X31969296Y12506606D01*
X31967941Y12505252D01*
X31967603Y12504913D01*
X31966586Y12503898D01*
X31964893Y12501866D01*
X31962863Y12499496D01*
X31960492Y12496110D01*
X31957446Y12491709D01*
X31954398Y12486630D01*
X31951349Y12480874D01*
Y12402323D01*
Y12401646D01*
Y12399953D01*
X31951688Y12397583D01*
Y12394536D01*
X31952704Y12387764D01*
X31953720Y12384378D01*
X31954736Y12381669D01*
Y12381331D01*
X31955075Y12380992D01*
X31956769Y12378961D01*
X31959137Y12376252D01*
X31962863Y12373543D01*
X31963202D01*
X31963879Y12373205D01*
X31965231Y12372528D01*
X31967264Y12372189D01*
X31969635Y12371512D01*
X31972681Y12370835D01*
X31976068Y12370496D01*
X31980130D01*
Y12364063D01*
X31895822D01*
Y12370496D01*
X31897855D01*
X31899887Y12370835D01*
X31902594D01*
X31908688Y12372189D01*
X31911737Y12372866D01*
X31914105Y12374221D01*
X31914444D01*
X31914783Y12374898D01*
X31916815Y12376591D01*
X31918848Y12379638D01*
X31920538Y12383701D01*
Y12384039D01*
X31920877Y12384378D01*
Y12385394D01*
X31921216Y12387087D01*
Y12389457D01*
X31921555Y12392504D01*
Y12396228D01*
Y12401307D01*
Y12464622D01*
Y12464961D01*
Y12465976D01*
Y12467331D01*
Y12469024D01*
Y12471394D01*
Y12473764D01*
Y12479520D01*
X31921216Y12485276D01*
X31920877Y12491031D01*
Y12493401D01*
X31920538Y12495433D01*
Y12497126D01*
X31920200Y12498480D01*
Y12498819D01*
X31919861Y12499496D01*
X31919186Y12501527D01*
X31917831Y12504236D01*
X31915799Y12506606D01*
X31915121Y12506945D01*
X31913766Y12507961D01*
X31911398Y12508638D01*
X31908011Y12508976D01*
X31905981D01*
X31904288Y12508638D01*
X31900562Y12507961D01*
X31895483Y12506606D01*
X31893790Y12513039D01*
X31943564Y12533016D01*
X31951349D01*
Y12495772D01*
X31951688Y12496110D01*
X31952365Y12497464D01*
X31953381Y12499157D01*
X31954736Y12501527D01*
X31956769Y12504575D01*
X31958798Y12507622D01*
X31964215Y12514394D01*
X31970651Y12521165D01*
X31974036Y12524551D01*
X31977759Y12527260D01*
X31981485Y12529630D01*
X31985208Y12531323D01*
X31989273Y12532677D01*
X31993335Y12533016D01*
X31995026D01*
X31996719Y12532677D01*
D02*
G37*
G36*
X31726532Y12521842D02*
X31726193D01*
X31725516Y12521504D01*
X31724161D01*
X31722809Y12521165D01*
X31719421Y12520149D01*
X31716373Y12518795D01*
X31715698Y12518457D01*
X31714005Y12517102D01*
X31711633Y12514394D01*
X31709940Y12512701D01*
X31708588Y12510669D01*
X31708249Y12509992D01*
X31707910Y12509315D01*
X31707233Y12507961D01*
X31706216Y12506268D01*
X31705200Y12503898D01*
X31704187Y12500850D01*
X31702493Y12497126D01*
X31635452Y12333252D01*
Y12332914D01*
X31635114Y12332236D01*
X31634439Y12330882D01*
X31633759Y12329528D01*
X31632745Y12327496D01*
X31631729Y12325126D01*
X31628683Y12320047D01*
X31624957Y12313953D01*
X31620895Y12308197D01*
X31615817Y12302441D01*
X31610059Y12297363D01*
X31609384Y12296685D01*
X31607352Y12295331D01*
X31604303Y12293300D01*
X31600580Y12291268D01*
X31595840Y12288898D01*
X31591098Y12286866D01*
X31585681Y12285512D01*
X31580264Y12284835D01*
X31578571D01*
X31576541Y12285174D01*
X31574170Y12285512D01*
X31571460Y12286528D01*
X31568414Y12287544D01*
X31565704Y12289237D01*
X31562997Y12291268D01*
X31562659Y12291607D01*
X31561981Y12292284D01*
X31560965Y12293638D01*
X31559610Y12295331D01*
X31558258Y12297363D01*
X31557242Y12299733D01*
X31556564Y12302441D01*
X31556226Y12305150D01*
Y12305488D01*
Y12306504D01*
X31556564Y12307859D01*
X31556903Y12309551D01*
X31558258Y12313614D01*
X31559271Y12315307D01*
X31560965Y12317339D01*
X31561304Y12317677D01*
X31561981Y12318016D01*
X31562997Y12318693D01*
X31564352Y12319709D01*
X31566382Y12320386D01*
X31568753Y12321063D01*
X31571460Y12321402D01*
X31574509Y12321740D01*
X31575525D01*
X31576880Y12321402D01*
X31578571D01*
X31580942Y12320725D01*
X31583649Y12320047D01*
X31586697Y12319370D01*
X31590421Y12318016D01*
X31590762D01*
X31591437Y12317677D01*
X31592792Y12317339D01*
X31594147Y12316662D01*
X31597195Y12315646D01*
X31598209Y12315307D01*
X31600241D01*
X31601257Y12315646D01*
X31602612Y12315985D01*
X31604642Y12316662D01*
X31606674Y12317677D01*
X31608704Y12319032D01*
X31611075Y12321063D01*
X31611414Y12321402D01*
X31612091Y12322079D01*
X31613446Y12323772D01*
X31615137Y12325803D01*
X31617169Y12328512D01*
X31619202Y12332236D01*
X31621573Y12336977D01*
X31623941Y12342394D01*
X31635452Y12370835D01*
X31576541Y12494079D01*
Y12494417D01*
X31576202Y12495094D01*
X31575525Y12496449D01*
X31574509Y12498142D01*
X31573154Y12500173D01*
X31571799Y12502543D01*
X31568076Y12507961D01*
X31567737Y12508299D01*
X31567398Y12508976D01*
X31566382Y12509992D01*
X31565366Y12511346D01*
X31562997Y12514394D01*
X31561642Y12515748D01*
X31560626Y12516764D01*
X31560287D01*
X31559949Y12517102D01*
X31558932Y12517779D01*
X31557581Y12518457D01*
X31555548Y12519134D01*
X31553516Y12520149D01*
X31550470Y12520827D01*
X31547421Y12521842D01*
Y12528275D01*
X31623941D01*
Y12521842D01*
X31618863D01*
X31617508Y12521504D01*
X31615817D01*
X31611752Y12520149D01*
X31609720Y12519472D01*
X31608029Y12518118D01*
X31607352Y12517441D01*
X31605997Y12515748D01*
X31604642Y12513039D01*
X31604303Y12511346D01*
X31603964Y12509315D01*
Y12508976D01*
Y12507961D01*
X31604303Y12506606D01*
X31604642Y12504236D01*
X31605319Y12501527D01*
X31606674Y12498480D01*
X31608029Y12494417D01*
X31610059Y12490016D01*
X31650012Y12407063D01*
X31686917Y12497803D01*
Y12498142D01*
X31687256Y12499157D01*
X31687933Y12500512D01*
X31688611Y12502543D01*
X31689627Y12506945D01*
X31689966Y12512362D01*
Y12513039D01*
Y12514394D01*
X31689288Y12516086D01*
X31688611Y12517441D01*
X31688272Y12517779D01*
X31687595Y12518457D01*
X31686240Y12519472D01*
X31684210Y12520488D01*
X31683533Y12520827D01*
X31682855D01*
X31681839Y12521165D01*
X31680145Y12521504D01*
X31678452D01*
X31676083Y12521842D01*
X31673376D01*
Y12528275D01*
X31726532D01*
Y12521842D01*
D02*
G37*
G36*
X31275879Y12600393D02*
X31272833D01*
X31269107Y12600055D01*
X31265045D01*
X31260641Y12599378D01*
X31255902Y12598700D01*
X31251840Y12598023D01*
X31248453Y12596669D01*
X31248117D01*
X31247101Y12595992D01*
X31245746Y12595315D01*
X31244391Y12593960D01*
X31240668Y12591252D01*
X31239313Y12589220D01*
X31237958Y12587189D01*
Y12586850D01*
X31237619Y12586173D01*
X31237280Y12584480D01*
X31236603Y12581771D01*
X31236264Y12578386D01*
X31235587Y12573645D01*
Y12570937D01*
X31235248Y12567890D01*
Y12564165D01*
Y12560441D01*
Y12407402D01*
Y12406724D01*
Y12405032D01*
Y12402323D01*
X31235587Y12399276D01*
X31236264Y12392504D01*
X31236942Y12389457D01*
X31237958Y12386748D01*
X31238297Y12386071D01*
X31239651Y12384717D01*
X31241684Y12383024D01*
X31244391Y12381331D01*
X31244730D01*
X31245407Y12380992D01*
X31247101Y12380654D01*
X31249808D01*
X31253195Y12380315D01*
X31255563Y12379977D01*
X31258273D01*
X31261319Y12379638D01*
X31297211D01*
X31299918Y12379977D01*
X31305673Y12380315D01*
X31312109Y12380654D01*
X31318542Y12381331D01*
X31324634Y12382347D01*
X31327005Y12383024D01*
X31329376Y12383701D01*
X31330051Y12384039D01*
X31331406Y12384378D01*
X31333438Y12385394D01*
X31336148Y12387087D01*
X31339532Y12389118D01*
X31342920Y12391488D01*
X31346643Y12394536D01*
X31350031Y12398260D01*
X31350366Y12398599D01*
X31351721Y12400291D01*
X31353415Y12402662D01*
X31356122Y12406386D01*
X31358832Y12411126D01*
X31361880Y12416543D01*
X31365604Y12423654D01*
X31368988Y12431441D01*
X31374744Y12430087D01*
X31354092Y12364063D01*
X31165839D01*
Y12370835D01*
X31177353D01*
X31180060Y12371512D01*
X31183109Y12372189D01*
X31186832Y12373205D01*
X31190558Y12374898D01*
X31193942Y12377268D01*
X31196652Y12380654D01*
X31196991Y12380992D01*
X31197327Y12382008D01*
X31198004Y12383701D01*
X31198682Y12386071D01*
X31199359Y12389795D01*
X31200037Y12394197D01*
X31200714Y12399953D01*
Y12403339D01*
Y12407063D01*
Y12564165D01*
Y12564504D01*
Y12565181D01*
Y12566197D01*
Y12567890D01*
X31200375Y12571614D01*
X31200037Y12576015D01*
X31199359Y12580756D01*
X31198682Y12585496D01*
X31197327Y12589559D01*
X31196652Y12590913D01*
X31195636Y12592267D01*
X31195297Y12592606D01*
X31194281Y12593622D01*
X31192587Y12594976D01*
X31190219Y12596330D01*
X31187509Y12597685D01*
X31183786Y12599039D01*
X31179382Y12600055D01*
X31174643Y12600393D01*
X31165839D01*
Y12607165D01*
X31275879D01*
Y12600393D01*
D02*
G37*
G36*
X30086780Y12606826D02*
X30093552Y12606488D01*
X30101001Y12606149D01*
X30109125Y12605472D01*
X30116913Y12604118D01*
X30124023Y12602763D01*
X30124362D01*
X30125378Y12602425D01*
X30126733Y12602086D01*
X30128424Y12601409D01*
X30130795Y12600732D01*
X30133167Y12599716D01*
X30139261Y12597346D01*
X30145694Y12594299D01*
X30152463Y12590236D01*
X30159235Y12585496D01*
X30164993Y12579740D01*
X30165329Y12579401D01*
X30165668Y12579063D01*
X30166345Y12578047D01*
X30167361Y12577031D01*
X30169394Y12573645D01*
X30172101Y12568905D01*
X30174811Y12563488D01*
X30176843Y12557055D01*
X30178534Y12549945D01*
X30179211Y12542157D01*
Y12541819D01*
Y12541480D01*
Y12540464D01*
Y12539110D01*
X30178534Y12535724D01*
X30177859Y12531323D01*
X30176505Y12526244D01*
X30174472Y12520488D01*
X30171762Y12515071D01*
X30168039Y12509315D01*
X30167361Y12508638D01*
X30166006Y12506945D01*
X30163300Y12504575D01*
X30159912Y12501189D01*
X30155173Y12497803D01*
X30149417Y12494417D01*
X30142984Y12491031D01*
X30135196Y12487984D01*
X30135535D01*
X30136212Y12487646D01*
X30137567Y12487307D01*
X30139261Y12486968D01*
X30141290Y12486291D01*
X30143661Y12485614D01*
X30149417Y12483921D01*
X30155511Y12481551D01*
X30161606Y12478842D01*
X30167700Y12475118D01*
X30172778Y12471055D01*
X30173117Y12470716D01*
X30173456Y12470378D01*
X30174472Y12469362D01*
X30175488Y12468008D01*
X30178195Y12464622D01*
X30181583Y12459882D01*
X30184967Y12453787D01*
X30187677Y12447016D01*
X30189709Y12439228D01*
X30190048Y12434827D01*
X30190384Y12430425D01*
Y12430087D01*
Y12429748D01*
Y12428732D01*
Y12427378D01*
X30189709Y12423992D01*
X30189032Y12419252D01*
X30187677Y12414173D01*
X30185645Y12408417D01*
X30182599Y12401984D01*
X30178873Y12395890D01*
Y12395551D01*
X30178195Y12395213D01*
X30176843Y12393181D01*
X30174133Y12390134D01*
X30170749Y12386748D01*
X30166006Y12382685D01*
X30160590Y12378622D01*
X30154495Y12374898D01*
X30147385Y12371512D01*
X30147046D01*
X30146371Y12371173D01*
X30145355Y12370835D01*
X30143661Y12370496D01*
X30141629Y12369819D01*
X30138922Y12369142D01*
X30135873Y12368465D01*
X30132150Y12367788D01*
X30128085Y12367110D01*
X30123685Y12366433D01*
X30118607Y12365756D01*
X30113190Y12365079D01*
X30107434Y12364740D01*
X30101001Y12364402D01*
X30093890Y12364063D01*
X29972000D01*
Y12370835D01*
X29983173D01*
X29985883Y12371512D01*
X29989267Y12372189D01*
X29992654Y12373205D01*
X29996378Y12374898D01*
X29999765Y12377268D01*
X30002472Y12380315D01*
X30002811Y12380654D01*
X30003149Y12381669D01*
X30003827Y12383362D01*
X30004843Y12386071D01*
X30005521Y12389457D01*
X30006198Y12394197D01*
X30006534Y12399953D01*
X30006873Y12403339D01*
Y12407063D01*
Y12564165D01*
Y12564504D01*
Y12565181D01*
Y12566197D01*
Y12567890D01*
X30006534Y12571614D01*
X30006198Y12576015D01*
X30005521Y12580756D01*
X30004504Y12585496D01*
X30003149Y12589559D01*
X30002472Y12590913D01*
X30001456Y12592267D01*
X30001117Y12592606D01*
X30000101Y12593622D01*
X29998749Y12594976D01*
X29996378Y12596330D01*
X29993332Y12597685D01*
X29989944Y12599039D01*
X29985544Y12600055D01*
X29980804Y12600393D01*
X29972000D01*
Y12607165D01*
X30084070D01*
X30086780Y12606826D01*
D02*
G37*
G36*
X30555038Y12528275D02*
X30593298D01*
Y12516086D01*
X30555038Y12515748D01*
Y12409095D01*
Y12408756D01*
Y12408417D01*
Y12406386D01*
X30555377Y12403677D01*
X30555716Y12400291D01*
X30556055Y12396567D01*
X30557071Y12393181D01*
X30558084Y12389795D01*
X30559439Y12387425D01*
X30559778Y12387087D01*
X30560117Y12386748D01*
X30561133Y12385732D01*
X30562488Y12384717D01*
X30566211Y12383024D01*
X30568582Y12382347D01*
X30570953Y12382008D01*
X30571967D01*
X30573322Y12382347D01*
X30574677D01*
X30578400Y12383362D01*
X30582462Y12385394D01*
X30582803Y12385732D01*
X30583478Y12386071D01*
X30584494Y12387087D01*
X30585849Y12388102D01*
X30587204Y12389795D01*
X30588559Y12391827D01*
X30589911Y12393858D01*
X30591266Y12396567D01*
X30598376D01*
Y12396228D01*
X30598038Y12395890D01*
X30597360Y12393858D01*
X30595667Y12390473D01*
X30593637Y12386748D01*
X30591266Y12382347D01*
X30588220Y12377945D01*
X30584494Y12373882D01*
X30580432Y12370158D01*
X30580093Y12369819D01*
X30578400Y12368803D01*
X30576031Y12367449D01*
X30573322Y12365756D01*
X30569598Y12364063D01*
X30565533Y12362709D01*
X30561133Y12361693D01*
X30556732Y12361355D01*
X30555377D01*
X30553683Y12361693D01*
X30551651Y12362032D01*
X30549283Y12362370D01*
X30546573Y12363386D01*
X30543527Y12364402D01*
X30540479Y12365756D01*
X30540140Y12366095D01*
X30539124Y12366772D01*
X30537772Y12367788D01*
X30536078Y12369142D01*
X30534384Y12371173D01*
X30532352Y12373205D01*
X30530661Y12375914D01*
X30528967Y12378961D01*
Y12379299D01*
X30528290Y12380654D01*
X30527951Y12382685D01*
X30527274Y12385394D01*
X30526596Y12389118D01*
X30525919Y12393520D01*
X30525583Y12398937D01*
X30525244Y12405370D01*
Y12516086D01*
X30499173D01*
Y12521504D01*
X30499512Y12521842D01*
X30500864Y12522181D01*
X30502896Y12523197D01*
X30505267Y12524551D01*
X30508313Y12526583D01*
X30511700Y12528953D01*
X30515424Y12531661D01*
X30519150Y12534708D01*
X30519489Y12535047D01*
X30520840Y12536401D01*
X30522873Y12538433D01*
X30525583Y12541142D01*
X30528290Y12544189D01*
X30531339Y12548252D01*
X30534723Y12552315D01*
X30537772Y12557055D01*
X30538110Y12557393D01*
X30538449Y12558409D01*
X30539462Y12560102D01*
X30540817Y12562811D01*
X30542511Y12566197D01*
X30544543Y12570598D01*
X30546912Y12575677D01*
X30549622Y12582110D01*
X30555038D01*
Y12528275D01*
D02*
G37*
G36*
X30453125D02*
X30491385D01*
Y12516086D01*
X30453125Y12515748D01*
Y12409095D01*
Y12408756D01*
Y12408417D01*
Y12406386D01*
X30453464Y12403677D01*
X30453802Y12400291D01*
X30454141Y12396567D01*
X30455157Y12393181D01*
X30456171Y12389795D01*
X30457526Y12387425D01*
X30457864Y12387087D01*
X30458203Y12386748D01*
X30459219Y12385732D01*
X30460574Y12384717D01*
X30464297Y12383024D01*
X30466669Y12382347D01*
X30469037Y12382008D01*
X30470053D01*
X30471408Y12382347D01*
X30472763D01*
X30476486Y12383362D01*
X30480551Y12385394D01*
X30480890Y12385732D01*
X30481567Y12386071D01*
X30482581Y12387087D01*
X30483936Y12388102D01*
X30485291Y12389795D01*
X30486646Y12391827D01*
X30488000Y12393858D01*
X30489352Y12396567D01*
X30496463D01*
Y12396228D01*
X30496124Y12395890D01*
X30495447Y12393858D01*
X30493756Y12390473D01*
X30491724Y12386748D01*
X30489352Y12382347D01*
X30486307Y12377945D01*
X30482581Y12373882D01*
X30478519Y12370158D01*
X30478180Y12369819D01*
X30476486Y12368803D01*
X30474118Y12367449D01*
X30471408Y12365756D01*
X30467685Y12364063D01*
X30463620Y12362709D01*
X30459219Y12361693D01*
X30454819Y12361355D01*
X30453464D01*
X30451770Y12361693D01*
X30449738Y12362032D01*
X30447369Y12362370D01*
X30444659Y12363386D01*
X30441614Y12364402D01*
X30438565Y12365756D01*
X30438226Y12366095D01*
X30437213Y12366772D01*
X30435858Y12367788D01*
X30434164Y12369142D01*
X30432471Y12371173D01*
X30430441Y12373205D01*
X30428748Y12375914D01*
X30427054Y12378961D01*
Y12379299D01*
X30426376Y12380654D01*
X30426038Y12382685D01*
X30425360Y12385394D01*
X30424683Y12389118D01*
X30424008Y12393520D01*
X30423669Y12398937D01*
X30423331Y12405370D01*
Y12516086D01*
X30397260D01*
Y12521504D01*
X30397598Y12521842D01*
X30398953Y12522181D01*
X30400983Y12523197D01*
X30403354Y12524551D01*
X30406400Y12526583D01*
X30409787Y12528953D01*
X30413510Y12531661D01*
X30417236Y12534708D01*
X30417575Y12535047D01*
X30418927Y12536401D01*
X30420959Y12538433D01*
X30423669Y12541142D01*
X30426376Y12544189D01*
X30429425Y12548252D01*
X30432809Y12552315D01*
X30435858Y12557055D01*
X30436197Y12557393D01*
X30436536Y12558409D01*
X30437549Y12560102D01*
X30438904Y12562811D01*
X30440598Y12566197D01*
X30442630Y12570598D01*
X30444998Y12575677D01*
X30447708Y12582110D01*
X30453125D01*
Y12528275D01*
D02*
G37*
G36*
X31466840Y12532677D02*
X31469211D01*
X31474289Y12532000D01*
X31479706Y12531323D01*
X31485800Y12529968D01*
X31491895Y12527937D01*
X31497311Y12525567D01*
X31497650Y12525228D01*
X31499005Y12524551D01*
X31501035Y12523197D01*
X31503067Y12521165D01*
X31505777Y12518795D01*
X31508484Y12515748D01*
X31510855Y12512362D01*
X31512888Y12508299D01*
Y12507961D01*
X31513565Y12506606D01*
X31513901Y12504575D01*
X31514581Y12501527D01*
X31515256Y12497126D01*
X31515594Y12491709D01*
X31515933Y12488661D01*
X31516272Y12484937D01*
Y12481213D01*
Y12476811D01*
Y12420945D01*
Y12420606D01*
Y12419929D01*
Y12418913D01*
Y12417221D01*
Y12413158D01*
Y12408756D01*
X31516611Y12403677D01*
Y12398937D01*
Y12394874D01*
X31516949Y12393520D01*
Y12392165D01*
Y12391827D01*
X31517288Y12391488D01*
X31517627Y12389457D01*
X31518643Y12387087D01*
X31519998Y12385394D01*
X31520334Y12385055D01*
X31521350Y12384717D01*
X31522705Y12384039D01*
X31524738Y12383701D01*
X31526431D01*
X31528122Y12384039D01*
X31529816Y12384717D01*
X31530154D01*
X31530493Y12385394D01*
X31531509Y12386071D01*
X31533203Y12387425D01*
X31534894Y12389118D01*
X31537604Y12391150D01*
X31540649Y12394197D01*
X31544376Y12397921D01*
Y12387764D01*
X31544037Y12387425D01*
X31543359Y12386748D01*
X31542343Y12385394D01*
X31540988Y12383701D01*
X31538956Y12381669D01*
X31536926Y12379299D01*
X31531848Y12374559D01*
X31526089Y12369480D01*
X31519659Y12365079D01*
X31516272Y12363386D01*
X31512888Y12362032D01*
X31509500Y12361355D01*
X31506116Y12361016D01*
X31504761D01*
X31503067Y12361355D01*
X31501035Y12361693D01*
X31498666Y12362370D01*
X31496295Y12363386D01*
X31493927Y12364740D01*
X31491895Y12366772D01*
X31491556Y12367110D01*
X31491217Y12368126D01*
X31490201Y12369480D01*
X31489526Y12371512D01*
X31488510Y12374559D01*
X31487494Y12377945D01*
X31487155Y12382347D01*
X31486816Y12387425D01*
X31486478Y12387087D01*
X31485800Y12386748D01*
X31484445Y12385732D01*
X31482755Y12384378D01*
X31478351Y12381331D01*
X31473273Y12377268D01*
X31467856Y12373543D01*
X31462778Y12369819D01*
X31458374Y12366772D01*
X31456342Y12365756D01*
X31454990Y12365079D01*
X31454651Y12364740D01*
X31453296Y12364402D01*
X31451266Y12363725D01*
X31448895Y12363047D01*
X31445508Y12362032D01*
X31442123Y12361355D01*
X31438400Y12361016D01*
X31434335Y12360677D01*
X31433658D01*
X31431628Y12361016D01*
X31428241Y12361355D01*
X31424518Y12362032D01*
X31420114Y12363386D01*
X31415375Y12365417D01*
X31410635Y12368465D01*
X31406232Y12372189D01*
X31405896Y12372866D01*
X31404541Y12374221D01*
X31402847Y12376929D01*
X31400815Y12380315D01*
X31398785Y12384717D01*
X31397092Y12389795D01*
X31395737Y12395890D01*
X31395398Y12402662D01*
Y12403339D01*
Y12404693D01*
X31395737Y12407063D01*
X31396075Y12409772D01*
X31396753Y12413158D01*
X31397430Y12416543D01*
X31398785Y12420268D01*
X31400476Y12423654D01*
X31400815Y12424331D01*
X31401831Y12425685D01*
X31403864Y12428055D01*
X31406573Y12431102D01*
X31409958Y12434488D01*
X31414359Y12438213D01*
X31419778Y12442276D01*
X31426208Y12446339D01*
X31426547D01*
X31427225Y12446677D01*
X31428241Y12447354D01*
X31429596Y12448370D01*
X31431628Y12449386D01*
X31434335Y12450740D01*
X31437045Y12452094D01*
X31440768Y12453787D01*
X31444492Y12455480D01*
X31448895Y12457512D01*
X31453973Y12459882D01*
X31459390Y12461913D01*
X31465485Y12464622D01*
X31471918Y12466992D01*
X31479028Y12470039D01*
X31486816Y12472748D01*
Y12479181D01*
Y12479520D01*
Y12480197D01*
Y12481551D01*
Y12483244D01*
X31486478Y12485276D01*
Y12487307D01*
X31485800Y12492386D01*
X31484784Y12498142D01*
X31483429Y12503559D01*
X31481738Y12508638D01*
X31480383Y12510669D01*
X31479028Y12512701D01*
X31478690Y12513039D01*
X31477673Y12514055D01*
X31475644Y12515748D01*
X31473273Y12517441D01*
X31470224Y12519134D01*
X31466162Y12520827D01*
X31461761Y12521842D01*
X31456342Y12522181D01*
X31454651D01*
X31452618Y12521842D01*
X31449911Y12521504D01*
X31447202Y12520488D01*
X31444156Y12519472D01*
X31441107Y12517779D01*
X31438400Y12515748D01*
X31438062Y12515409D01*
X31437384Y12514732D01*
X31436368Y12513378D01*
X31435013Y12511685D01*
X31433658Y12509653D01*
X31432642Y12507283D01*
X31431967Y12504575D01*
X31431628Y12501866D01*
X31432303Y12491370D01*
Y12491031D01*
Y12490016D01*
X31431967Y12488661D01*
X31431628Y12486630D01*
X31430612Y12482567D01*
X31429257Y12480535D01*
X31427902Y12478842D01*
X31427563Y12478504D01*
X31427225Y12478165D01*
X31426208Y12477488D01*
X31424854Y12476811D01*
X31421469Y12475118D01*
X31419098Y12474779D01*
X31416730Y12474441D01*
X31415714D01*
X31414359Y12474779D01*
X31413004Y12475118D01*
X31409619Y12476472D01*
X31407587Y12477488D01*
X31405896Y12478842D01*
Y12479181D01*
X31405219Y12479858D01*
X31404541Y12480874D01*
X31403864Y12482228D01*
X31403186Y12483921D01*
X31402509Y12486291D01*
X31402170Y12489000D01*
X31401831Y12491709D01*
Y12492047D01*
Y12492386D01*
X31402170Y12494417D01*
X31402509Y12497126D01*
X31403864Y12500850D01*
X31405557Y12505252D01*
X31408264Y12509992D01*
X31412329Y12515071D01*
X31414697Y12517441D01*
X31417407Y12519811D01*
X31417746D01*
X31418085Y12520488D01*
X31419098Y12521165D01*
X31420453Y12521842D01*
X31421808Y12522858D01*
X31423840Y12523874D01*
X31426208Y12525228D01*
X31428918Y12526583D01*
X31435013Y12528953D01*
X31442462Y12530984D01*
X31451266Y12532338D01*
X31461423Y12533016D01*
X31465146D01*
X31466840Y12532677D01*
D02*
G37*
G36*
X31822690D02*
X31825058Y12532338D01*
X31827768Y12532000D01*
X31834201Y12530645D01*
X31841312Y12528614D01*
X31848761Y12525228D01*
X31852484Y12523197D01*
X31856210Y12520827D01*
X31859933Y12518118D01*
X31863318Y12514732D01*
X31863657Y12514394D01*
X31863995Y12514055D01*
X31865012Y12512701D01*
X31866028Y12511346D01*
X31867383Y12509653D01*
X31869073Y12507283D01*
X31870767Y12504913D01*
X31872461Y12501866D01*
X31873816Y12498480D01*
X31875507Y12494756D01*
X31877200Y12490693D01*
X31878555Y12486630D01*
X31880588Y12476811D01*
X31880927Y12471394D01*
X31881265Y12465976D01*
X31767838D01*
Y12465638D01*
Y12464283D01*
Y12462591D01*
X31768179Y12459882D01*
Y12456835D01*
X31768854Y12453449D01*
X31769193Y12449386D01*
X31769870Y12444984D01*
X31771902Y12435843D01*
X31775287Y12426362D01*
X31777319Y12421622D01*
X31779688Y12417221D01*
X31782397Y12412819D01*
X31785446Y12408756D01*
X31785785Y12408417D01*
X31786121Y12407740D01*
X31787137Y12406724D01*
X31788492Y12405709D01*
X31790186Y12404016D01*
X31792554Y12402323D01*
X31797296Y12398599D01*
X31803729Y12394536D01*
X31810840Y12391488D01*
X31814563Y12390134D01*
X31818625Y12389118D01*
X31823029Y12388441D01*
X31827429Y12388102D01*
X31830139D01*
X31833185Y12388441D01*
X31836911Y12389118D01*
X31841312Y12390134D01*
X31846051Y12391827D01*
X31850793Y12393858D01*
X31855533Y12396567D01*
X31856210Y12396906D01*
X31857562Y12398260D01*
X31859933Y12400630D01*
X31862643Y12403677D01*
X31866028Y12408079D01*
X31869415Y12413158D01*
X31872800Y12419591D01*
X31875848Y12427378D01*
X31881265Y12423654D01*
Y12423315D01*
X31880927Y12422638D01*
Y12421284D01*
X31880249Y12419591D01*
X31879910Y12417221D01*
X31878894Y12414850D01*
X31876862Y12408756D01*
X31874155Y12401984D01*
X31870428Y12394536D01*
X31865350Y12386748D01*
X31859256Y12378961D01*
X31858917Y12378622D01*
X31858578Y12377945D01*
X31857562Y12377268D01*
X31855869Y12375914D01*
X31854178Y12374221D01*
X31852145Y12372528D01*
X31849777Y12370835D01*
X31846729Y12369142D01*
X31840295Y12365417D01*
X31832507Y12362032D01*
X31828107Y12360677D01*
X31823706Y12360000D01*
X31818964Y12359323D01*
X31813885Y12358984D01*
X31811176D01*
X31808807Y12359323D01*
X31806436Y12359662D01*
X31803391Y12360339D01*
X31800003Y12361016D01*
X31796619Y12361693D01*
X31788492Y12364402D01*
X31784430Y12366433D01*
X31780029Y12368465D01*
X31775964Y12371173D01*
X31771564Y12374221D01*
X31767499Y12377606D01*
X31763437Y12381669D01*
X31763098Y12382008D01*
X31762421Y12382685D01*
X31761407Y12384039D01*
X31760052Y12385732D01*
X31758698Y12388102D01*
X31756665Y12391150D01*
X31754974Y12394197D01*
X31752942Y12397921D01*
X31750909Y12402323D01*
X31749216Y12407063D01*
X31747186Y12412142D01*
X31745831Y12417559D01*
X31744476Y12423315D01*
X31743460Y12429748D01*
X31742783Y12436520D01*
X31742444Y12443630D01*
Y12443969D01*
Y12445323D01*
Y12447693D01*
X31742783Y12450740D01*
X31743121Y12454126D01*
X31743460Y12458189D01*
X31744138Y12462591D01*
X31745154Y12467669D01*
X31747525Y12478165D01*
X31749554Y12483583D01*
X31751587Y12489000D01*
X31753958Y12494417D01*
X31756665Y12499835D01*
X31760052Y12504575D01*
X31763776Y12509315D01*
X31764114Y12509653D01*
X31764792Y12510331D01*
X31766147Y12511346D01*
X31767838Y12513039D01*
X31769870Y12514732D01*
X31772241Y12516764D01*
X31775287Y12519134D01*
X31778674Y12521165D01*
X31782397Y12523535D01*
X31786462Y12525567D01*
X31790863Y12527598D01*
X31795941Y12529291D01*
X31801019Y12530984D01*
X31806436Y12532000D01*
X31811856Y12532677D01*
X31817950Y12533016D01*
X31820657D01*
X31822690Y12532677D01*
D02*
G37*
G36*
X30693179D02*
X30695551D01*
X30698935Y12532000D01*
X30702322Y12531661D01*
X30706384Y12530645D01*
X30710785Y12529630D01*
X30715527Y12527937D01*
X30720605Y12526244D01*
X30725345Y12523874D01*
X30730423Y12521165D01*
X30735501Y12517779D01*
X30740244Y12514055D01*
X30744983Y12509653D01*
X30749384Y12504575D01*
X30749722Y12504236D01*
X30750061Y12503559D01*
X30751077Y12502205D01*
X30752432Y12500173D01*
X30753787Y12498142D01*
X30755478Y12495094D01*
X30757172Y12492047D01*
X30759204Y12488661D01*
X30760895Y12484598D01*
X30762589Y12480197D01*
X30765637Y12470716D01*
X30766992Y12465638D01*
X30768005Y12460220D01*
X30768344Y12454803D01*
X30768683Y12449047D01*
Y12448709D01*
Y12448031D01*
Y12447016D01*
Y12445323D01*
X30768344Y12443291D01*
X30768005Y12440921D01*
X30767328Y12435165D01*
X30765976Y12428394D01*
X30764282Y12420945D01*
X30761572Y12412819D01*
X30757849Y12404354D01*
Y12404016D01*
X30757510Y12403339D01*
X30756833Y12402323D01*
X30755817Y12400630D01*
X30753448Y12396567D01*
X30750400Y12391488D01*
X30745999Y12386071D01*
X30741257Y12380315D01*
X30735501Y12374898D01*
X30728732Y12370158D01*
X30728391D01*
X30728055Y12369819D01*
X30727039Y12369142D01*
X30725345Y12368465D01*
X30723651Y12367449D01*
X30721622Y12366772D01*
X30716541Y12364740D01*
X30710446Y12362370D01*
X30703336Y12360677D01*
X30695889Y12359323D01*
X30687424Y12358984D01*
X30685730D01*
X30684039Y12359323D01*
X30681329D01*
X30678281Y12360000D01*
X30674557Y12360677D01*
X30670496Y12361355D01*
X30666092Y12362709D01*
X30661691Y12364402D01*
X30656952Y12366095D01*
X30651874Y12368465D01*
X30647134Y12371512D01*
X30642053Y12374898D01*
X30637314Y12378622D01*
X30632913Y12383362D01*
X30628510Y12388441D01*
X30628171Y12388780D01*
X30627832Y12389457D01*
X30626819Y12390811D01*
X30625803Y12392843D01*
X30624448Y12395213D01*
X30622754Y12397921D01*
X30621063Y12400969D01*
X30619370Y12404693D01*
X30617676Y12408756D01*
X30615982Y12412819D01*
X30612936Y12422299D01*
X30610904Y12433134D01*
X30610565Y12438551D01*
X30610226Y12444307D01*
Y12444646D01*
Y12445323D01*
Y12446677D01*
X30610565Y12448370D01*
Y12450402D01*
X30610904Y12452772D01*
X30611581Y12458528D01*
X30612936Y12465299D01*
X30614966Y12472748D01*
X30617676Y12480874D01*
X30621399Y12489338D01*
Y12489677D01*
X30622076Y12490354D01*
X30622415Y12491370D01*
X30623431Y12493063D01*
X30625803Y12497126D01*
X30629187Y12501866D01*
X30633588Y12507283D01*
X30638669Y12512701D01*
X30644424Y12517779D01*
X30650858Y12522181D01*
X30651196D01*
X30651535Y12522520D01*
X30652551Y12523197D01*
X30653903Y12523874D01*
X30657629Y12525567D01*
X30662708Y12527598D01*
X30668463Y12529630D01*
X30674896Y12531323D01*
X30682007Y12532677D01*
X30689456Y12533016D01*
X30691147D01*
X30693179Y12532677D01*
D02*
G37*
G36*
X30305841D02*
X30308212D01*
X30311597Y12532000D01*
X30314984Y12531661D01*
X30319046Y12530645D01*
X30323447Y12529630D01*
X30328189Y12527937D01*
X30333267Y12526244D01*
X30338007Y12523874D01*
X30343085Y12521165D01*
X30348166Y12517779D01*
X30352905Y12514055D01*
X30357645Y12509653D01*
X30362045Y12504575D01*
X30362384Y12504236D01*
X30362723Y12503559D01*
X30363739Y12502205D01*
X30365094Y12500173D01*
X30366449Y12498142D01*
X30368140Y12495094D01*
X30369833Y12492047D01*
X30371866Y12488661D01*
X30373557Y12484598D01*
X30375250Y12480197D01*
X30378299Y12470716D01*
X30379654Y12465638D01*
X30380667Y12460220D01*
X30381006Y12454803D01*
X30381345Y12449047D01*
Y12448709D01*
Y12448031D01*
Y12447016D01*
Y12445323D01*
X30381006Y12443291D01*
X30380667Y12440921D01*
X30379990Y12435165D01*
X30378638Y12428394D01*
X30376944Y12420945D01*
X30374234Y12412819D01*
X30370511Y12404354D01*
Y12404016D01*
X30370172Y12403339D01*
X30369495Y12402323D01*
X30368481Y12400630D01*
X30366110Y12396567D01*
X30363062Y12391488D01*
X30358661Y12386071D01*
X30353922Y12380315D01*
X30348166Y12374898D01*
X30341394Y12370158D01*
X30341055D01*
X30340717Y12369819D01*
X30339700Y12369142D01*
X30338007Y12368465D01*
X30336313Y12367449D01*
X30334283Y12366772D01*
X30329205Y12364740D01*
X30323111Y12362370D01*
X30316000Y12360677D01*
X30308551Y12359323D01*
X30300085Y12358984D01*
X30298392D01*
X30296701Y12359323D01*
X30293991D01*
X30290945Y12360000D01*
X30287219Y12360677D01*
X30283157Y12361355D01*
X30278754Y12362709D01*
X30274353Y12364402D01*
X30269614Y12366095D01*
X30264536Y12368465D01*
X30259796Y12371512D01*
X30254715Y12374898D01*
X30249976Y12378622D01*
X30245575Y12383362D01*
X30241174Y12388441D01*
X30240833Y12388780D01*
X30240497Y12389457D01*
X30239481Y12390811D01*
X30238464Y12392843D01*
X30237109Y12395213D01*
X30235416Y12397921D01*
X30233725Y12400969D01*
X30232031Y12404693D01*
X30230338Y12408756D01*
X30228644Y12412819D01*
X30225598Y12422299D01*
X30223566Y12433134D01*
X30223227Y12438551D01*
X30222888Y12444307D01*
Y12444646D01*
Y12445323D01*
Y12446677D01*
X30223227Y12448370D01*
Y12450402D01*
X30223566Y12452772D01*
X30224243Y12458528D01*
X30225598Y12465299D01*
X30227628Y12472748D01*
X30230338Y12480874D01*
X30234061Y12489338D01*
Y12489677D01*
X30234741Y12490354D01*
X30235077Y12491370D01*
X30236093Y12493063D01*
X30238464Y12497126D01*
X30241849Y12501866D01*
X30246252Y12507283D01*
X30251331Y12512701D01*
X30257086Y12517779D01*
X30263519Y12522181D01*
X30263858D01*
X30264197Y12522520D01*
X30265213Y12523197D01*
X30266565Y12523874D01*
X30270291Y12525567D01*
X30275369Y12527598D01*
X30281125Y12529630D01*
X30287558Y12531323D01*
X30294669Y12532677D01*
X30302118Y12533016D01*
X30303809D01*
X30305841Y12532677D01*
D02*
G37*
%LPC*%
G36*
X30079669Y12595315D02*
X30070526D01*
X30067142Y12594976D01*
X30062741D01*
X30057999Y12594299D01*
X30052582Y12593622D01*
X30046826Y12592606D01*
X30041409Y12591252D01*
Y12498142D01*
X30041748D01*
X30042426Y12497803D01*
X30043781D01*
X30045810Y12497464D01*
X30047842Y12497126D01*
X30050552Y12496787D01*
X30056308Y12496110D01*
X30061725D01*
X30064432Y12495772D01*
X30079330D01*
X30081363Y12496110D01*
X30084070D01*
X30089828Y12496449D01*
X30096259Y12497126D01*
X30102692Y12498142D01*
X30108786Y12499496D01*
X30114203Y12501189D01*
X30114883Y12501527D01*
X30116235Y12502205D01*
X30118607Y12503559D01*
X30121652Y12505590D01*
X30125040Y12507961D01*
X30128424Y12511008D01*
X30131473Y12514394D01*
X30134518Y12518457D01*
X30134857Y12519134D01*
X30135535Y12520488D01*
X30136890Y12522858D01*
X30138245Y12525905D01*
X30139261Y12529630D01*
X30140613Y12534031D01*
X30141290Y12538771D01*
X30141629Y12543850D01*
Y12544189D01*
Y12544866D01*
Y12545882D01*
X30141290Y12547575D01*
X30140613Y12551299D01*
X30139597Y12556378D01*
X30137228Y12562134D01*
X30134180Y12568228D01*
X30132150Y12571275D01*
X30129779Y12574323D01*
X30127072Y12577370D01*
X30124023Y12580078D01*
X30123685Y12580417D01*
X30123346Y12580756D01*
X30122330Y12581433D01*
X30120975Y12582449D01*
X30118945Y12583464D01*
X30116913Y12584819D01*
X30114203Y12586173D01*
X30111157Y12587866D01*
X30107770Y12589220D01*
X30104047Y12590575D01*
X30099985Y12591929D01*
X30095581Y12592945D01*
X30090503Y12593960D01*
X30085425Y12594637D01*
X30079669Y12595315D01*
D02*
G37*
G36*
X30072897Y12482905D02*
X30063416D01*
X30060031Y12482567D01*
X30053937Y12482228D01*
X30051227D01*
X30049536Y12481890D01*
X30045471Y12481551D01*
X30041409Y12481213D01*
Y12381669D01*
X30041748D01*
X30042426Y12381331D01*
X30043442D01*
X30045135Y12380992D01*
X30046826Y12380654D01*
X30048859Y12380315D01*
X30054276Y12379299D01*
X30060370Y12378284D01*
X30067480Y12377606D01*
X30074930Y12377268D01*
X30082379Y12376929D01*
X30085425D01*
X30087796Y12377268D01*
X30090503D01*
X30093552Y12377606D01*
X30096936Y12378284D01*
X30100662Y12378622D01*
X30108786Y12380654D01*
X30117252Y12383024D01*
X30125040Y12386748D01*
X30128763Y12388780D01*
X30132150Y12391488D01*
X30132489Y12391827D01*
X30132825Y12392165D01*
X30134857Y12394197D01*
X30137567Y12397244D01*
X30140952Y12401307D01*
X30144000Y12406724D01*
X30146707Y12412819D01*
X30148740Y12419591D01*
X30149078Y12423315D01*
X30149417Y12427378D01*
Y12428055D01*
Y12429748D01*
X30149078Y12432457D01*
X30148401Y12436181D01*
X30147385Y12440244D01*
X30146030Y12444984D01*
X30144000Y12449724D01*
X30141290Y12454465D01*
X30140952Y12455142D01*
X30139597Y12456496D01*
X30137906Y12459205D01*
X30135196Y12461913D01*
X30131473Y12465299D01*
X30127072Y12468685D01*
X30121991Y12472071D01*
X30115897Y12475118D01*
X30115558D01*
X30115219Y12475457D01*
X30114203Y12475795D01*
X30112851Y12476472D01*
X30111157Y12476811D01*
X30109125Y12477488D01*
X30104047Y12479181D01*
X30097952Y12480535D01*
X30090503Y12481551D01*
X30082040Y12482567D01*
X30072897Y12482905D01*
D02*
G37*
G36*
X31486816Y12461913D02*
X31486478D01*
X31485800Y12461575D01*
X31484106Y12460898D01*
X31482413Y12460220D01*
X31480383Y12459205D01*
X31477673Y12458189D01*
X31472256Y12455819D01*
X31466162Y12453449D01*
X31460406Y12450740D01*
X31455328Y12448370D01*
X31453296Y12447354D01*
X31451602Y12446339D01*
X31450925Y12446000D01*
X31449234Y12444984D01*
X31446863Y12443291D01*
X31443817Y12441260D01*
X31440430Y12438890D01*
X31437045Y12436181D01*
X31433997Y12433134D01*
X31431287Y12429748D01*
X31430951Y12429409D01*
X31430273Y12428394D01*
X31429596Y12426701D01*
X31428580Y12424331D01*
X31427225Y12421622D01*
X31426547Y12418236D01*
X31425870Y12414850D01*
X31425534Y12411126D01*
Y12410449D01*
Y12409095D01*
X31425870Y12406724D01*
X31426547Y12403677D01*
X31427225Y12400291D01*
X31428580Y12396567D01*
X31430612Y12393181D01*
X31432980Y12389795D01*
X31433319Y12389457D01*
X31434335Y12388441D01*
X31436029Y12387087D01*
X31438062Y12385732D01*
X31440768Y12384039D01*
X31443817Y12382685D01*
X31447202Y12381669D01*
X31450925Y12381331D01*
X31451602D01*
X31453296Y12381669D01*
X31456342Y12382347D01*
X31460406Y12383701D01*
X31465485Y12385732D01*
X31471918Y12388780D01*
X31475305Y12390811D01*
X31479028Y12393520D01*
X31482755Y12396228D01*
X31486816Y12399276D01*
Y12461913D01*
D02*
G37*
G36*
X31808130Y12520149D02*
X31807452D01*
X31805759Y12519811D01*
X31802713Y12519472D01*
X31799326Y12518795D01*
X31794925Y12517102D01*
X31790524Y12515071D01*
X31785785Y12512362D01*
X31781381Y12508299D01*
X31781042Y12507622D01*
X31779352Y12506268D01*
X31777658Y12503559D01*
X31775287Y12500173D01*
X31772919Y12495433D01*
X31770547Y12490016D01*
X31768854Y12483583D01*
X31767838Y12476472D01*
X31844019D01*
Y12476811D01*
Y12477150D01*
X31843680Y12479181D01*
Y12481890D01*
X31843005Y12484937D01*
X31841989Y12492386D01*
X31840973Y12495772D01*
X31839957Y12498480D01*
X31839618Y12498819D01*
X31839279Y12500173D01*
X31838263Y12501866D01*
X31836572Y12504236D01*
X31834879Y12506945D01*
X31832507Y12509653D01*
X31829800Y12512023D01*
X31826752Y12514394D01*
X31826413Y12514732D01*
X31825397Y12515409D01*
X31823367Y12516086D01*
X31820996Y12517441D01*
X31818289Y12518457D01*
X31815240Y12519134D01*
X31811856Y12519811D01*
X31808130Y12520149D01*
D02*
G37*
G36*
X30684039Y12521504D02*
X30682346D01*
X30680313Y12521165D01*
X30677942Y12520827D01*
X30674896Y12520149D01*
X30671848Y12519134D01*
X30668463Y12517779D01*
X30664740Y12515748D01*
X30664401Y12515409D01*
X30663046Y12514732D01*
X30661353Y12513039D01*
X30659320Y12511008D01*
X30656613Y12508299D01*
X30654242Y12504913D01*
X30651535Y12500850D01*
X30649164Y12495772D01*
X30648825Y12495094D01*
X30648148Y12493401D01*
X30647470Y12490354D01*
X30646454Y12485953D01*
X30645102Y12480874D01*
X30644424Y12474779D01*
X30643747Y12467669D01*
X30643408Y12459543D01*
Y12459205D01*
Y12457850D01*
Y12456157D01*
X30643747Y12453449D01*
Y12450402D01*
X30644086Y12446677D01*
X30644763Y12442614D01*
X30645102Y12438213D01*
X30646793Y12428732D01*
X30649503Y12418236D01*
X30652887Y12407740D01*
X30657629Y12397583D01*
X30657968Y12397244D01*
X30658307Y12396567D01*
X30658984Y12395213D01*
X30660336Y12393520D01*
X30663385Y12389457D01*
X30667786Y12384717D01*
X30673203Y12379977D01*
X30679636Y12375914D01*
X30683023Y12374221D01*
X30686746Y12372866D01*
X30690811Y12372189D01*
X30695212Y12371851D01*
X30696906D01*
X30698257Y12372189D01*
X30701306Y12372528D01*
X30705368Y12373543D01*
X30710110Y12375236D01*
X30714850Y12377945D01*
X30719589Y12381331D01*
X30723990Y12386071D01*
Y12386410D01*
X30724329Y12386748D01*
X30725006Y12387764D01*
X30725684Y12388780D01*
X30726700Y12390473D01*
X30727716Y12392504D01*
X30728732Y12394874D01*
X30729745Y12397583D01*
X30730762Y12400630D01*
X30731778Y12404354D01*
X30732794Y12408417D01*
X30733810Y12412819D01*
X30734488Y12417559D01*
X30735165Y12422976D01*
X30735501Y12428732D01*
Y12435165D01*
Y12435843D01*
Y12437197D01*
Y12439567D01*
X30735165Y12442614D01*
X30734824Y12446000D01*
X30734488Y12450402D01*
X30733810Y12455142D01*
X30733133Y12460220D01*
X30730762Y12471394D01*
X30727377Y12482905D01*
X30725345Y12488661D01*
X30722974Y12494079D01*
X30719928Y12499496D01*
X30716541Y12504236D01*
Y12504575D01*
X30715866Y12504913D01*
X30714172Y12506945D01*
X30711462Y12509653D01*
X30707739Y12513039D01*
X30703000Y12516086D01*
X30697580Y12518795D01*
X30691147Y12520827D01*
X30687762Y12521165D01*
X30684039Y12521504D01*
D02*
G37*
G36*
X30296701D02*
X30295007D01*
X30292975Y12521165D01*
X30290607Y12520827D01*
X30287558Y12520149D01*
X30284512Y12519134D01*
X30281125Y12517779D01*
X30277402Y12515748D01*
X30277063Y12515409D01*
X30275708Y12514732D01*
X30274014Y12513039D01*
X30271985Y12511008D01*
X30269275Y12508299D01*
X30266904Y12504913D01*
X30264197Y12500850D01*
X30261826Y12495772D01*
X30261487Y12495094D01*
X30260809Y12493401D01*
X30260132Y12490354D01*
X30259119Y12485953D01*
X30257764Y12480874D01*
X30257086Y12474779D01*
X30256409Y12467669D01*
X30256070Y12459543D01*
Y12459205D01*
Y12457850D01*
Y12456157D01*
X30256409Y12453449D01*
Y12450402D01*
X30256747Y12446677D01*
X30257425Y12442614D01*
X30257764Y12438213D01*
X30259457Y12428732D01*
X30262164Y12418236D01*
X30265552Y12407740D01*
X30270291Y12397583D01*
X30270630Y12397244D01*
X30270969Y12396567D01*
X30271646Y12395213D01*
X30272998Y12393520D01*
X30276047Y12389457D01*
X30280447Y12384717D01*
X30285867Y12379977D01*
X30292300Y12375914D01*
X30295685Y12374221D01*
X30299408Y12372866D01*
X30303473Y12372189D01*
X30307874Y12371851D01*
X30309567D01*
X30310922Y12372189D01*
X30313968Y12372528D01*
X30318030Y12373543D01*
X30322772Y12375236D01*
X30327512Y12377945D01*
X30332251Y12381331D01*
X30336652Y12386071D01*
Y12386410D01*
X30336990Y12386748D01*
X30337668Y12387764D01*
X30338345Y12388780D01*
X30339362Y12390473D01*
X30340378Y12392504D01*
X30341394Y12394874D01*
X30342410Y12397583D01*
X30343423Y12400630D01*
X30344440Y12404354D01*
X30345456Y12408417D01*
X30346472Y12412819D01*
X30347150Y12417559D01*
X30347827Y12422976D01*
X30348166Y12428732D01*
Y12435165D01*
Y12435843D01*
Y12437197D01*
Y12439567D01*
X30347827Y12442614D01*
X30347488Y12446000D01*
X30347150Y12450402D01*
X30346472Y12455142D01*
X30345795Y12460220D01*
X30343423Y12471394D01*
X30340039Y12482905D01*
X30338007Y12488661D01*
X30335638Y12494079D01*
X30332590Y12499496D01*
X30329205Y12504236D01*
Y12504575D01*
X30328528Y12504913D01*
X30326834Y12506945D01*
X30324124Y12509653D01*
X30320401Y12513039D01*
X30315662Y12516086D01*
X30310242Y12518795D01*
X30303809Y12520827D01*
X30300424Y12521165D01*
X30296701Y12521504D01*
D02*
G37*
%LPD*%
D17*
X25717499Y20320000D02*
D03*
Y19812000D02*
D03*
D18*
Y19303999D02*
D03*
D19*
X23177499Y19177000D02*
D03*
Y19431000D02*
D03*
Y19685001D02*
D03*
Y19939000D02*
D03*
Y20192999D02*
D03*
X25336501Y19812000D02*
D03*
Y20066000D02*
D03*
X24574500D02*
D03*
Y19812000D02*
D03*
D20*
X23177499Y20447000D02*
D03*
D21*
X25336501Y19558000D02*
D03*
X24574500D02*
D03*
D22*
X25209500Y19024600D02*
D03*
X24142700Y19075400D02*
D03*
X23812500Y19735800D02*
D03*
X25209500Y20599400D02*
D03*
%TF.MD5,12ff85596e9d620f11dc8cf9ff1b9f25*%
M02*
