%TF.GenerationSoftware,Altium Limited,Altium Designer,21.3.0 (21)*%
G04 Layer_Color=8421504*
%FSLAX45Y45*%
%MOMM*%
%TF.SameCoordinates,798F48EE-B9F3-42F3-8741-5E889E50E555*%
%TF.FilePolarity,Positive*%
%TF.FileFunction,Paste,Top*%
%TF.Part,Single*%
G01*
G75*
%TA.AperFunction,SMDPad,CuDef*%
G04:AMPARAMS|DCode=10|XSize=0.6mm|YSize=1.778mm|CornerRadius=0.06mm|HoleSize=0mm|Usage=FLASHONLY|Rotation=180.000|XOffset=0mm|YOffset=0mm|HoleType=Round|Shape=RoundedRectangle|*
%AMROUNDEDRECTD10*
21,1,0.60000,1.65800,0,0,180.0*
21,1,0.48000,1.77800,0,0,180.0*
1,1,0.12000,-0.24000,0.82900*
1,1,0.12000,0.24000,0.82900*
1,1,0.12000,0.24000,-0.82900*
1,1,0.12000,-0.24000,-0.82900*
%
%ADD10ROUNDEDRECTD10*%
G04:AMPARAMS|DCode=11|XSize=2.286mm|YSize=2.032mm|CornerRadius=0.2032mm|HoleSize=0mm|Usage=FLASHONLY|Rotation=0.000|XOffset=0mm|YOffset=0mm|HoleType=Round|Shape=RoundedRectangle|*
%AMROUNDEDRECTD11*
21,1,2.28600,1.62560,0,0,0.0*
21,1,1.87960,2.03200,0,0,0.0*
1,1,0.40640,0.93980,-0.81280*
1,1,0.40640,-0.93980,-0.81280*
1,1,0.40640,-0.93980,0.81280*
1,1,0.40640,0.93980,0.81280*
%
%ADD11ROUNDEDRECTD11*%
G04:AMPARAMS|DCode=12|XSize=1.8mm|YSize=1.1mm|CornerRadius=0.11mm|HoleSize=0mm|Usage=FLASHONLY|Rotation=0.000|XOffset=0mm|YOffset=0mm|HoleType=Round|Shape=RoundedRectangle|*
%AMROUNDEDRECTD12*
21,1,1.80000,0.88000,0,0,0.0*
21,1,1.58000,1.10000,0,0,0.0*
1,1,0.22000,0.79000,-0.44000*
1,1,0.22000,-0.79000,-0.44000*
1,1,0.22000,-0.79000,0.44000*
1,1,0.22000,0.79000,0.44000*
%
%ADD12ROUNDEDRECTD12*%
G04:AMPARAMS|DCode=13|XSize=1.4mm|YSize=1.2mm|CornerRadius=0.12mm|HoleSize=0mm|Usage=FLASHONLY|Rotation=0.000|XOffset=0mm|YOffset=0mm|HoleType=Round|Shape=RoundedRectangle|*
%AMROUNDEDRECTD13*
21,1,1.40000,0.96000,0,0,0.0*
21,1,1.16000,1.20000,0,0,0.0*
1,1,0.24000,0.58000,-0.48000*
1,1,0.24000,-0.58000,-0.48000*
1,1,0.24000,-0.58000,0.48000*
1,1,0.24000,0.58000,0.48000*
%
%ADD13ROUNDEDRECTD13*%
G36*
X30175827Y12549606D02*
X30168716D01*
Y12549945D01*
Y12550283D01*
X30168378Y12551976D01*
X30168039Y12554685D01*
X30167361Y12558071D01*
X30166006Y12565181D01*
X30164993Y12568567D01*
X30163638Y12571275D01*
X30163300Y12571614D01*
X30162622Y12572968D01*
X30161267Y12574661D01*
X30159573Y12577031D01*
X30157544Y12579401D01*
X30154834Y12582110D01*
X30152127Y12584480D01*
X30148740Y12586512D01*
X30148401Y12586850D01*
X30147046Y12587189D01*
X30145016Y12588204D01*
X30142307Y12589220D01*
X30138922Y12589897D01*
X30134518Y12590913D01*
X30129779Y12591252D01*
X30124362Y12591590D01*
X30090503D01*
Y12405709D01*
Y12405370D01*
Y12404693D01*
Y12403677D01*
Y12401984D01*
X30090842Y12398260D01*
X30091180Y12393858D01*
X30091519Y12389118D01*
X30092535Y12384717D01*
X30093552Y12380654D01*
X30094568Y12379299D01*
X30095245Y12377945D01*
X30095581Y12377606D01*
X30096597Y12376929D01*
X30098291Y12375575D01*
X30100323Y12374221D01*
X30103369Y12372866D01*
X30107095Y12371512D01*
X30111157Y12370835D01*
X30116235Y12370496D01*
X30124701D01*
Y12363725D01*
X30021094D01*
Y12370496D01*
X30032269D01*
X30034976Y12370835D01*
X30038361Y12371512D01*
X30041748Y12372866D01*
X30045471Y12374221D01*
X30048859Y12376591D01*
X30051904Y12379638D01*
X30052243Y12379977D01*
X30052582Y12380992D01*
X30053259Y12382685D01*
X30053937Y12385055D01*
X30054614Y12388441D01*
X30055292Y12393181D01*
X30055969Y12398599D01*
Y12401984D01*
Y12405709D01*
Y12591590D01*
X30020755D01*
X30017032Y12591252D01*
X30009244Y12590575D01*
X30005521Y12589897D01*
X30002472Y12588882D01*
X30002133D01*
X30000778Y12588204D01*
X29999088Y12587189D01*
X29997055Y12585834D01*
X29994345Y12584141D01*
X29991638Y12581771D01*
X29988928Y12579063D01*
X29986221Y12575677D01*
X29985883Y12575338D01*
X29985205Y12573984D01*
X29984189Y12571953D01*
X29982834Y12568905D01*
X29981479Y12565181D01*
X29980466Y12560779D01*
X29979449Y12555362D01*
X29978772Y12549606D01*
X29972000D01*
X29974371Y12606826D01*
X30173456D01*
X30175827Y12549606D01*
D02*
G37*
G36*
X31128595Y12476811D02*
X31122839D01*
Y12477150D01*
X31122501Y12477827D01*
X31122162Y12479181D01*
X31121487Y12481213D01*
X31120810Y12483244D01*
X31120132Y12485614D01*
X31118100Y12491031D01*
X31115390Y12497126D01*
X31112344Y12502882D01*
X31108621Y12507961D01*
X31106927Y12510331D01*
X31104895Y12512362D01*
X31104556Y12512701D01*
X31102863Y12514055D01*
X31100833Y12515409D01*
X31097446Y12517441D01*
X31093723Y12519134D01*
X31088983Y12520827D01*
X31083902Y12521842D01*
X31077808Y12522181D01*
X31075778D01*
X31073407Y12521842D01*
X31070361Y12521504D01*
X31066974Y12520488D01*
X31063589Y12519472D01*
X31060202Y12517779D01*
X31057156Y12515409D01*
X31056818Y12515071D01*
X31056140Y12514394D01*
X31054785Y12512701D01*
X31053430Y12511008D01*
X31052078Y12508976D01*
X31050723Y12506268D01*
X31050046Y12503559D01*
X31049707Y12500512D01*
Y12500173D01*
Y12498819D01*
X31050046Y12497126D01*
X31050385Y12494756D01*
X31051062Y12492047D01*
X31052078Y12489338D01*
X31053430Y12486291D01*
X31055463Y12483583D01*
X31055801Y12483244D01*
X31056479Y12482228D01*
X31058170Y12480874D01*
X31060202Y12478842D01*
X31063251Y12476472D01*
X31067313Y12473764D01*
X31072391Y12470716D01*
X31078146Y12467669D01*
X31104218Y12455142D01*
X31104556Y12454803D01*
X31105911Y12454465D01*
X31107605Y12453449D01*
X31109973Y12451756D01*
X31112683Y12450063D01*
X31115729Y12448031D01*
X31119116Y12445323D01*
X31122501Y12442614D01*
X31129272Y12435843D01*
X31132321Y12432118D01*
X31135028Y12427717D01*
X31137399Y12423315D01*
X31139093Y12418575D01*
X31140445Y12413835D01*
X31140784Y12408417D01*
Y12408079D01*
Y12407402D01*
Y12406386D01*
X31140445Y12404693D01*
X31140109Y12402662D01*
X31139771Y12400630D01*
X31138754Y12395551D01*
X31136722Y12389795D01*
X31133676Y12383701D01*
X31131644Y12380654D01*
X31129272Y12377606D01*
X31126566Y12374898D01*
X31123517Y12372189D01*
X31123178D01*
X31122839Y12371512D01*
X31121823Y12370835D01*
X31120471Y12370158D01*
X31117084Y12367788D01*
X31112344Y12365417D01*
X31106927Y12363047D01*
X31100494Y12360677D01*
X31093384Y12359323D01*
X31085596Y12358646D01*
X31082889D01*
X31079840Y12358984D01*
X31075778Y12359323D01*
X31070700Y12360000D01*
X31064603Y12360677D01*
X31058170Y12362032D01*
X31051062Y12363725D01*
X31050723D01*
X31050046Y12364063D01*
X31049030Y12364402D01*
X31047675Y12364740D01*
X31044629Y12365079D01*
X31041580Y12365417D01*
X31040903D01*
X31039209Y12364740D01*
X31037180Y12363725D01*
X31036163Y12362370D01*
X31035147Y12361016D01*
X31029391D01*
Y12419591D01*
X31035147D01*
Y12419252D01*
X31035486Y12418575D01*
X31035825Y12417221D01*
X31036163Y12415528D01*
X31036841Y12413496D01*
X31037518Y12411126D01*
X31039209Y12405370D01*
X31041919Y12399276D01*
X31045306Y12393181D01*
X31049368Y12387087D01*
X31054108Y12381669D01*
X31054785Y12380992D01*
X31056479Y12379638D01*
X31059525Y12377606D01*
X31063589Y12375575D01*
X31068329Y12373205D01*
X31073746Y12371173D01*
X31079840Y12369819D01*
X31086273Y12369142D01*
X31088306D01*
X31090674Y12369480D01*
X31093384Y12370158D01*
X31096432Y12370835D01*
X31099817Y12372189D01*
X31103201Y12373882D01*
X31106250Y12376252D01*
X31106589Y12376591D01*
X31107605Y12377606D01*
X31108957Y12378961D01*
X31110312Y12380992D01*
X31111667Y12383701D01*
X31113022Y12386748D01*
X31114038Y12390134D01*
X31114377Y12393858D01*
Y12394536D01*
Y12395890D01*
X31114038Y12398260D01*
X31113361Y12400969D01*
X31112344Y12404354D01*
X31110651Y12407740D01*
X31108621Y12411126D01*
X31105573Y12414512D01*
X31105234Y12414850D01*
X31103879Y12416205D01*
X31101511Y12417898D01*
X31097784Y12420268D01*
X31093045Y12423315D01*
X31090335Y12425346D01*
X31087289Y12427039D01*
X31083566Y12429071D01*
X31079840Y12431102D01*
X31075439Y12433472D01*
X31070700Y12435843D01*
X31070361D01*
X31069684Y12436520D01*
X31068329Y12437197D01*
X31066635Y12437874D01*
X31064267Y12439228D01*
X31061896Y12440583D01*
X31056818Y12443630D01*
X31051062Y12447354D01*
X31045306Y12451079D01*
X31040225Y12455142D01*
X31038196Y12457173D01*
X31036502Y12459205D01*
X31036163Y12459543D01*
X31035147Y12460898D01*
X31034131Y12463268D01*
X31032776Y12466315D01*
X31031085Y12470039D01*
X31030069Y12474441D01*
X31029053Y12479520D01*
X31028714Y12484937D01*
Y12485276D01*
Y12485953D01*
Y12486968D01*
X31029053Y12488323D01*
X31029391Y12492047D01*
X31030408Y12496787D01*
X31032101Y12502205D01*
X31034470Y12507961D01*
X31037857Y12513378D01*
X31042596Y12518795D01*
X31043274Y12519472D01*
X31044965Y12520827D01*
X31048013Y12523197D01*
X31052414Y12525905D01*
X31057495Y12528275D01*
X31063589Y12530645D01*
X31070700Y12532000D01*
X31078485Y12532677D01*
X31080179D01*
X31082211Y12532338D01*
X31085257Y12532000D01*
X31088644Y12531661D01*
X31092706Y12530984D01*
X31097107Y12529630D01*
X31102188Y12528275D01*
X31102524D01*
X31103540Y12527937D01*
X31105234Y12527598D01*
X31107266Y12527260D01*
X31111328Y12526244D01*
X31113022Y12525905D01*
X31116068D01*
X31117422Y12526244D01*
X31118777Y12526921D01*
X31119116Y12527260D01*
X31119794Y12528275D01*
X31121146Y12529968D01*
X31122839Y12532677D01*
X31128595D01*
Y12476811D01*
D02*
G37*
G36*
X30481903Y12532338D02*
X30483936Y12532000D01*
X30486646Y12531661D01*
X30492401Y12530307D01*
X30498834Y12527937D01*
X30502219Y12526244D01*
X30505606Y12524551D01*
X30509329Y12522181D01*
X30512714Y12519472D01*
X30516101Y12516425D01*
X30519150Y12513039D01*
X30519489Y12512701D01*
X30520163Y12512023D01*
X30521179Y12510669D01*
X30522195Y12508638D01*
X30523889Y12506268D01*
X30525583Y12503559D01*
X30527274Y12500173D01*
X30529306Y12496449D01*
X30531339Y12492386D01*
X30533029Y12487646D01*
X30534723Y12482567D01*
X30536417Y12477150D01*
X30537433Y12471055D01*
X30538449Y12464961D01*
X30539124Y12458528D01*
X30539462Y12451417D01*
Y12451079D01*
Y12449724D01*
Y12447354D01*
X30539124Y12444307D01*
X30538785Y12440921D01*
X30538110Y12436520D01*
X30537433Y12431780D01*
X30536417Y12426701D01*
X30535062Y12421284D01*
X30533368Y12415866D01*
X30531339Y12409772D01*
X30528967Y12404016D01*
X30526260Y12398260D01*
X30522873Y12392165D01*
X30519150Y12386748D01*
X30514746Y12381331D01*
X30514407Y12380992D01*
X30513730Y12380315D01*
X30512714Y12379299D01*
X30511023Y12377945D01*
X30509329Y12375914D01*
X30506961Y12374221D01*
X30503912Y12372189D01*
X30500864Y12370158D01*
X30497479Y12367788D01*
X30493756Y12365756D01*
X30484952Y12362370D01*
X30480212Y12360677D01*
X30475134Y12359662D01*
X30470053Y12358984D01*
X30464297Y12358646D01*
X30461929D01*
X30459558Y12358984D01*
X30456512Y12359323D01*
X30452786Y12359662D01*
X30449063Y12360339D01*
X30444998Y12361355D01*
X30441275Y12362709D01*
X30440936D01*
X30439920Y12363386D01*
X30438565Y12364063D01*
X30436536Y12365079D01*
X30434164Y12366433D01*
X30431458Y12368126D01*
X30428748Y12370496D01*
X30425360Y12373205D01*
Y12323095D01*
Y12322756D01*
Y12322418D01*
Y12320386D01*
Y12317677D01*
X30425699Y12314292D01*
Y12310567D01*
X30426376Y12307181D01*
X30426715Y12304134D01*
X30427393Y12301764D01*
Y12301425D01*
X30427731Y12301087D01*
X30429086Y12299055D01*
X30431116Y12296685D01*
X30434503Y12294315D01*
X30434842D01*
X30435519Y12293977D01*
X30436874Y12293638D01*
X30438904Y12292961D01*
X30441275Y12292622D01*
X30444659Y12291945D01*
X30448386Y12291607D01*
X30453125D01*
Y12285174D01*
X30367126D01*
Y12291607D01*
X30373221D01*
X30374911Y12291945D01*
X30377283Y12292284D01*
X30382700Y12293300D01*
X30385410Y12294315D01*
X30388116Y12295670D01*
X30388794Y12296008D01*
X30390149Y12297024D01*
X30391843Y12299055D01*
X30393536Y12301764D01*
Y12302103D01*
X30393872Y12302780D01*
X30394211Y12304134D01*
X30394550Y12306166D01*
X30394888Y12309213D01*
X30395227Y12312937D01*
X30395566Y12318016D01*
Y12324110D01*
Y12479858D01*
Y12480197D01*
Y12480535D01*
Y12482567D01*
Y12485276D01*
X30395227Y12488323D01*
Y12491709D01*
X30394888Y12495094D01*
X30394550Y12497803D01*
X30393872Y12499835D01*
Y12500173D01*
X30393536Y12500512D01*
X30392856Y12502205D01*
X30391165Y12504575D01*
X30389133Y12506268D01*
X30388455Y12506606D01*
X30387103Y12507622D01*
X30384393Y12508299D01*
X30380667Y12508638D01*
X30378976D01*
X30377960Y12508299D01*
X30374234Y12507622D01*
X30369833Y12506268D01*
X30367801Y12512023D01*
X30418250Y12532000D01*
X30425360D01*
Y12494079D01*
X30426038Y12494756D01*
X30426715Y12495772D01*
X30427393Y12497126D01*
X30430099Y12500850D01*
X30433148Y12505590D01*
X30437213Y12510331D01*
X30441275Y12515409D01*
X30446014Y12520149D01*
X30450754Y12523874D01*
X30451431Y12524212D01*
X30453125Y12525228D01*
X30455496Y12526583D01*
X30458881Y12528275D01*
X30462943Y12529968D01*
X30467685Y12531323D01*
X30472763Y12532338D01*
X30477841Y12532677D01*
X30480212D01*
X30481903Y12532338D01*
D02*
G37*
G36*
X30747015Y12606488D02*
X30750061D01*
X30753787Y12606149D01*
X30757510D01*
X30765637Y12605134D01*
X30774100Y12604118D01*
X30782565Y12602425D01*
X30790015Y12600055D01*
X30790353D01*
X30791031Y12599716D01*
X30791708Y12599378D01*
X30793060Y12598700D01*
X30796786Y12597008D01*
X30801187Y12594637D01*
X30806265Y12591590D01*
X30811346Y12587527D01*
X30816763Y12582787D01*
X30821841Y12577370D01*
Y12577031D01*
X30822519Y12576693D01*
X30823196Y12575677D01*
X30823871Y12574661D01*
X30825903Y12571275D01*
X30828613Y12566535D01*
X30830984Y12561118D01*
X30833014Y12554685D01*
X30834369Y12547575D01*
X30835046Y12539449D01*
Y12539110D01*
Y12538094D01*
Y12536740D01*
X30834708Y12534370D01*
X30834369Y12532000D01*
X30834030Y12528953D01*
X30832675Y12522181D01*
X30830304Y12514394D01*
X30828613Y12510669D01*
X30826920Y12506606D01*
X30824548Y12502543D01*
X30821841Y12498480D01*
X30818793Y12494756D01*
X30815408Y12491031D01*
X30815070Y12490693D01*
X30814392Y12490354D01*
X30813376Y12489338D01*
X30811682Y12488323D01*
X30809653Y12486968D01*
X30807281Y12485276D01*
X30804572Y12483583D01*
X30801187Y12481890D01*
X30797464Y12480197D01*
X30793399Y12478504D01*
X30788660Y12477150D01*
X30783582Y12475457D01*
X30778503Y12474441D01*
X30772745Y12473425D01*
X30766312Y12473087D01*
X30759879Y12472748D01*
X30754123D01*
X30751416Y12473087D01*
X30748029D01*
X30740921Y12473764D01*
X30740582D01*
X30739227Y12474102D01*
X30737195Y12474441D01*
X30734488Y12474779D01*
X30731100Y12475118D01*
X30727377Y12475795D01*
X30719250Y12477488D01*
Y12406724D01*
Y12406386D01*
Y12405709D01*
Y12404693D01*
Y12403000D01*
X30719589Y12399276D01*
X30719928Y12394536D01*
X30720267Y12389795D01*
X30721283Y12385055D01*
X30722299Y12380992D01*
X30723312Y12379638D01*
X30723990Y12378284D01*
X30724329Y12377945D01*
X30725345Y12376929D01*
X30727039Y12375914D01*
X30729068Y12374559D01*
X30732117Y12372866D01*
X30735501Y12371851D01*
X30739905Y12370835D01*
X30744644Y12370496D01*
X30754123D01*
Y12363725D01*
X30649841D01*
Y12370496D01*
X30661353D01*
X30664062Y12371173D01*
X30667447Y12371851D01*
X30671173Y12372866D01*
X30674557Y12374559D01*
X30677942Y12376929D01*
X30680991Y12380315D01*
X30681329Y12380654D01*
X30681668Y12381669D01*
X30682346Y12383024D01*
X30683023Y12385732D01*
X30683698Y12389118D01*
X30684039Y12393858D01*
X30684714Y12399614D01*
Y12403000D01*
Y12406724D01*
Y12563827D01*
Y12564165D01*
Y12564842D01*
Y12565858D01*
Y12567551D01*
X30684378Y12571275D01*
X30684039Y12576015D01*
X30683362Y12580756D01*
X30682684Y12585157D01*
X30681329Y12589220D01*
X30680652Y12590575D01*
X30679636Y12591929D01*
X30679297Y12592267D01*
X30678281Y12593283D01*
X30676590Y12594637D01*
X30674557Y12595992D01*
X30671509Y12597346D01*
X30667786Y12598700D01*
X30663724Y12599716D01*
X30658984Y12600055D01*
X30649841D01*
Y12606826D01*
X30744305D01*
X30747015Y12606488D01*
D02*
G37*
G36*
X31212903Y12527937D02*
X31251163D01*
Y12515748D01*
X31212903Y12515409D01*
Y12408756D01*
Y12408417D01*
Y12408079D01*
Y12406047D01*
X31213242Y12403339D01*
X31213580Y12399953D01*
X31213919Y12396228D01*
X31214935Y12392843D01*
X31215948Y12389457D01*
X31217307Y12387087D01*
X31217642Y12386748D01*
X31217981Y12386410D01*
X31218997Y12385394D01*
X31220352Y12384378D01*
X31224075Y12382685D01*
X31226447Y12382008D01*
X31228815Y12381669D01*
X31229831D01*
X31231186Y12382008D01*
X31232541D01*
X31236264Y12383024D01*
X31240329Y12385055D01*
X31240668Y12385394D01*
X31241345Y12385732D01*
X31242361Y12386748D01*
X31243713Y12387764D01*
X31245068Y12389457D01*
X31246423Y12391488D01*
X31247778Y12393520D01*
X31249130Y12396228D01*
X31256241D01*
Y12395890D01*
X31255902Y12395551D01*
X31255225Y12393520D01*
X31253534Y12390134D01*
X31251501Y12386410D01*
X31249130Y12382008D01*
X31246085Y12377606D01*
X31242361Y12373543D01*
X31238297Y12369819D01*
X31237958Y12369480D01*
X31236264Y12368465D01*
X31233896Y12367110D01*
X31231186Y12365417D01*
X31227463Y12363725D01*
X31223398Y12362370D01*
X31218997Y12361355D01*
X31214597Y12361016D01*
X31213242D01*
X31211548Y12361355D01*
X31209518Y12361693D01*
X31207147Y12362032D01*
X31204437Y12363047D01*
X31201392Y12364063D01*
X31198343Y12365417D01*
X31198004Y12365756D01*
X31196991Y12366433D01*
X31195636Y12367449D01*
X31193942Y12368803D01*
X31192249Y12370835D01*
X31190219Y12372866D01*
X31188525Y12375575D01*
X31186832Y12378622D01*
Y12378961D01*
X31186154Y12380315D01*
X31185815Y12382347D01*
X31185138Y12385055D01*
X31184464Y12388780D01*
X31183786Y12393181D01*
X31183447Y12398599D01*
X31183109Y12405032D01*
Y12515748D01*
X31157037D01*
Y12521165D01*
X31157376Y12521504D01*
X31158731Y12521842D01*
X31160760Y12522858D01*
X31163132Y12524212D01*
X31166180Y12526244D01*
X31169565Y12528614D01*
X31173288Y12531323D01*
X31177014Y12534370D01*
X31177353Y12534708D01*
X31178705Y12536063D01*
X31180737Y12538094D01*
X31183447Y12540803D01*
X31186154Y12543850D01*
X31189203Y12547913D01*
X31192587Y12551976D01*
X31195636Y12556716D01*
X31195975Y12557055D01*
X31196313Y12558071D01*
X31197327Y12559764D01*
X31198682Y12562472D01*
X31200375Y12565858D01*
X31202408Y12570260D01*
X31204776Y12575338D01*
X31207486Y12581771D01*
X31212903D01*
Y12527937D01*
D02*
G37*
G36*
X30932220Y12532338D02*
X30934589D01*
X30939667Y12531661D01*
X30945084Y12530984D01*
X30951178Y12529630D01*
X30957275Y12527598D01*
X30962692Y12525228D01*
X30963031Y12524890D01*
X30964383Y12524212D01*
X30966415Y12522858D01*
X30968448Y12520827D01*
X30971155Y12518457D01*
X30973865Y12515409D01*
X30976233Y12512023D01*
X30978265Y12507961D01*
Y12507622D01*
X30978943Y12506268D01*
X30979282Y12504236D01*
X30979959Y12501189D01*
X30980637Y12496787D01*
X30980975Y12491370D01*
X30981314Y12488323D01*
X30981653Y12484598D01*
Y12480874D01*
Y12476472D01*
Y12420606D01*
Y12420268D01*
Y12419591D01*
Y12418575D01*
Y12416882D01*
Y12412819D01*
Y12408417D01*
X30981989Y12403339D01*
Y12398599D01*
Y12394536D01*
X30982330Y12393181D01*
Y12391827D01*
Y12391488D01*
X30982666Y12391150D01*
X30983005Y12389118D01*
X30984021Y12386748D01*
X30985376Y12385055D01*
X30985715Y12384717D01*
X30986731Y12384378D01*
X30988086Y12383701D01*
X30990115Y12383362D01*
X30991809D01*
X30993503Y12383701D01*
X30995193Y12384378D01*
X30995532D01*
X30995871Y12385055D01*
X30996887Y12385732D01*
X30998581Y12387087D01*
X31000275Y12388780D01*
X31002982Y12390811D01*
X31006030Y12393858D01*
X31009753Y12397583D01*
Y12387425D01*
X31009415Y12387087D01*
X31008737Y12386410D01*
X31007721Y12385055D01*
X31006369Y12383362D01*
X31004337Y12381331D01*
X31002304Y12378961D01*
X30997226Y12374221D01*
X30991470Y12369142D01*
X30985037Y12364740D01*
X30981653Y12363047D01*
X30978265Y12361693D01*
X30974881Y12361016D01*
X30971494Y12360677D01*
X30970139D01*
X30968448Y12361016D01*
X30966415Y12361355D01*
X30964044Y12362032D01*
X30961676Y12363047D01*
X30959305Y12364402D01*
X30957275Y12366433D01*
X30956934Y12366772D01*
X30956595Y12367788D01*
X30955582Y12369142D01*
X30954904Y12371173D01*
X30953888Y12374221D01*
X30952872Y12377606D01*
X30952533Y12382008D01*
X30952194Y12387087D01*
X30951855Y12386748D01*
X30951178Y12386410D01*
X30949826Y12385394D01*
X30948132Y12384039D01*
X30943729Y12380992D01*
X30938651Y12376929D01*
X30933234Y12373205D01*
X30928156Y12369480D01*
X30923755Y12366433D01*
X30921722Y12365417D01*
X30920367Y12364740D01*
X30920029Y12364402D01*
X30918674Y12364063D01*
X30916644Y12363386D01*
X30914273Y12362709D01*
X30910889Y12361693D01*
X30907501Y12361016D01*
X30903778Y12360677D01*
X30899716Y12360339D01*
X30899039D01*
X30897006Y12360677D01*
X30893619Y12361016D01*
X30889896Y12361693D01*
X30885495Y12363047D01*
X30880753Y12365079D01*
X30876013Y12368126D01*
X30871613Y12371851D01*
X30871274Y12372528D01*
X30869919Y12373882D01*
X30868228Y12376591D01*
X30866196Y12379977D01*
X30864163Y12384378D01*
X30862469Y12389457D01*
X30861115Y12395551D01*
X30860779Y12402323D01*
Y12403000D01*
Y12404354D01*
X30861115Y12406724D01*
X30861456Y12409433D01*
X30862131Y12412819D01*
X30862808Y12416205D01*
X30864163Y12419929D01*
X30865857Y12423315D01*
X30866196Y12423992D01*
X30867212Y12425346D01*
X30869241Y12427717D01*
X30871951Y12430764D01*
X30875336Y12434150D01*
X30879739Y12437874D01*
X30885156Y12441937D01*
X30891589Y12446000D01*
X30891928D01*
X30892603Y12446339D01*
X30893619Y12447016D01*
X30894974Y12448031D01*
X30897006Y12449047D01*
X30899716Y12450402D01*
X30902423Y12451756D01*
X30906149Y12453449D01*
X30909872Y12455142D01*
X30914273Y12457173D01*
X30919351Y12459543D01*
X30924771Y12461575D01*
X30930865Y12464283D01*
X30937296Y12466654D01*
X30944409Y12469701D01*
X30952194Y12472409D01*
Y12478842D01*
Y12479181D01*
Y12479858D01*
Y12481213D01*
Y12482905D01*
X30951855Y12484937D01*
Y12486968D01*
X30951178Y12492047D01*
X30950162Y12497803D01*
X30948810Y12503220D01*
X30947116Y12508299D01*
X30945761Y12510331D01*
X30944409Y12512362D01*
X30944070Y12512701D01*
X30943054Y12513716D01*
X30941022Y12515409D01*
X30938651Y12517102D01*
X30935605Y12518795D01*
X30931540Y12520488D01*
X30927139Y12521504D01*
X30921722Y12521842D01*
X30920029D01*
X30917999Y12521504D01*
X30915289Y12521165D01*
X30912582Y12520149D01*
X30909534Y12519134D01*
X30906485Y12517441D01*
X30903778Y12515409D01*
X30903439Y12515071D01*
X30902762Y12514394D01*
X30901746Y12513039D01*
X30900391Y12511346D01*
X30899039Y12509315D01*
X30898022Y12506945D01*
X30897345Y12504236D01*
X30897006Y12501527D01*
X30897684Y12491031D01*
Y12490693D01*
Y12489677D01*
X30897345Y12488323D01*
X30897006Y12486291D01*
X30895990Y12482228D01*
X30894635Y12480197D01*
X30893283Y12478504D01*
X30892944Y12478165D01*
X30892603Y12477827D01*
X30891589Y12477150D01*
X30890234Y12476472D01*
X30886850Y12474779D01*
X30884479Y12474441D01*
X30882108Y12474102D01*
X30881094D01*
X30879739Y12474441D01*
X30878384Y12474779D01*
X30874997Y12476134D01*
X30872968Y12477150D01*
X30871274Y12478504D01*
Y12478842D01*
X30870596Y12479520D01*
X30869919Y12480535D01*
X30869241Y12481890D01*
X30868564Y12483583D01*
X30867889Y12485953D01*
X30867548Y12488661D01*
X30867212Y12491370D01*
Y12491709D01*
Y12492047D01*
X30867548Y12494079D01*
X30867889Y12496787D01*
X30869241Y12500512D01*
X30870935Y12504913D01*
X30873645Y12509653D01*
X30877707Y12514732D01*
X30880078Y12517102D01*
X30882785Y12519472D01*
X30883124D01*
X30883463Y12520149D01*
X30884479Y12520827D01*
X30885834Y12521504D01*
X30887186Y12522520D01*
X30889218Y12523535D01*
X30891589Y12524890D01*
X30894296Y12526244D01*
X30900391Y12528614D01*
X30907840Y12530645D01*
X30916644Y12532000D01*
X30926801Y12532677D01*
X30930527D01*
X30932220Y12532338D01*
D02*
G37*
G36*
X31349353D02*
X31351721Y12532000D01*
X31354431Y12531661D01*
X31360864Y12530307D01*
X31367975Y12528275D01*
X31375421Y12524890D01*
X31379147Y12522858D01*
X31382870Y12520488D01*
X31386597Y12517779D01*
X31389981Y12514394D01*
X31390320Y12514055D01*
X31390659Y12513716D01*
X31391675Y12512362D01*
X31392691Y12511008D01*
X31394043Y12509315D01*
X31395737Y12506945D01*
X31397430Y12504575D01*
X31399124Y12501527D01*
X31400476Y12498142D01*
X31402170Y12494417D01*
X31403864Y12490354D01*
X31405219Y12486291D01*
X31407248Y12476472D01*
X31407587Y12471055D01*
X31407925Y12465638D01*
X31294501D01*
Y12465299D01*
Y12463945D01*
Y12462252D01*
X31294839Y12459543D01*
Y12456496D01*
X31295517Y12453110D01*
X31295856Y12449047D01*
X31296533Y12444646D01*
X31298563Y12435504D01*
X31301950Y12426024D01*
X31303983Y12421284D01*
X31306351Y12416882D01*
X31309061Y12412480D01*
X31312109Y12408417D01*
X31312445Y12408079D01*
X31312784Y12407402D01*
X31313800Y12406386D01*
X31315155Y12405370D01*
X31316849Y12403677D01*
X31319217Y12401984D01*
X31323959Y12398260D01*
X31330392Y12394197D01*
X31337500Y12391150D01*
X31341226Y12389795D01*
X31345288Y12388780D01*
X31349689Y12388102D01*
X31354092Y12387764D01*
X31356799D01*
X31359848Y12388102D01*
X31363571Y12388780D01*
X31367975Y12389795D01*
X31372714Y12391488D01*
X31377454Y12393520D01*
X31382193Y12396228D01*
X31382870Y12396567D01*
X31384225Y12397921D01*
X31386597Y12400291D01*
X31389304Y12403339D01*
X31392691Y12407740D01*
X31396075Y12412819D01*
X31399463Y12419252D01*
X31402509Y12427039D01*
X31407925Y12423315D01*
Y12422976D01*
X31407587Y12422299D01*
Y12420945D01*
X31406912Y12419252D01*
X31406573Y12416882D01*
X31405557Y12414512D01*
X31403525Y12408417D01*
X31400815Y12401646D01*
X31397092Y12394197D01*
X31392014Y12386410D01*
X31385919Y12378622D01*
X31385580Y12378284D01*
X31385242Y12377606D01*
X31384225Y12376929D01*
X31382532Y12375575D01*
X31380841Y12373882D01*
X31378809Y12372189D01*
X31376437Y12370496D01*
X31373392Y12368803D01*
X31366959Y12365079D01*
X31359171Y12361693D01*
X31354770Y12360339D01*
X31350366Y12359662D01*
X31345627Y12358984D01*
X31340549Y12358646D01*
X31337839D01*
X31335471Y12358984D01*
X31333099Y12359323D01*
X31330051Y12360000D01*
X31326666Y12360677D01*
X31323282Y12361355D01*
X31315155Y12364063D01*
X31311093Y12366095D01*
X31306689Y12368126D01*
X31302628Y12370835D01*
X31298227Y12373882D01*
X31294162Y12377268D01*
X31290100Y12381331D01*
X31289761Y12381669D01*
X31289084Y12382347D01*
X31288068Y12383701D01*
X31286713Y12385394D01*
X31285361Y12387764D01*
X31283328Y12390811D01*
X31281635Y12393858D01*
X31279605Y12397583D01*
X31277573Y12401984D01*
X31275879Y12406724D01*
X31273849Y12411803D01*
X31272495Y12417221D01*
X31271140Y12422976D01*
X31270123Y12429409D01*
X31269446Y12436181D01*
X31269107Y12443291D01*
Y12443630D01*
Y12444984D01*
Y12447354D01*
X31269446Y12450402D01*
X31269785Y12453787D01*
X31270123Y12457850D01*
X31270801Y12462252D01*
X31271817Y12467331D01*
X31274185Y12477827D01*
X31276218Y12483244D01*
X31278250Y12488661D01*
X31280618Y12494079D01*
X31283328Y12499496D01*
X31286713Y12504236D01*
X31290439Y12508976D01*
X31290778Y12509315D01*
X31291455Y12509992D01*
X31292807Y12511008D01*
X31294501Y12512701D01*
X31296533Y12514394D01*
X31298904Y12516425D01*
X31301950Y12518795D01*
X31305338Y12520827D01*
X31309061Y12523197D01*
X31313123Y12525228D01*
X31317526Y12527260D01*
X31322604Y12528953D01*
X31327682Y12530645D01*
X31333099Y12531661D01*
X31338516Y12532338D01*
X31344611Y12532677D01*
X31347321D01*
X31349353Y12532338D01*
D02*
G37*
G36*
X30280447D02*
X30282819D01*
X30286203Y12531661D01*
X30289590Y12531323D01*
X30293652Y12530307D01*
X30298053Y12529291D01*
X30302795Y12527598D01*
X30307874Y12525905D01*
X30312613Y12523535D01*
X30317691Y12520827D01*
X30322772Y12517441D01*
X30327512Y12513716D01*
X30332251Y12509315D01*
X30336652Y12504236D01*
X30336990Y12503898D01*
X30337329Y12503220D01*
X30338345Y12501866D01*
X30339700Y12499835D01*
X30341055Y12497803D01*
X30342746Y12494756D01*
X30344440Y12491709D01*
X30346472Y12488323D01*
X30348166Y12484260D01*
X30349857Y12479858D01*
X30352905Y12470378D01*
X30354260Y12465299D01*
X30355276Y12459882D01*
X30355612Y12454465D01*
X30355951Y12448709D01*
Y12448370D01*
Y12447693D01*
Y12446677D01*
Y12444984D01*
X30355612Y12442953D01*
X30355276Y12440583D01*
X30354599Y12434827D01*
X30353244Y12428055D01*
X30351550Y12420606D01*
X30348843Y12412480D01*
X30345117Y12404016D01*
Y12403677D01*
X30344778Y12403000D01*
X30344101Y12401984D01*
X30343085Y12400291D01*
X30340717Y12396228D01*
X30337668Y12391150D01*
X30333267Y12385732D01*
X30328528Y12379977D01*
X30322772Y12374559D01*
X30316000Y12369819D01*
X30315662D01*
X30315323Y12369480D01*
X30314307Y12368803D01*
X30312613Y12368126D01*
X30310922Y12367110D01*
X30308890Y12366433D01*
X30303809Y12364402D01*
X30297717Y12362032D01*
X30290607Y12360339D01*
X30283157Y12358984D01*
X30274692Y12358646D01*
X30272998D01*
X30271307Y12358984D01*
X30268597D01*
X30265552Y12359662D01*
X30261826Y12360339D01*
X30257764Y12361016D01*
X30253363Y12362370D01*
X30248959Y12364063D01*
X30244220Y12365756D01*
X30239142Y12368126D01*
X30234402Y12371173D01*
X30229321Y12374559D01*
X30224582Y12378284D01*
X30220181Y12383024D01*
X30215778Y12388102D01*
X30215439Y12388441D01*
X30215103Y12389118D01*
X30214087Y12390473D01*
X30213071Y12392504D01*
X30211716Y12394874D01*
X30210022Y12397583D01*
X30208331Y12400630D01*
X30206638Y12404354D01*
X30204944Y12408417D01*
X30203253Y12412480D01*
X30200204Y12421961D01*
X30198172Y12432795D01*
X30197833Y12438213D01*
X30197495Y12443969D01*
Y12444307D01*
Y12444984D01*
Y12446339D01*
X30197833Y12448031D01*
Y12450063D01*
X30198172Y12452433D01*
X30198849Y12458189D01*
X30200204Y12464961D01*
X30202237Y12472409D01*
X30204944Y12480535D01*
X30208670Y12489000D01*
Y12489338D01*
X30209344Y12490016D01*
X30209686Y12491031D01*
X30210699Y12492724D01*
X30213071Y12496787D01*
X30216455Y12501527D01*
X30220859Y12506945D01*
X30225937Y12512362D01*
X30231693Y12517441D01*
X30238126Y12521842D01*
X30238464D01*
X30238803Y12522181D01*
X30239819Y12522858D01*
X30241174Y12523535D01*
X30244897Y12525228D01*
X30249976Y12527260D01*
X30255731Y12529291D01*
X30262164Y12530984D01*
X30269275Y12532338D01*
X30276724Y12532677D01*
X30278418D01*
X30280447Y12532338D01*
D02*
G37*
%LPC*%
G36*
X30463620Y12506945D02*
X30462268D01*
X30460574Y12506606D01*
X30458203Y12506268D01*
X30455835Y12505929D01*
X30452786Y12505252D01*
X30449738Y12503898D01*
X30446692Y12502543D01*
X30446353D01*
X30445337Y12501866D01*
X30443982Y12500512D01*
X30441614Y12498819D01*
X30438565Y12496449D01*
X30434842Y12493063D01*
X30430441Y12488661D01*
X30425360Y12483244D01*
Y12421622D01*
Y12421284D01*
Y12420606D01*
Y12419591D01*
Y12418575D01*
Y12414850D01*
X30425699Y12410787D01*
Y12406386D01*
X30426038Y12402323D01*
X30426376Y12398599D01*
X30426715Y12395551D01*
Y12395213D01*
X30427393Y12393858D01*
X30428070Y12391827D01*
X30429425Y12389457D01*
X30431116Y12386410D01*
X30433148Y12383362D01*
X30435858Y12380315D01*
X30439243Y12377268D01*
X30439581Y12376929D01*
X30440936Y12375914D01*
X30443307Y12374898D01*
X30446014Y12373543D01*
X30449738Y12371851D01*
X30453802Y12370835D01*
X30458542Y12369819D01*
X30463959Y12369480D01*
X30465652D01*
X30467007Y12369819D01*
X30470392Y12370158D01*
X30474457Y12371173D01*
X30478857Y12372866D01*
X30483936Y12375236D01*
X30488675Y12378622D01*
X30493079Y12383362D01*
X30493417Y12383701D01*
X30493756Y12384378D01*
X30494431Y12385394D01*
X30495447Y12386748D01*
X30496463Y12388780D01*
X30497818Y12390811D01*
X30499173Y12393520D01*
X30500528Y12396567D01*
X30501880Y12400291D01*
X30502896Y12404016D01*
X30504251Y12408079D01*
X30505267Y12412819D01*
X30506281Y12417898D01*
X30506961Y12422976D01*
X30507635Y12428732D01*
Y12434827D01*
Y12435165D01*
Y12436520D01*
Y12438551D01*
X30507297Y12440921D01*
Y12444307D01*
X30506622Y12447693D01*
X30506281Y12451756D01*
X30505606Y12456157D01*
X30503574Y12465638D01*
X30500528Y12475118D01*
X30498834Y12479858D01*
X30496463Y12484260D01*
X30494092Y12488661D01*
X30491046Y12492724D01*
X30490369Y12493401D01*
X30489014Y12495094D01*
X30486646Y12497126D01*
X30483258Y12499835D01*
X30479196Y12502543D01*
X30474792Y12504575D01*
X30469376Y12506268D01*
X30463620Y12506945D01*
D02*
G37*
G36*
X30742612Y12592267D02*
X30740921D01*
X30738889Y12591929D01*
X30736179D01*
X30732794Y12591252D01*
X30729068Y12590575D01*
X30724329Y12589897D01*
X30719250Y12588543D01*
Y12487646D01*
X30719589D01*
X30720944Y12487307D01*
X30722635Y12486968D01*
X30724667Y12486630D01*
X30727377Y12486291D01*
X30730084Y12485953D01*
X30735840Y12484937D01*
X30737195D01*
X30738550Y12484598D01*
X30740244D01*
X30744305Y12484260D01*
X30750061D01*
X30751416Y12484598D01*
X30755139Y12484937D01*
X30759543Y12485953D01*
X30764282Y12487646D01*
X30769699Y12490354D01*
X30775116Y12493740D01*
X30780533Y12498480D01*
Y12498819D01*
X30781210Y12499157D01*
X30782565Y12501189D01*
X30784937Y12504236D01*
X30787305Y12508638D01*
X30789676Y12514055D01*
X30792047Y12520488D01*
X30793399Y12527598D01*
X30794077Y12535724D01*
Y12536063D01*
Y12536401D01*
Y12538433D01*
X30793738Y12541480D01*
X30793399Y12545543D01*
X30792383Y12549945D01*
X30791367Y12555023D01*
X30789676Y12560102D01*
X30787643Y12565181D01*
X30787305Y12565858D01*
X30786627Y12567551D01*
X30784937Y12569921D01*
X30782904Y12572968D01*
X30780194Y12576015D01*
X30777148Y12579401D01*
X30773425Y12582787D01*
X30769360Y12585496D01*
X30768683Y12585834D01*
X30767328Y12586512D01*
X30764960Y12587527D01*
X30761572Y12588882D01*
X30757510Y12590236D01*
X30753110Y12591252D01*
X30748029Y12591929D01*
X30742612Y12592267D01*
D02*
G37*
G36*
X30952194Y12461575D02*
X30951855D01*
X30951178Y12461236D01*
X30949487Y12460559D01*
X30947794Y12459882D01*
X30945761Y12458866D01*
X30943054Y12457850D01*
X30937637Y12455480D01*
X30931540Y12453110D01*
X30925784Y12450402D01*
X30920706Y12448031D01*
X30918674Y12447016D01*
X30916983Y12446000D01*
X30916306Y12445661D01*
X30914612Y12444646D01*
X30912241Y12442953D01*
X30909195Y12440921D01*
X30905807Y12438551D01*
X30902423Y12435843D01*
X30899377Y12432795D01*
X30896667Y12429409D01*
X30896329Y12429071D01*
X30895651Y12428055D01*
X30894974Y12426362D01*
X30893958Y12423992D01*
X30892603Y12421284D01*
X30891928Y12417898D01*
X30891251Y12414512D01*
X30890912Y12410787D01*
Y12410110D01*
Y12408756D01*
X30891251Y12406386D01*
X30891928Y12403339D01*
X30892603Y12399953D01*
X30893958Y12396228D01*
X30895990Y12392843D01*
X30898361Y12389457D01*
X30898700Y12389118D01*
X30899716Y12388102D01*
X30901407Y12386748D01*
X30903439Y12385394D01*
X30906149Y12383701D01*
X30909195Y12382347D01*
X30912582Y12381331D01*
X30916306Y12380992D01*
X30916983D01*
X30918674Y12381331D01*
X30921722Y12382008D01*
X30925784Y12383362D01*
X30930865Y12385394D01*
X30937296Y12388441D01*
X30940683Y12390473D01*
X30944409Y12393181D01*
X30948132Y12395890D01*
X30952194Y12398937D01*
Y12461575D01*
D02*
G37*
G36*
X31334793Y12519811D02*
X31334116D01*
X31332422Y12519472D01*
X31329376Y12519134D01*
X31325989Y12518457D01*
X31321588Y12516764D01*
X31317188Y12514732D01*
X31312445Y12512023D01*
X31308044Y12507961D01*
X31307706Y12507283D01*
X31306012Y12505929D01*
X31304321Y12503220D01*
X31301950Y12499835D01*
X31299579Y12495094D01*
X31297211Y12489677D01*
X31295517Y12483244D01*
X31294501Y12476134D01*
X31370682D01*
Y12476472D01*
Y12476811D01*
X31370343Y12478842D01*
Y12481551D01*
X31369666Y12484598D01*
X31368652Y12492047D01*
X31367636Y12495433D01*
X31366620Y12498142D01*
X31366281Y12498480D01*
X31365942Y12499835D01*
X31364926Y12501527D01*
X31363232Y12503898D01*
X31361542Y12506606D01*
X31359171Y12509315D01*
X31356461Y12511685D01*
X31353415Y12514055D01*
X31353076Y12514394D01*
X31352060Y12515071D01*
X31350031Y12515748D01*
X31347659Y12517102D01*
X31344949Y12518118D01*
X31341904Y12518795D01*
X31338516Y12519472D01*
X31334793Y12519811D01*
D02*
G37*
G36*
X30271307Y12521165D02*
X30269614D01*
X30267581Y12520827D01*
X30265213Y12520488D01*
X30262164Y12519811D01*
X30259119Y12518795D01*
X30255731Y12517441D01*
X30252008Y12515409D01*
X30251669Y12515071D01*
X30250314Y12514394D01*
X30248621Y12512701D01*
X30246591Y12510669D01*
X30243881Y12507961D01*
X30241510Y12504575D01*
X30238803Y12500512D01*
X30236432Y12495433D01*
X30236093Y12494756D01*
X30235416Y12493063D01*
X30234741Y12490016D01*
X30233725Y12485614D01*
X30232370Y12480535D01*
X30231693Y12474441D01*
X30231015Y12467331D01*
X30230676Y12459205D01*
Y12458866D01*
Y12457512D01*
Y12455819D01*
X30231015Y12453110D01*
Y12450063D01*
X30231354Y12446339D01*
X30232031Y12442276D01*
X30232370Y12437874D01*
X30234061Y12428394D01*
X30236771Y12417898D01*
X30240158Y12407402D01*
X30244897Y12397244D01*
X30245236Y12396906D01*
X30245575Y12396228D01*
X30246252Y12394874D01*
X30247607Y12393181D01*
X30250653Y12389118D01*
X30255054Y12384378D01*
X30260471Y12379638D01*
X30266904Y12375575D01*
X30270291Y12373882D01*
X30274014Y12372528D01*
X30278079Y12371851D01*
X30282480Y12371512D01*
X30284174D01*
X30285526Y12371851D01*
X30288574Y12372189D01*
X30292636Y12373205D01*
X30297375Y12374898D01*
X30302118Y12377606D01*
X30306857Y12380992D01*
X30311258Y12385732D01*
Y12386071D01*
X30311597Y12386410D01*
X30312274Y12387425D01*
X30312952Y12388441D01*
X30313968Y12390134D01*
X30314984Y12392165D01*
X30316000Y12394536D01*
X30317014Y12397244D01*
X30318030Y12400291D01*
X30319046Y12404016D01*
X30320062Y12408079D01*
X30321078Y12412480D01*
X30321756Y12417221D01*
X30322433Y12422638D01*
X30322772Y12428394D01*
Y12434827D01*
Y12435504D01*
Y12436858D01*
Y12439228D01*
X30322433Y12442276D01*
X30322095Y12445661D01*
X30321756Y12450063D01*
X30321078Y12454803D01*
X30320401Y12459882D01*
X30318030Y12471055D01*
X30314645Y12482567D01*
X30312613Y12488323D01*
X30310242Y12493740D01*
X30307196Y12499157D01*
X30303809Y12503898D01*
Y12504236D01*
X30303134Y12504575D01*
X30301440Y12506606D01*
X30298734Y12509315D01*
X30295007Y12512701D01*
X30290268Y12515748D01*
X30284851Y12518457D01*
X30278418Y12520488D01*
X30275031Y12520827D01*
X30271307Y12521165D01*
D02*
G37*
%LPD*%
D10*
X24003000Y20084500D02*
D03*
X23875999D02*
D03*
X23749001D02*
D03*
X23622000D02*
D03*
X24003000Y19539500D02*
D03*
X23875999D02*
D03*
X23749001D02*
D03*
X23622000D02*
D03*
D11*
X24955499Y19367500D02*
D03*
Y18986501D02*
D03*
Y20256500D02*
D03*
Y20637500D02*
D03*
Y20002499D02*
D03*
Y19621500D02*
D03*
D12*
X24193500Y19657001D02*
D03*
Y19967000D02*
D03*
D13*
X23939500Y19267000D02*
D03*
Y19087000D02*
D03*
X23685500Y19087000D02*
D03*
Y19267000D02*
D03*
%TF.MD5,30b0cd712aa244ca95d8ce2325dbf36e*%
M02*
