%TF.GenerationSoftware,Altium Limited,Altium Designer,21.3.0 (21)*%
G04 Layer_Color=8388736*
%FSLAX45Y45*%
%MOMM*%
%TF.SameCoordinates,798F48EE-B9F3-42F3-8741-5E889E50E555*%
%TF.FilePolarity,Negative*%
%TF.FileFunction,Soldermask,Top*%
%TF.Part,Single*%
G01*
G75*
%TA.AperFunction,ComponentPad*%
%ADD25C,2.90320*%
%ADD26R,2.90320X2.90320*%
%ADD27C,1.90320*%
%ADD28R,1.90320X1.90320*%
%ADD29R,1.90320X1.90320*%
%TA.AperFunction,ViaPad*%
%ADD30C,1.06680*%
%ADD31C,1.47320*%
%TA.AperFunction,SMDPad,CuDef*%
G04:AMPARAMS|DCode=36|XSize=0.8032mm|YSize=1.9812mm|CornerRadius=0.1616mm|HoleSize=0mm|Usage=FLASHONLY|Rotation=180.000|XOffset=0mm|YOffset=0mm|HoleType=Round|Shape=RoundedRectangle|*
%AMROUNDEDRECTD36*
21,1,0.80320,1.65800,0,0,180.0*
21,1,0.48000,1.98120,0,0,180.0*
1,1,0.32320,-0.24000,0.82900*
1,1,0.32320,0.24000,0.82900*
1,1,0.32320,0.24000,-0.82900*
1,1,0.32320,-0.24000,-0.82900*
%
%ADD36ROUNDEDRECTD36*%
G04:AMPARAMS|DCode=37|XSize=2.4892mm|YSize=2.2352mm|CornerRadius=0.3048mm|HoleSize=0mm|Usage=FLASHONLY|Rotation=0.000|XOffset=0mm|YOffset=0mm|HoleType=Round|Shape=RoundedRectangle|*
%AMROUNDEDRECTD37*
21,1,2.48920,1.62560,0,0,0.0*
21,1,1.87960,2.23520,0,0,0.0*
1,1,0.60960,0.93980,-0.81280*
1,1,0.60960,-0.93980,-0.81280*
1,1,0.60960,-0.93980,0.81280*
1,1,0.60960,0.93980,0.81280*
%
%ADD37ROUNDEDRECTD37*%
G04:AMPARAMS|DCode=38|XSize=2.0032mm|YSize=1.3032mm|CornerRadius=0.2116mm|HoleSize=0mm|Usage=FLASHONLY|Rotation=0.000|XOffset=0mm|YOffset=0mm|HoleType=Round|Shape=RoundedRectangle|*
%AMROUNDEDRECTD38*
21,1,2.00320,0.88000,0,0,0.0*
21,1,1.58000,1.30320,0,0,0.0*
1,1,0.42320,0.79000,-0.44000*
1,1,0.42320,-0.79000,-0.44000*
1,1,0.42320,-0.79000,0.44000*
1,1,0.42320,0.79000,0.44000*
%
%ADD38ROUNDEDRECTD38*%
G04:AMPARAMS|DCode=39|XSize=1.6032mm|YSize=1.4032mm|CornerRadius=0.2216mm|HoleSize=0mm|Usage=FLASHONLY|Rotation=0.000|XOffset=0mm|YOffset=0mm|HoleType=Round|Shape=RoundedRectangle|*
%AMROUNDEDRECTD39*
21,1,1.60320,0.96000,0,0,0.0*
21,1,1.16000,1.40320,0,0,0.0*
1,1,0.44320,0.58000,-0.48000*
1,1,0.44320,-0.58000,-0.48000*
1,1,0.44320,-0.58000,0.48000*
1,1,0.44320,0.58000,0.48000*
%
%ADD39ROUNDEDRECTD39*%
G36*
X30811682Y12522350D02*
X30804913D01*
Y12522689D01*
Y12523366D01*
X30804572Y12524720D01*
X30804236Y12526413D01*
X30803897Y12528445D01*
X30803558Y12530815D01*
X30802203Y12536232D01*
X30800510Y12542327D01*
X30798480Y12548760D01*
X30796109Y12554854D01*
X30793060Y12560610D01*
Y12560949D01*
X30792722Y12561287D01*
X30791708Y12562980D01*
X30789676Y12565689D01*
X30786966Y12569075D01*
X30783582Y12572799D01*
X30779517Y12576523D01*
X30774777Y12580248D01*
X30769360Y12583634D01*
X30768683Y12583972D01*
X30766653Y12584988D01*
X30763605Y12586342D01*
X30759543Y12588035D01*
X30754803Y12589390D01*
X30749384Y12590744D01*
X30743628Y12591760D01*
X30737534Y12592098D01*
X30734488D01*
X30731100Y12591421D01*
X30726700Y12590744D01*
X30721960Y12589390D01*
X30716541Y12587358D01*
X30711462Y12584311D01*
X30706723Y12580586D01*
X30706384Y12579909D01*
X30705029Y12578555D01*
X30703000Y12576185D01*
X30700967Y12573138D01*
X30698596Y12569075D01*
X30696906Y12564673D01*
X30695551Y12559933D01*
X30694873Y12554516D01*
Y12554177D01*
Y12552823D01*
X30695212Y12550453D01*
X30695889Y12548083D01*
X30696564Y12545035D01*
X30697919Y12541650D01*
X30699951Y12537925D01*
X30702322Y12534539D01*
X30703000Y12533862D01*
X30703677Y12533185D01*
X30704691Y12532169D01*
X30706046Y12530815D01*
X30708078Y12529122D01*
X30710446Y12527091D01*
X30713156Y12525059D01*
X30716541Y12522689D01*
X30720267Y12519980D01*
X30724667Y12516933D01*
X30729407Y12513547D01*
X30734824Y12510161D01*
X30741257Y12506776D01*
X30748029Y12502713D01*
X30755478Y12498650D01*
X30755817Y12498311D01*
X30756833Y12497972D01*
X30758865Y12496957D01*
X30760895Y12495602D01*
X30763605Y12494248D01*
X30766992Y12492217D01*
X30774100Y12488154D01*
X30781549Y12483752D01*
X30789337Y12479012D01*
X30796448Y12474610D01*
X30799155Y12472579D01*
X30801865Y12470547D01*
X30802542Y12470209D01*
X30803897Y12468854D01*
X30806265Y12466823D01*
X30808975Y12464114D01*
X30812021Y12460728D01*
X30815408Y12456665D01*
X30818454Y12452264D01*
X30821164Y12447524D01*
X30821503Y12446847D01*
X30822180Y12445154D01*
X30823196Y12442445D01*
X30824548Y12439059D01*
X30825903Y12434996D01*
X30826920Y12430256D01*
X30827597Y12425177D01*
X30827936Y12419760D01*
Y12419421D01*
Y12418406D01*
Y12417051D01*
X30827597Y12415020D01*
X30827258Y12412650D01*
X30826920Y12409941D01*
X30825226Y12403508D01*
X30822519Y12396059D01*
X30820825Y12391996D01*
X30818793Y12387933D01*
X30816425Y12383870D01*
X30813376Y12379807D01*
X30809991Y12375744D01*
X30806265Y12372020D01*
X30805927Y12371681D01*
X30805249Y12371343D01*
X30804236Y12370327D01*
X30802542Y12368973D01*
X30800171Y12367618D01*
X30797800Y12365925D01*
X30794754Y12363894D01*
X30791367Y12362201D01*
X30787643Y12360508D01*
X30783582Y12358477D01*
X30778842Y12356784D01*
X30774100Y12355429D01*
X30769022Y12354075D01*
X30763266Y12353398D01*
X30757510Y12352721D01*
X30751416Y12352382D01*
X30747690D01*
X30744983Y12352721D01*
X30741934D01*
X30738550Y12353059D01*
X30731439Y12354075D01*
X30731100D01*
X30730423Y12354414D01*
X30728732Y12354752D01*
X30726700Y12355429D01*
X30723312Y12356107D01*
X30719589Y12357122D01*
X30714511Y12358815D01*
X30708417Y12360508D01*
X30708078D01*
X30707739Y12360847D01*
X30705707Y12361524D01*
X30702661Y12362201D01*
X30699274Y12363555D01*
X30695551Y12364571D01*
X30691824Y12365248D01*
X30688779Y12365925D01*
X30686407Y12366264D01*
X30685730D01*
X30684039Y12365925D01*
X30681668Y12365248D01*
X30679297Y12363555D01*
X30678958Y12362878D01*
X30678281Y12362201D01*
X30677942Y12361185D01*
X30677267Y12359492D01*
X30676590Y12357800D01*
X30675912Y12355429D01*
X30675574Y12352382D01*
X30668802D01*
Y12435673D01*
X30675574D01*
Y12435335D01*
X30675912Y12434658D01*
Y12433303D01*
X30676251Y12431272D01*
X30676929Y12429240D01*
X30677267Y12426532D01*
X30678622Y12420776D01*
X30680652Y12414343D01*
X30682684Y12407910D01*
X30685052Y12401477D01*
X30687762Y12396059D01*
X30688101Y12395382D01*
X30689456Y12394028D01*
X30691147Y12391658D01*
X30693857Y12388610D01*
X30697244Y12385225D01*
X30701645Y12381500D01*
X30706384Y12378114D01*
X30712140Y12374729D01*
X30712479D01*
X30712817Y12374390D01*
X30713834Y12374051D01*
X30714850Y12373374D01*
X30718234Y12372020D01*
X30722635Y12370666D01*
X30728055Y12368973D01*
X30734149Y12367618D01*
X30740582Y12366603D01*
X30747690Y12366264D01*
X30749722D01*
X30751416Y12366603D01*
X30755478Y12366941D01*
X30760556Y12367618D01*
X30765976Y12369311D01*
X30772070Y12371343D01*
X30777826Y12374051D01*
X30782904Y12378114D01*
X30783582Y12378792D01*
X30784937Y12380146D01*
X30786966Y12382855D01*
X30789676Y12385902D01*
X30792047Y12389965D01*
X30794077Y12394705D01*
X30795432Y12400122D01*
X30796109Y12405878D01*
Y12406217D01*
Y12407571D01*
X30795770Y12409264D01*
X30795432Y12411634D01*
X30794754Y12414343D01*
X30794077Y12417390D01*
X30792722Y12420776D01*
X30791031Y12424162D01*
X30790692Y12424500D01*
X30790015Y12425854D01*
X30788998Y12427547D01*
X30787305Y12429917D01*
X30785275Y12432288D01*
X30782565Y12435335D01*
X30779517Y12438382D01*
X30775793Y12441429D01*
X30775455Y12441768D01*
X30774100Y12442445D01*
X30771732Y12443799D01*
X30770377Y12444815D01*
X30768344Y12446169D01*
X30765976Y12447524D01*
X30763266Y12449217D01*
X30760220Y12450910D01*
X30756494Y12452941D01*
X30752432Y12455311D01*
X30748029Y12458020D01*
X30742950Y12460728D01*
X30737195Y12463776D01*
X30736856Y12464114D01*
X30735840Y12464453D01*
X30734149Y12465469D01*
X30732117Y12466823D01*
X30729745Y12468177D01*
X30726700Y12469870D01*
X30719928Y12473933D01*
X30712817Y12478335D01*
X30705368Y12483075D01*
X30698596Y12487476D01*
X30695551Y12489508D01*
X30692841Y12491539D01*
X30692163Y12491878D01*
X30690811Y12493232D01*
X30688440Y12495602D01*
X30685730Y12498311D01*
X30682346Y12501697D01*
X30679297Y12505760D01*
X30675912Y12509823D01*
X30673203Y12514563D01*
X30672864Y12515240D01*
X30672189Y12516933D01*
X30671173Y12519303D01*
X30669818Y12522689D01*
X30668463Y12526752D01*
X30667447Y12531492D01*
X30666769Y12536909D01*
X30666431Y12542327D01*
Y12542665D01*
Y12543342D01*
Y12545035D01*
X30666769Y12546728D01*
X30667108Y12549098D01*
X30667447Y12551468D01*
X30668802Y12557901D01*
X30671173Y12564673D01*
X30672864Y12568398D01*
X30674896Y12572461D01*
X30677267Y12576185D01*
X30679974Y12579909D01*
X30683023Y12583634D01*
X30686407Y12587358D01*
X30686746Y12587697D01*
X30687424Y12588035D01*
X30688440Y12589051D01*
X30690131Y12590405D01*
X30691824Y12591760D01*
X30694196Y12593453D01*
X30697244Y12595145D01*
X30700290Y12596838D01*
X30703677Y12598531D01*
X30707739Y12600224D01*
X30716202Y12603271D01*
X30726022Y12605642D01*
X30731439Y12605980D01*
X30737195Y12606319D01*
X30740582D01*
X30742273Y12605980D01*
X30744305D01*
X30749722Y12605303D01*
X30755817Y12603949D01*
X30762589Y12602256D01*
X30770038Y12599886D01*
X30778165Y12596838D01*
X30778503Y12596500D01*
X30779858Y12596161D01*
X30781549Y12595484D01*
X30783920Y12594807D01*
X30788321Y12593114D01*
X30790692Y12592775D01*
X30792383Y12592437D01*
X30793060D01*
X30795093Y12592775D01*
X30797464Y12593453D01*
X30799832Y12595145D01*
X30800510Y12595823D01*
X30800848Y12596500D01*
X30801526Y12597516D01*
X30802542Y12599208D01*
X30803220Y12600901D01*
X30804236Y12603271D01*
X30804913Y12606319D01*
X30811682D01*
Y12522350D01*
D02*
G37*
G36*
X30175827Y12543681D02*
X30168716D01*
Y12544020D01*
Y12544358D01*
X30168378Y12546051D01*
X30168039Y12548760D01*
X30167361Y12552146D01*
X30166006Y12559256D01*
X30164993Y12562642D01*
X30163638Y12565350D01*
X30163300Y12565689D01*
X30162622Y12567043D01*
X30161267Y12568736D01*
X30159573Y12571106D01*
X30157544Y12573476D01*
X30154834Y12576185D01*
X30152127Y12578555D01*
X30148740Y12580586D01*
X30148401Y12580925D01*
X30147046Y12581264D01*
X30145016Y12582279D01*
X30142307Y12583295D01*
X30138922Y12583972D01*
X30134518Y12584988D01*
X30129779Y12585327D01*
X30124362Y12585665D01*
X30090503D01*
Y12399784D01*
Y12399445D01*
Y12398768D01*
Y12397752D01*
Y12396059D01*
X30090842Y12392335D01*
X30091180Y12387933D01*
X30091519Y12383193D01*
X30092535Y12378792D01*
X30093552Y12374729D01*
X30094568Y12373374D01*
X30095245Y12372020D01*
X30095581Y12371681D01*
X30096597Y12371004D01*
X30098291Y12369650D01*
X30100323Y12368296D01*
X30103369Y12366941D01*
X30107095Y12365587D01*
X30111157Y12364910D01*
X30116235Y12364571D01*
X30124701D01*
Y12357800D01*
X30021094D01*
Y12364571D01*
X30032269D01*
X30034976Y12364910D01*
X30038361Y12365587D01*
X30041748Y12366941D01*
X30045471Y12368296D01*
X30048859Y12370666D01*
X30051904Y12373713D01*
X30052243Y12374051D01*
X30052582Y12375067D01*
X30053259Y12376760D01*
X30053937Y12379130D01*
X30054614Y12382516D01*
X30055292Y12387256D01*
X30055969Y12392673D01*
Y12396059D01*
Y12399784D01*
Y12585665D01*
X30020755D01*
X30017032Y12585327D01*
X30009244Y12584649D01*
X30005521Y12583972D01*
X30002472Y12582957D01*
X30002133D01*
X30000778Y12582279D01*
X29999088Y12581264D01*
X29997055Y12579909D01*
X29994345Y12578216D01*
X29991638Y12575846D01*
X29988928Y12573138D01*
X29986221Y12569752D01*
X29985883Y12569413D01*
X29985205Y12568059D01*
X29984189Y12566027D01*
X29982834Y12562980D01*
X29981479Y12559256D01*
X29980466Y12554854D01*
X29979449Y12549437D01*
X29978772Y12543681D01*
X29972000D01*
X29974371Y12600901D01*
X30173456D01*
X30175827Y12543681D01*
D02*
G37*
G36*
X31290439Y12422469D02*
Y12422130D01*
Y12421114D01*
Y12419760D01*
Y12417729D01*
Y12415697D01*
Y12412988D01*
Y12407232D01*
X31290778Y12401138D01*
Y12395382D01*
X31291116Y12393012D01*
Y12390642D01*
X31291455Y12388610D01*
Y12387256D01*
Y12386918D01*
X31291794Y12386240D01*
X31292130Y12385225D01*
X31292471Y12383870D01*
X31293823Y12380823D01*
X31294839Y12379469D01*
X31295856Y12378453D01*
X31296533Y12378114D01*
X31297888Y12377437D01*
X31300256Y12376422D01*
X31302966Y12376083D01*
X31303983D01*
X31304996Y12376422D01*
X31306351D01*
X31308044Y12376760D01*
X31310416Y12377437D01*
X31313123Y12378114D01*
X31315833Y12379130D01*
X31317862Y12372697D01*
X31269107Y12352721D01*
X31260983D01*
Y12376083D01*
X31260306Y12375406D01*
X31258951Y12374051D01*
X31256580Y12371681D01*
X31253534Y12369311D01*
X31249808Y12366264D01*
X31245746Y12363217D01*
X31241684Y12360508D01*
X31237280Y12358138D01*
X31236603Y12357800D01*
X31235248Y12357461D01*
X31232880Y12356445D01*
X31229831Y12355429D01*
X31226108Y12354414D01*
X31222046Y12353737D01*
X31217307Y12353059D01*
X31212564Y12352721D01*
X31209857D01*
X31208163Y12353059D01*
X31205792Y12353398D01*
X31203085Y12354075D01*
X31196652Y12355429D01*
X31189203Y12358138D01*
X31185138Y12359831D01*
X31181415Y12362201D01*
X31177353Y12364571D01*
X31173288Y12367618D01*
X31169226Y12371004D01*
X31165503Y12375067D01*
X31165164Y12375406D01*
X31164487Y12376083D01*
X31163809Y12377437D01*
X31162454Y12379130D01*
X31160760Y12381500D01*
X31159067Y12383870D01*
X31157376Y12387256D01*
X31155682Y12390642D01*
X31153650Y12394705D01*
X31151959Y12399107D01*
X31150266Y12403847D01*
X31148572Y12408925D01*
X31147217Y12414343D01*
X31146542Y12420099D01*
X31145865Y12426193D01*
X31145526Y12432626D01*
Y12432965D01*
Y12434319D01*
Y12436012D01*
X31145865Y12438721D01*
X31146201Y12441768D01*
X31146542Y12445492D01*
X31147217Y12449555D01*
X31148233Y12453957D01*
X31149588Y12459036D01*
X31150943Y12464114D01*
X31152634Y12469532D01*
X31154666Y12474949D01*
X31157376Y12480366D01*
X31160422Y12486122D01*
X31163809Y12491878D01*
X31167532Y12497295D01*
X31167871Y12497634D01*
X31168549Y12498650D01*
X31169904Y12500004D01*
X31171597Y12502035D01*
X31173627Y12504067D01*
X31176337Y12506776D01*
X31179721Y12509146D01*
X31183109Y12512193D01*
X31187170Y12514902D01*
X31191235Y12517610D01*
X31195975Y12519980D01*
X31201053Y12522012D01*
X31206470Y12524043D01*
X31212225Y12525398D01*
X31218320Y12526413D01*
X31224753Y12526752D01*
X31226785D01*
X31228479Y12526413D01*
X31230170D01*
X31232541Y12526075D01*
X31237619Y12525059D01*
X31243375Y12523366D01*
X31249469Y12520657D01*
X31255225Y12517272D01*
X31260983Y12512531D01*
Y12543681D01*
Y12544020D01*
Y12545035D01*
Y12546390D01*
Y12548083D01*
Y12550453D01*
Y12552823D01*
Y12558240D01*
X31260641Y12564335D01*
X31260306Y12569752D01*
Y12572461D01*
X31259967Y12574492D01*
Y12576523D01*
X31259628Y12577878D01*
Y12578216D01*
X31259290Y12578894D01*
X31258951Y12579909D01*
X31258612Y12581264D01*
X31257257Y12584311D01*
X31256241Y12585665D01*
X31255225Y12586681D01*
X31254886Y12587020D01*
X31253195Y12588035D01*
X31251163Y12588712D01*
X31248117Y12589051D01*
X31246085D01*
X31244730Y12588712D01*
X31243036Y12588374D01*
X31241006Y12588035D01*
X31235587Y12586342D01*
X31233557Y12592775D01*
X31282312Y12612752D01*
X31290439D01*
Y12422469D01*
D02*
G37*
G36*
X31584665Y12526413D02*
X31587036Y12526075D01*
X31589407Y12525398D01*
X31592453Y12524043D01*
X31595163Y12522689D01*
X31597531Y12520657D01*
X31597870Y12520319D01*
X31598547Y12519642D01*
X31599564Y12518287D01*
X31600919Y12516594D01*
X31602271Y12514563D01*
X31603287Y12512193D01*
X31603964Y12509484D01*
X31604303Y12506776D01*
Y12506437D01*
Y12505760D01*
X31603964Y12504406D01*
X31603625Y12502713D01*
X31602271Y12498650D01*
X31601257Y12496957D01*
X31599564Y12494925D01*
X31599225Y12494587D01*
X31598886Y12494248D01*
X31597870Y12493571D01*
X31596515Y12492555D01*
X31592792Y12490862D01*
X31590762Y12490524D01*
X31588391Y12490185D01*
X31587375D01*
X31586020Y12490524D01*
X31584326Y12490862D01*
X31581958Y12491539D01*
X31579587Y12492894D01*
X31576880Y12494248D01*
X31574170Y12496280D01*
X31573831Y12496618D01*
X31572815Y12497295D01*
X31571460Y12498311D01*
X31569769Y12499665D01*
X31566043Y12501697D01*
X31564352Y12502374D01*
X31562659Y12502713D01*
X31561981D01*
X31560626Y12502374D01*
X31558594Y12501020D01*
X31557242Y12500343D01*
X31555887Y12498988D01*
X31555548Y12498650D01*
X31554532Y12497634D01*
X31552838Y12495602D01*
X31550809Y12493232D01*
X31548438Y12489846D01*
X31545392Y12485445D01*
X31542343Y12480366D01*
X31539297Y12474610D01*
Y12396059D01*
Y12395382D01*
Y12393689D01*
X31539636Y12391319D01*
Y12388272D01*
X31540649Y12381500D01*
X31541666Y12378114D01*
X31542682Y12375406D01*
Y12375067D01*
X31543021Y12374729D01*
X31544714Y12372697D01*
X31547083Y12369988D01*
X31550809Y12367280D01*
X31551147D01*
X31551825Y12366941D01*
X31553177Y12366264D01*
X31555209Y12365925D01*
X31557581Y12365248D01*
X31560626Y12364571D01*
X31564014Y12364233D01*
X31568076D01*
Y12357800D01*
X31483768D01*
Y12364233D01*
X31485800D01*
X31487833Y12364571D01*
X31490540D01*
X31496634Y12365925D01*
X31499683Y12366603D01*
X31502051Y12367957D01*
X31502390D01*
X31502728Y12368634D01*
X31504761Y12370327D01*
X31506793Y12373374D01*
X31508484Y12377437D01*
Y12377776D01*
X31508823Y12378114D01*
Y12379130D01*
X31509161Y12380823D01*
Y12383193D01*
X31509500Y12386240D01*
Y12389965D01*
Y12395044D01*
Y12458358D01*
Y12458697D01*
Y12459713D01*
Y12461067D01*
Y12462760D01*
Y12465130D01*
Y12467500D01*
Y12473256D01*
X31509161Y12479012D01*
X31508823Y12484768D01*
Y12487138D01*
X31508484Y12489169D01*
Y12490862D01*
X31508148Y12492217D01*
Y12492555D01*
X31507809Y12493232D01*
X31507132Y12495264D01*
X31505777Y12497972D01*
X31503745Y12500343D01*
X31503067Y12500681D01*
X31501712Y12501697D01*
X31499344Y12502374D01*
X31495959Y12502713D01*
X31493927D01*
X31492233Y12502374D01*
X31488510Y12501697D01*
X31483429Y12500343D01*
X31481738Y12506776D01*
X31531509Y12526752D01*
X31539297D01*
Y12489508D01*
X31539636Y12489846D01*
X31540311Y12491201D01*
X31541327Y12492894D01*
X31542682Y12495264D01*
X31544714Y12498311D01*
X31546744Y12501358D01*
X31552161Y12508130D01*
X31558594Y12514902D01*
X31561981Y12518287D01*
X31565704Y12520996D01*
X31569431Y12523366D01*
X31573154Y12525059D01*
X31577216Y12526413D01*
X31581281Y12526752D01*
X31582974D01*
X31584665Y12526413D01*
D02*
G37*
G36*
X30481903D02*
X30483936Y12526075D01*
X30486646Y12525736D01*
X30492401Y12524382D01*
X30498834Y12522012D01*
X30502219Y12520319D01*
X30505606Y12518626D01*
X30509329Y12516256D01*
X30512714Y12513547D01*
X30516101Y12510500D01*
X30519150Y12507114D01*
X30519489Y12506776D01*
X30520163Y12506098D01*
X30521179Y12504744D01*
X30522195Y12502713D01*
X30523889Y12500343D01*
X30525583Y12497634D01*
X30527274Y12494248D01*
X30529306Y12490524D01*
X30531339Y12486461D01*
X30533029Y12481721D01*
X30534723Y12476642D01*
X30536417Y12471224D01*
X30537433Y12465130D01*
X30538449Y12459036D01*
X30539124Y12452602D01*
X30539462Y12445492D01*
Y12445154D01*
Y12443799D01*
Y12441429D01*
X30539124Y12438382D01*
X30538785Y12434996D01*
X30538110Y12430595D01*
X30537433Y12425854D01*
X30536417Y12420776D01*
X30535062Y12415358D01*
X30533368Y12409941D01*
X30531339Y12403847D01*
X30528967Y12398091D01*
X30526260Y12392335D01*
X30522873Y12386240D01*
X30519150Y12380823D01*
X30514746Y12375406D01*
X30514407Y12375067D01*
X30513730Y12374390D01*
X30512714Y12373374D01*
X30511023Y12372020D01*
X30509329Y12369988D01*
X30506961Y12368296D01*
X30503912Y12366264D01*
X30500864Y12364233D01*
X30497479Y12361862D01*
X30493756Y12359831D01*
X30484952Y12356445D01*
X30480212Y12354752D01*
X30475134Y12353737D01*
X30470053Y12353059D01*
X30464297Y12352721D01*
X30461929D01*
X30459558Y12353059D01*
X30456512Y12353398D01*
X30452786Y12353737D01*
X30449063Y12354414D01*
X30444998Y12355429D01*
X30441275Y12356784D01*
X30440936D01*
X30439920Y12357461D01*
X30438565Y12358138D01*
X30436536Y12359154D01*
X30434164Y12360508D01*
X30431458Y12362201D01*
X30428748Y12364571D01*
X30425360Y12367280D01*
Y12317170D01*
Y12316831D01*
Y12316493D01*
Y12314461D01*
Y12311752D01*
X30425699Y12308367D01*
Y12304642D01*
X30426376Y12301256D01*
X30426715Y12298209D01*
X30427393Y12295839D01*
Y12295500D01*
X30427731Y12295162D01*
X30429086Y12293130D01*
X30431116Y12290760D01*
X30434503Y12288390D01*
X30434842D01*
X30435519Y12288052D01*
X30436874Y12287713D01*
X30438904Y12287036D01*
X30441275Y12286697D01*
X30444659Y12286020D01*
X30448386Y12285682D01*
X30453125D01*
Y12279248D01*
X30367126D01*
Y12285682D01*
X30373221D01*
X30374911Y12286020D01*
X30377283Y12286359D01*
X30382700Y12287374D01*
X30385410Y12288390D01*
X30388116Y12289745D01*
X30388794Y12290083D01*
X30390149Y12291099D01*
X30391843Y12293130D01*
X30393536Y12295839D01*
Y12296178D01*
X30393872Y12296855D01*
X30394211Y12298209D01*
X30394550Y12300241D01*
X30394888Y12303288D01*
X30395227Y12307012D01*
X30395566Y12312091D01*
Y12318185D01*
Y12473933D01*
Y12474272D01*
Y12474610D01*
Y12476642D01*
Y12479350D01*
X30395227Y12482398D01*
Y12485784D01*
X30394888Y12489169D01*
X30394550Y12491878D01*
X30393872Y12493909D01*
Y12494248D01*
X30393536Y12494587D01*
X30392856Y12496280D01*
X30391165Y12498650D01*
X30389133Y12500343D01*
X30388455Y12500681D01*
X30387103Y12501697D01*
X30384393Y12502374D01*
X30380667Y12502713D01*
X30378976D01*
X30377960Y12502374D01*
X30374234Y12501697D01*
X30369833Y12500343D01*
X30367801Y12506098D01*
X30418250Y12526075D01*
X30425360D01*
Y12488154D01*
X30426038Y12488831D01*
X30426715Y12489846D01*
X30427393Y12491201D01*
X30430099Y12494925D01*
X30433148Y12499665D01*
X30437213Y12504406D01*
X30441275Y12509484D01*
X30446014Y12514224D01*
X30450754Y12517949D01*
X30451431Y12518287D01*
X30453125Y12519303D01*
X30455496Y12520657D01*
X30458881Y12522350D01*
X30462943Y12524043D01*
X30467685Y12525398D01*
X30472763Y12526413D01*
X30477841Y12526752D01*
X30480212D01*
X30481903Y12526413D01*
D02*
G37*
G36*
X31099478Y12395044D02*
Y12394366D01*
Y12392673D01*
Y12389965D01*
X31099817Y12386579D01*
Y12383193D01*
X31100494Y12379807D01*
X31100833Y12376760D01*
X31101511Y12374390D01*
Y12374051D01*
X31101849Y12373713D01*
X31103201Y12371681D01*
X31105234Y12368973D01*
X31108282Y12366603D01*
X31108621D01*
X31109296Y12366264D01*
X31110312Y12365925D01*
X31112344Y12365587D01*
X31114713Y12364910D01*
X31117761Y12364571D01*
X31121487Y12364233D01*
X31125888D01*
Y12357800D01*
X31045306D01*
Y12364233D01*
X31049030D01*
X31051398Y12364571D01*
X31056479Y12365248D01*
X31058847Y12365587D01*
X31060541Y12366264D01*
X31060880D01*
X31061218Y12366603D01*
X31062912Y12368296D01*
X31065280Y12370666D01*
X31067313Y12374051D01*
Y12374390D01*
X31067651Y12375067D01*
X31067990Y12376760D01*
X31068668Y12378792D01*
X31069006Y12381500D01*
X31069345Y12385225D01*
X31069684Y12389626D01*
Y12395044D01*
Y12544358D01*
Y12544697D01*
Y12545713D01*
Y12547067D01*
Y12548760D01*
Y12550791D01*
Y12553500D01*
Y12558917D01*
X31069345Y12564673D01*
X31069006Y12570090D01*
Y12572461D01*
X31068668Y12574831D01*
Y12576523D01*
X31068329Y12577878D01*
Y12578216D01*
X31067990Y12578894D01*
X31067651Y12579909D01*
X31067313Y12581264D01*
X31065958Y12584311D01*
X31065280Y12585665D01*
X31064267Y12586681D01*
X31063928Y12587020D01*
X31062234Y12588035D01*
X31060202Y12588712D01*
X31057156Y12589051D01*
X31055463D01*
X31054108Y12588712D01*
X31052414Y12588374D01*
X31050385Y12588035D01*
X31045306Y12586342D01*
X31042596Y12592775D01*
X31091351Y12612752D01*
X31099478D01*
Y12395044D01*
D02*
G37*
G36*
X31410635Y12526413D02*
X31413004Y12526075D01*
X31415714Y12525736D01*
X31422147Y12524382D01*
X31429257Y12522350D01*
X31436707Y12518965D01*
X31440430Y12516933D01*
X31444156Y12514563D01*
X31447879Y12511854D01*
X31451266Y12508469D01*
X31451602Y12508130D01*
X31451941Y12507791D01*
X31452957Y12506437D01*
X31453973Y12505083D01*
X31455328Y12503390D01*
X31457022Y12501020D01*
X31458713Y12498650D01*
X31460406Y12495602D01*
X31461761Y12492217D01*
X31463455Y12488492D01*
X31465146Y12484429D01*
X31466501Y12480366D01*
X31468533Y12470547D01*
X31468872Y12465130D01*
X31469211Y12459713D01*
X31355786D01*
Y12459374D01*
Y12458020D01*
Y12456327D01*
X31356122Y12453618D01*
Y12450571D01*
X31356799Y12447185D01*
X31357138Y12443122D01*
X31357816Y12438721D01*
X31359848Y12429579D01*
X31363232Y12420099D01*
X31365265Y12415358D01*
X31367636Y12410957D01*
X31370343Y12406555D01*
X31373392Y12402492D01*
X31373730Y12402154D01*
X31374069Y12401477D01*
X31375085Y12400461D01*
X31376437Y12399445D01*
X31378131Y12397752D01*
X31380502Y12396059D01*
X31385242Y12392335D01*
X31391675Y12388272D01*
X31398785Y12385225D01*
X31402509Y12383870D01*
X31406573Y12382855D01*
X31410974Y12382177D01*
X31415375Y12381839D01*
X31418085D01*
X31421130Y12382177D01*
X31424854Y12382855D01*
X31429257Y12383870D01*
X31433997Y12385563D01*
X31438736Y12387595D01*
X31443478Y12390303D01*
X31444156Y12390642D01*
X31445508Y12391996D01*
X31447879Y12394366D01*
X31450589Y12397414D01*
X31453973Y12401815D01*
X31457358Y12406894D01*
X31460745Y12413327D01*
X31463791Y12421114D01*
X31469211Y12417390D01*
Y12417051D01*
X31468872Y12416374D01*
Y12415020D01*
X31468195Y12413327D01*
X31467856Y12410957D01*
X31466840Y12408587D01*
X31464807Y12402492D01*
X31462100Y12395721D01*
X31458374Y12388272D01*
X31453296Y12380485D01*
X31447202Y12372697D01*
X31446863Y12372359D01*
X31446524Y12371681D01*
X31445508Y12371004D01*
X31443817Y12369650D01*
X31442123Y12367957D01*
X31440091Y12366264D01*
X31437720Y12364571D01*
X31434674Y12362878D01*
X31428241Y12359154D01*
X31420453Y12355768D01*
X31416052Y12354414D01*
X31411652Y12353737D01*
X31406912Y12353059D01*
X31401831Y12352721D01*
X31399124D01*
X31396753Y12353059D01*
X31394382Y12353398D01*
X31391336Y12354075D01*
X31387949Y12354752D01*
X31384564Y12355429D01*
X31376437Y12358138D01*
X31372375Y12360170D01*
X31367975Y12362201D01*
X31363910Y12364910D01*
X31359509Y12367957D01*
X31355447Y12371343D01*
X31351382Y12375406D01*
X31351044Y12375744D01*
X31350366Y12376422D01*
X31349353Y12377776D01*
X31347998Y12379469D01*
X31346643Y12381839D01*
X31344611Y12384886D01*
X31342920Y12387933D01*
X31340887Y12391658D01*
X31338855Y12396059D01*
X31337164Y12400799D01*
X31335132Y12405878D01*
X31333777Y12411295D01*
X31332422Y12417051D01*
X31331406Y12423484D01*
X31330731Y12430256D01*
X31330392Y12437366D01*
Y12437705D01*
Y12439059D01*
Y12441429D01*
X31330731Y12444477D01*
X31331067Y12447862D01*
X31331406Y12451925D01*
X31332083Y12456327D01*
X31333099Y12461406D01*
X31335471Y12471902D01*
X31337500Y12477319D01*
X31339532Y12482736D01*
X31341904Y12488154D01*
X31344611Y12493571D01*
X31347998Y12498311D01*
X31351721Y12503051D01*
X31352060Y12503390D01*
X31352737Y12504067D01*
X31354092Y12505083D01*
X31355786Y12506776D01*
X31357816Y12508469D01*
X31360187Y12510500D01*
X31363232Y12512870D01*
X31366620Y12514902D01*
X31370343Y12517272D01*
X31374408Y12519303D01*
X31378809Y12521335D01*
X31383887Y12523028D01*
X31388965Y12524720D01*
X31394382Y12525736D01*
X31399799Y12526413D01*
X31405896Y12526752D01*
X31408603D01*
X31410635Y12526413D01*
D02*
G37*
G36*
X30943393D02*
X30945761D01*
X30949149Y12525736D01*
X30952533Y12525398D01*
X30956595Y12524382D01*
X30960999Y12523366D01*
X30965738Y12521673D01*
X30970816Y12519980D01*
X30975558Y12517610D01*
X30980637Y12514902D01*
X30985715Y12511516D01*
X30990454Y12507791D01*
X30995193Y12503390D01*
X30999597Y12498311D01*
X30999936Y12497972D01*
X31000275Y12497295D01*
X31001288Y12495941D01*
X31002643Y12493909D01*
X31003998Y12491878D01*
X31005692Y12488831D01*
X31007385Y12485784D01*
X31009415Y12482398D01*
X31011108Y12478335D01*
X31012802Y12473933D01*
X31015848Y12464453D01*
X31017203Y12459374D01*
X31018219Y12453957D01*
X31018558Y12448539D01*
X31018896Y12442784D01*
Y12442445D01*
Y12441768D01*
Y12440752D01*
Y12439059D01*
X31018558Y12437028D01*
X31018219Y12434658D01*
X31017542Y12428902D01*
X31016187Y12422130D01*
X31014493Y12414681D01*
X31011786Y12406555D01*
X31008060Y12398091D01*
Y12397752D01*
X31007721Y12397075D01*
X31007047Y12396059D01*
X31006030Y12394366D01*
X31003659Y12390303D01*
X31000613Y12385225D01*
X30996210Y12379807D01*
X30991470Y12374051D01*
X30985715Y12368634D01*
X30978943Y12363894D01*
X30978604D01*
X30978265Y12363555D01*
X30977249Y12362878D01*
X30975558Y12362201D01*
X30973865Y12361185D01*
X30971832Y12360508D01*
X30966754Y12358477D01*
X30960660Y12356107D01*
X30953549Y12354414D01*
X30946100Y12353059D01*
X30937637Y12352721D01*
X30935944D01*
X30934250Y12353059D01*
X30931540D01*
X30928494Y12353737D01*
X30924771Y12354414D01*
X30920706Y12355091D01*
X30916306Y12356445D01*
X30911905Y12358138D01*
X30907162Y12359831D01*
X30902084Y12362201D01*
X30897345Y12365248D01*
X30892267Y12368634D01*
X30887527Y12372359D01*
X30883124Y12377099D01*
X30878723Y12382177D01*
X30878384Y12382516D01*
X30878046Y12383193D01*
X30877029Y12384547D01*
X30876013Y12386579D01*
X30874661Y12388949D01*
X30872968Y12391658D01*
X30871274Y12394705D01*
X30869580Y12398429D01*
X30867889Y12402492D01*
X30866196Y12406555D01*
X30863147Y12416036D01*
X30861115Y12426870D01*
X30860779Y12432288D01*
X30860440Y12438043D01*
Y12438382D01*
Y12439059D01*
Y12440414D01*
X30860779Y12442106D01*
Y12444138D01*
X30861115Y12446508D01*
X30861792Y12452264D01*
X30863147Y12459036D01*
X30865179Y12466484D01*
X30867889Y12474610D01*
X30871613Y12483075D01*
Y12483413D01*
X30872290Y12484091D01*
X30872629Y12485106D01*
X30873645Y12486799D01*
X30876013Y12490862D01*
X30879401Y12495602D01*
X30883801Y12501020D01*
X30888879Y12506437D01*
X30894635Y12511516D01*
X30901068Y12515917D01*
X30901407D01*
X30901746Y12516256D01*
X30902762Y12516933D01*
X30904117Y12517610D01*
X30907840Y12519303D01*
X30912918Y12521335D01*
X30918674Y12523366D01*
X30925107Y12525059D01*
X30932220Y12526413D01*
X30939667Y12526752D01*
X30941360D01*
X30943393Y12526413D01*
D02*
G37*
G36*
X30280447D02*
X30282819D01*
X30286203Y12525736D01*
X30289590Y12525398D01*
X30293652Y12524382D01*
X30298053Y12523366D01*
X30302795Y12521673D01*
X30307874Y12519980D01*
X30312613Y12517610D01*
X30317691Y12514902D01*
X30322772Y12511516D01*
X30327512Y12507791D01*
X30332251Y12503390D01*
X30336652Y12498311D01*
X30336990Y12497972D01*
X30337329Y12497295D01*
X30338345Y12495941D01*
X30339700Y12493909D01*
X30341055Y12491878D01*
X30342746Y12488831D01*
X30344440Y12485784D01*
X30346472Y12482398D01*
X30348166Y12478335D01*
X30349857Y12473933D01*
X30352905Y12464453D01*
X30354260Y12459374D01*
X30355276Y12453957D01*
X30355612Y12448539D01*
X30355951Y12442784D01*
Y12442445D01*
Y12441768D01*
Y12440752D01*
Y12439059D01*
X30355612Y12437028D01*
X30355276Y12434658D01*
X30354599Y12428902D01*
X30353244Y12422130D01*
X30351550Y12414681D01*
X30348843Y12406555D01*
X30345117Y12398091D01*
Y12397752D01*
X30344778Y12397075D01*
X30344101Y12396059D01*
X30343085Y12394366D01*
X30340717Y12390303D01*
X30337668Y12385225D01*
X30333267Y12379807D01*
X30328528Y12374051D01*
X30322772Y12368634D01*
X30316000Y12363894D01*
X30315662D01*
X30315323Y12363555D01*
X30314307Y12362878D01*
X30312613Y12362201D01*
X30310922Y12361185D01*
X30308890Y12360508D01*
X30303809Y12358477D01*
X30297717Y12356107D01*
X30290607Y12354414D01*
X30283157Y12353059D01*
X30274692Y12352721D01*
X30272998D01*
X30271307Y12353059D01*
X30268597D01*
X30265552Y12353737D01*
X30261826Y12354414D01*
X30257764Y12355091D01*
X30253363Y12356445D01*
X30248959Y12358138D01*
X30244220Y12359831D01*
X30239142Y12362201D01*
X30234402Y12365248D01*
X30229321Y12368634D01*
X30224582Y12372359D01*
X30220181Y12377099D01*
X30215778Y12382177D01*
X30215439Y12382516D01*
X30215103Y12383193D01*
X30214087Y12384547D01*
X30213071Y12386579D01*
X30211716Y12388949D01*
X30210022Y12391658D01*
X30208331Y12394705D01*
X30206638Y12398429D01*
X30204944Y12402492D01*
X30203253Y12406555D01*
X30200204Y12416036D01*
X30198172Y12426870D01*
X30197833Y12432288D01*
X30197495Y12438043D01*
Y12438382D01*
Y12439059D01*
Y12440414D01*
X30197833Y12442106D01*
Y12444138D01*
X30198172Y12446508D01*
X30198849Y12452264D01*
X30200204Y12459036D01*
X30202237Y12466484D01*
X30204944Y12474610D01*
X30208670Y12483075D01*
Y12483413D01*
X30209344Y12484091D01*
X30209686Y12485106D01*
X30210699Y12486799D01*
X30213071Y12490862D01*
X30216455Y12495602D01*
X30220859Y12501020D01*
X30225937Y12506437D01*
X30231693Y12511516D01*
X30238126Y12515917D01*
X30238464D01*
X30238803Y12516256D01*
X30239819Y12516933D01*
X30241174Y12517610D01*
X30244897Y12519303D01*
X30249976Y12521335D01*
X30255731Y12523366D01*
X30262164Y12525059D01*
X30269275Y12526413D01*
X30276724Y12526752D01*
X30278418D01*
X30280447Y12526413D01*
D02*
G37*
%LPC*%
G36*
X31222723Y12515579D02*
X31222046D01*
X31220013Y12515240D01*
X31216965Y12514902D01*
X31213242Y12513886D01*
X31208841Y12512193D01*
X31204099Y12509484D01*
X31199359Y12506098D01*
X31194620Y12501358D01*
X31194281Y12501020D01*
X31193942Y12500343D01*
X31193265Y12499327D01*
X31192249Y12497972D01*
X31190894Y12495941D01*
X31189542Y12493571D01*
X31188187Y12490862D01*
X31186493Y12487476D01*
X31185138Y12484091D01*
X31183447Y12480028D01*
X31182092Y12475287D01*
X31181076Y12470547D01*
X31179721Y12465130D01*
X31179044Y12459374D01*
X31178705Y12453280D01*
X31178369Y12446847D01*
Y12446508D01*
Y12445154D01*
Y12443461D01*
X31178705Y12440752D01*
Y12437705D01*
X31179044Y12434319D01*
X31179721Y12430595D01*
X31180399Y12426193D01*
X31182092Y12417390D01*
X31184802Y12408248D01*
X31188864Y12399107D01*
X31191235Y12395044D01*
X31193942Y12391319D01*
X31194281Y12390981D01*
X31194620Y12390642D01*
X31196652Y12388272D01*
X31200037Y12385225D01*
X31204437Y12381839D01*
X31209518Y12378453D01*
X31215613Y12375406D01*
X31222046Y12373036D01*
X31225430Y12372697D01*
X31229156Y12372359D01*
X31229831D01*
X31231863Y12372697D01*
X31235248Y12373374D01*
X31239313Y12374390D01*
X31244052Y12376422D01*
X31249469Y12379130D01*
X31255225Y12383193D01*
X31257935Y12385902D01*
X31260983Y12388610D01*
Y12472917D01*
Y12473595D01*
X31260641Y12474949D01*
X31260306Y12477319D01*
X31259628Y12480366D01*
X31258612Y12483752D01*
X31257596Y12487476D01*
X31255902Y12491201D01*
X31254211Y12494925D01*
X31253870Y12495264D01*
X31253195Y12496618D01*
X31252179Y12498311D01*
X31250485Y12500681D01*
X31248453Y12503051D01*
X31246085Y12505760D01*
X31243036Y12508130D01*
X31239990Y12510161D01*
X31239651Y12510500D01*
X31238635Y12511177D01*
X31236603Y12511854D01*
X31234573Y12512870D01*
X31231863Y12513886D01*
X31229156Y12514902D01*
X31225769Y12515240D01*
X31222723Y12515579D01*
D02*
G37*
G36*
X30463620Y12501020D02*
X30462268D01*
X30460574Y12500681D01*
X30458203Y12500343D01*
X30455835Y12500004D01*
X30452786Y12499327D01*
X30449738Y12497972D01*
X30446692Y12496618D01*
X30446353D01*
X30445337Y12495941D01*
X30443982Y12494587D01*
X30441614Y12492894D01*
X30438565Y12490524D01*
X30434842Y12487138D01*
X30430441Y12482736D01*
X30425360Y12477319D01*
Y12415697D01*
Y12415358D01*
Y12414681D01*
Y12413666D01*
Y12412650D01*
Y12408925D01*
X30425699Y12404862D01*
Y12400461D01*
X30426038Y12396398D01*
X30426376Y12392673D01*
X30426715Y12389626D01*
Y12389288D01*
X30427393Y12387933D01*
X30428070Y12385902D01*
X30429425Y12383532D01*
X30431116Y12380485D01*
X30433148Y12377437D01*
X30435858Y12374390D01*
X30439243Y12371343D01*
X30439581Y12371004D01*
X30440936Y12369988D01*
X30443307Y12368973D01*
X30446014Y12367618D01*
X30449738Y12365925D01*
X30453802Y12364910D01*
X30458542Y12363894D01*
X30463959Y12363555D01*
X30465652D01*
X30467007Y12363894D01*
X30470392Y12364233D01*
X30474457Y12365248D01*
X30478857Y12366941D01*
X30483936Y12369311D01*
X30488675Y12372697D01*
X30493079Y12377437D01*
X30493417Y12377776D01*
X30493756Y12378453D01*
X30494431Y12379469D01*
X30495447Y12380823D01*
X30496463Y12382855D01*
X30497818Y12384886D01*
X30499173Y12387595D01*
X30500528Y12390642D01*
X30501880Y12394366D01*
X30502896Y12398091D01*
X30504251Y12402154D01*
X30505267Y12406894D01*
X30506281Y12411973D01*
X30506961Y12417051D01*
X30507635Y12422807D01*
Y12428902D01*
Y12429240D01*
Y12430595D01*
Y12432626D01*
X30507297Y12434996D01*
Y12438382D01*
X30506622Y12441768D01*
X30506281Y12445831D01*
X30505606Y12450232D01*
X30503574Y12459713D01*
X30500528Y12469193D01*
X30498834Y12473933D01*
X30496463Y12478335D01*
X30494092Y12482736D01*
X30491046Y12486799D01*
X30490369Y12487476D01*
X30489014Y12489169D01*
X30486646Y12491201D01*
X30483258Y12493909D01*
X30479196Y12496618D01*
X30474792Y12498650D01*
X30469376Y12500343D01*
X30463620Y12501020D01*
D02*
G37*
G36*
X31396075Y12513886D02*
X31395398D01*
X31393707Y12513547D01*
X31390659Y12513209D01*
X31387274Y12512531D01*
X31382870Y12510839D01*
X31378470Y12508807D01*
X31373730Y12506098D01*
X31369327Y12502035D01*
X31368988Y12501358D01*
X31367297Y12500004D01*
X31365604Y12497295D01*
X31363232Y12493909D01*
X31360864Y12489169D01*
X31358493Y12483752D01*
X31356799Y12477319D01*
X31355786Y12470209D01*
X31431967D01*
Y12470547D01*
Y12470886D01*
X31431628Y12472917D01*
Y12475626D01*
X31430951Y12478673D01*
X31429935Y12486122D01*
X31428918Y12489508D01*
X31427902Y12492217D01*
X31427563Y12492555D01*
X31427225Y12493909D01*
X31426208Y12495602D01*
X31424518Y12497972D01*
X31422824Y12500681D01*
X31420453Y12503390D01*
X31417746Y12505760D01*
X31414697Y12508130D01*
X31414359Y12508469D01*
X31413345Y12509146D01*
X31411313Y12509823D01*
X31408942Y12511177D01*
X31406232Y12512193D01*
X31403186Y12512870D01*
X31399799Y12513547D01*
X31396075Y12513886D01*
D02*
G37*
G36*
X30934250Y12515240D02*
X30932556D01*
X30930527Y12514902D01*
X30928156Y12514563D01*
X30925107Y12513886D01*
X30922061Y12512870D01*
X30918674Y12511516D01*
X30914951Y12509484D01*
X30914612Y12509146D01*
X30913257Y12508469D01*
X30911566Y12506776D01*
X30909534Y12504744D01*
X30906824Y12502035D01*
X30904456Y12498650D01*
X30901746Y12494587D01*
X30899377Y12489508D01*
X30899039Y12488831D01*
X30898361Y12487138D01*
X30897684Y12484091D01*
X30896667Y12479689D01*
X30895312Y12474610D01*
X30894635Y12468516D01*
X30893958Y12461406D01*
X30893619Y12453280D01*
Y12452941D01*
Y12451587D01*
Y12449894D01*
X30893958Y12447185D01*
Y12444138D01*
X30894296Y12440414D01*
X30894974Y12436351D01*
X30895312Y12431949D01*
X30897006Y12422469D01*
X30899716Y12411973D01*
X30903101Y12401477D01*
X30907840Y12391319D01*
X30908179Y12390981D01*
X30908517Y12390303D01*
X30909195Y12388949D01*
X30910550Y12387256D01*
X30913596Y12383193D01*
X30917999Y12378453D01*
X30923416Y12373713D01*
X30929849Y12369650D01*
X30933234Y12367957D01*
X30936960Y12366603D01*
X30941022Y12365925D01*
X30945422Y12365587D01*
X30947116D01*
X30948471Y12365925D01*
X30951517Y12366264D01*
X30955582Y12367280D01*
X30960321Y12368973D01*
X30965060Y12371681D01*
X30969800Y12375067D01*
X30974203Y12379807D01*
Y12380146D01*
X30974542Y12380485D01*
X30975217Y12381500D01*
X30975897Y12382516D01*
X30976910Y12384209D01*
X30977927Y12386240D01*
X30978943Y12388610D01*
X30979959Y12391319D01*
X30980975Y12394366D01*
X30981989Y12398091D01*
X30983005Y12402154D01*
X30984021Y12406555D01*
X30984698Y12411295D01*
X30985376Y12416713D01*
X30985715Y12422469D01*
Y12428902D01*
Y12429579D01*
Y12430933D01*
Y12433303D01*
X30985376Y12436351D01*
X30985037Y12439736D01*
X30984698Y12444138D01*
X30984021Y12448878D01*
X30983344Y12453957D01*
X30980975Y12465130D01*
X30977588Y12476642D01*
X30975558Y12482398D01*
X30973187Y12487815D01*
X30970139Y12493232D01*
X30966754Y12497972D01*
Y12498311D01*
X30966077Y12498650D01*
X30964383Y12500681D01*
X30961676Y12503390D01*
X30957950Y12506776D01*
X30953210Y12509823D01*
X30947794Y12512531D01*
X30941360Y12514563D01*
X30937973Y12514902D01*
X30934250Y12515240D01*
D02*
G37*
G36*
X30271307D02*
X30269614D01*
X30267581Y12514902D01*
X30265213Y12514563D01*
X30262164Y12513886D01*
X30259119Y12512870D01*
X30255731Y12511516D01*
X30252008Y12509484D01*
X30251669Y12509146D01*
X30250314Y12508469D01*
X30248621Y12506776D01*
X30246591Y12504744D01*
X30243881Y12502035D01*
X30241510Y12498650D01*
X30238803Y12494587D01*
X30236432Y12489508D01*
X30236093Y12488831D01*
X30235416Y12487138D01*
X30234741Y12484091D01*
X30233725Y12479689D01*
X30232370Y12474610D01*
X30231693Y12468516D01*
X30231015Y12461406D01*
X30230676Y12453280D01*
Y12452941D01*
Y12451587D01*
Y12449894D01*
X30231015Y12447185D01*
Y12444138D01*
X30231354Y12440414D01*
X30232031Y12436351D01*
X30232370Y12431949D01*
X30234061Y12422469D01*
X30236771Y12411973D01*
X30240158Y12401477D01*
X30244897Y12391319D01*
X30245236Y12390981D01*
X30245575Y12390303D01*
X30246252Y12388949D01*
X30247607Y12387256D01*
X30250653Y12383193D01*
X30255054Y12378453D01*
X30260471Y12373713D01*
X30266904Y12369650D01*
X30270291Y12367957D01*
X30274014Y12366603D01*
X30278079Y12365925D01*
X30282480Y12365587D01*
X30284174D01*
X30285526Y12365925D01*
X30288574Y12366264D01*
X30292636Y12367280D01*
X30297375Y12368973D01*
X30302118Y12371681D01*
X30306857Y12375067D01*
X30311258Y12379807D01*
Y12380146D01*
X30311597Y12380485D01*
X30312274Y12381500D01*
X30312952Y12382516D01*
X30313968Y12384209D01*
X30314984Y12386240D01*
X30316000Y12388610D01*
X30317014Y12391319D01*
X30318030Y12394366D01*
X30319046Y12398091D01*
X30320062Y12402154D01*
X30321078Y12406555D01*
X30321756Y12411295D01*
X30322433Y12416713D01*
X30322772Y12422469D01*
Y12428902D01*
Y12429579D01*
Y12430933D01*
Y12433303D01*
X30322433Y12436351D01*
X30322095Y12439736D01*
X30321756Y12444138D01*
X30321078Y12448878D01*
X30320401Y12453957D01*
X30318030Y12465130D01*
X30314645Y12476642D01*
X30312613Y12482398D01*
X30310242Y12487815D01*
X30307196Y12493232D01*
X30303809Y12497972D01*
Y12498311D01*
X30303134Y12498650D01*
X30301440Y12500681D01*
X30298734Y12503390D01*
X30295007Y12506776D01*
X30290268Y12509823D01*
X30284851Y12512531D01*
X30278418Y12514563D01*
X30275031Y12514902D01*
X30271307Y12515240D01*
D02*
G37*
%LPD*%
D25*
X25717499Y20320000D02*
D03*
Y19812000D02*
D03*
D26*
Y19303999D02*
D03*
D27*
X23177499Y19177000D02*
D03*
Y19431000D02*
D03*
Y19685001D02*
D03*
Y19939000D02*
D03*
Y20192999D02*
D03*
X25336501Y19812000D02*
D03*
Y20066000D02*
D03*
X24574500D02*
D03*
Y19812000D02*
D03*
D28*
X23177499Y20447000D02*
D03*
D29*
X25336501Y19558000D02*
D03*
X24574500D02*
D03*
D30*
X25209500Y19024600D02*
D03*
Y20599400D02*
D03*
D31*
X24142700Y19075400D02*
D03*
X23812500Y19735800D02*
D03*
D36*
X24003000Y20084500D02*
D03*
X23875999D02*
D03*
X23749001D02*
D03*
X23622000D02*
D03*
X24003000Y19539500D02*
D03*
X23875999D02*
D03*
X23749001D02*
D03*
X23622000D02*
D03*
D37*
X24955499Y19367500D02*
D03*
Y18986501D02*
D03*
Y20256500D02*
D03*
Y20637500D02*
D03*
Y20002499D02*
D03*
Y19621500D02*
D03*
D38*
X24193500Y19657001D02*
D03*
Y19967000D02*
D03*
D39*
X23939500Y19267000D02*
D03*
Y19087000D02*
D03*
X23685500Y19087000D02*
D03*
Y19267000D02*
D03*
%TF.MD5,c4a2d5edb0db1d8cfdd561798bc0ed73*%
M02*
