%TF.GenerationSoftware,Altium Limited,Altium Designer,21.3.0 (21)*%
G04 Layer_Color=128*
%FSLAX45Y45*%
%MOMM*%
%TF.SameCoordinates,798F48EE-B9F3-42F3-8741-5E889E50E555*%
%TF.FilePolarity,Positive*%
%TF.FileFunction,Paste,Bot*%
%TF.Part,Single*%
G01*
G75*
G36*
X31643240Y12440075D02*
X31637485D01*
Y12440414D01*
X31637146Y12441091D01*
X31636807Y12442445D01*
X31636130Y12444477D01*
X31635452Y12446508D01*
X31634775Y12448878D01*
X31632745Y12454295D01*
X31630035Y12460390D01*
X31626990Y12466146D01*
X31623264Y12471224D01*
X31621573Y12473595D01*
X31619540Y12475626D01*
X31619202Y12475965D01*
X31617508Y12477319D01*
X31615479Y12478673D01*
X31612091Y12480705D01*
X31608368Y12482398D01*
X31603625Y12484091D01*
X31598547Y12485106D01*
X31592453Y12485445D01*
X31590421D01*
X31588052Y12485106D01*
X31585004Y12484768D01*
X31581619Y12483752D01*
X31578232Y12482736D01*
X31574847Y12481043D01*
X31571799Y12478673D01*
X31571460Y12478335D01*
X31570786Y12477658D01*
X31569431Y12475965D01*
X31568076Y12474272D01*
X31566721Y12472240D01*
X31565366Y12469532D01*
X31564691Y12466823D01*
X31564352Y12463776D01*
Y12463437D01*
Y12462083D01*
X31564691Y12460390D01*
X31565027Y12458020D01*
X31565704Y12455311D01*
X31566721Y12452602D01*
X31568076Y12449555D01*
X31570108Y12446847D01*
X31570447Y12446508D01*
X31571124Y12445492D01*
X31572815Y12444138D01*
X31574847Y12442106D01*
X31577893Y12439736D01*
X31581958Y12437028D01*
X31587036Y12433980D01*
X31592792Y12430933D01*
X31618863Y12418406D01*
X31619202Y12418067D01*
X31620557Y12417729D01*
X31622250Y12416713D01*
X31624619Y12415020D01*
X31627328Y12413327D01*
X31630374Y12411295D01*
X31633759Y12408587D01*
X31637146Y12405878D01*
X31643918Y12399107D01*
X31646964Y12395382D01*
X31649673Y12390981D01*
X31652045Y12386579D01*
X31653738Y12381839D01*
X31655090Y12377099D01*
X31655429Y12371681D01*
Y12371343D01*
Y12370666D01*
Y12369650D01*
X31655090Y12367957D01*
X31654752Y12365925D01*
X31654413Y12363894D01*
X31653397Y12358815D01*
X31651367Y12353059D01*
X31648318Y12346965D01*
X31646289Y12343918D01*
X31643918Y12340870D01*
X31641208Y12338162D01*
X31638162Y12335453D01*
X31637823D01*
X31637485Y12334776D01*
X31636469Y12334099D01*
X31635114Y12333422D01*
X31631729Y12331052D01*
X31626990Y12328681D01*
X31621573Y12326311D01*
X31615137Y12323941D01*
X31608029Y12322587D01*
X31600241Y12321910D01*
X31597531D01*
X31594485Y12322248D01*
X31590421Y12322587D01*
X31585342Y12323264D01*
X31579248Y12323941D01*
X31572815Y12325296D01*
X31565704Y12326989D01*
X31565366D01*
X31564691Y12327327D01*
X31563675Y12327666D01*
X31562320Y12328004D01*
X31559271Y12328343D01*
X31556226Y12328681D01*
X31555548D01*
X31553854Y12328004D01*
X31551825Y12326989D01*
X31550809Y12325634D01*
X31549792Y12324280D01*
X31544037D01*
Y12382855D01*
X31549792D01*
Y12382516D01*
X31550131Y12381839D01*
X31550470Y12380485D01*
X31550809Y12378792D01*
X31551486Y12376760D01*
X31552161Y12374390D01*
X31553854Y12368634D01*
X31556564Y12362540D01*
X31559949Y12356445D01*
X31564014Y12350351D01*
X31568753Y12344933D01*
X31569431Y12344256D01*
X31571124Y12342902D01*
X31574170Y12340870D01*
X31578232Y12338839D01*
X31582974Y12336469D01*
X31588391Y12334437D01*
X31594485Y12333083D01*
X31600919Y12332406D01*
X31602948D01*
X31605319Y12332744D01*
X31608029Y12333422D01*
X31611075Y12334099D01*
X31614462Y12335453D01*
X31617847Y12337146D01*
X31620895Y12339516D01*
X31621234Y12339855D01*
X31622250Y12340870D01*
X31623602Y12342225D01*
X31624957Y12344256D01*
X31626312Y12346965D01*
X31627667Y12350012D01*
X31628683Y12353398D01*
X31629019Y12357122D01*
Y12357800D01*
Y12359154D01*
X31628683Y12361524D01*
X31628006Y12364233D01*
X31626990Y12367618D01*
X31625296Y12371004D01*
X31623264Y12374390D01*
X31620218Y12377776D01*
X31619879Y12378114D01*
X31618524Y12379469D01*
X31616153Y12381162D01*
X31612430Y12383532D01*
X31607690Y12386579D01*
X31604980Y12388610D01*
X31601935Y12390303D01*
X31598209Y12392335D01*
X31594485Y12394366D01*
X31590082Y12396736D01*
X31585342Y12399107D01*
X31585004D01*
X31584326Y12399784D01*
X31582974Y12400461D01*
X31581281Y12401138D01*
X31578909Y12402492D01*
X31576541Y12403847D01*
X31571460Y12406894D01*
X31565704Y12410618D01*
X31559949Y12414343D01*
X31554871Y12418406D01*
X31552838Y12420437D01*
X31551147Y12422469D01*
X31550809Y12422807D01*
X31549792Y12424162D01*
X31548776Y12426532D01*
X31547421Y12429579D01*
X31545728Y12433303D01*
X31544714Y12437705D01*
X31543698Y12442784D01*
X31543359Y12448201D01*
Y12448539D01*
Y12449217D01*
Y12450232D01*
X31543698Y12451587D01*
X31544037Y12455311D01*
X31545053Y12460051D01*
X31546744Y12465469D01*
X31549115Y12471224D01*
X31552502Y12476642D01*
X31557242Y12482059D01*
X31557919Y12482736D01*
X31559610Y12484091D01*
X31562659Y12486461D01*
X31567059Y12489169D01*
X31572141Y12491539D01*
X31578232Y12493909D01*
X31585342Y12495264D01*
X31593130Y12495941D01*
X31594824D01*
X31596854Y12495602D01*
X31599902Y12495264D01*
X31603287Y12494925D01*
X31607352Y12494248D01*
X31611752Y12492894D01*
X31616830Y12491539D01*
X31617169D01*
X31618185Y12491201D01*
X31619879Y12490862D01*
X31621909Y12490524D01*
X31625974Y12489508D01*
X31627667Y12489169D01*
X31630713D01*
X31632068Y12489508D01*
X31633423Y12490185D01*
X31633759Y12490524D01*
X31634439Y12491539D01*
X31635791Y12493232D01*
X31637485Y12495941D01*
X31643240D01*
Y12440075D01*
D02*
G37*
G36*
X31001965Y12495602D02*
X31005014Y12495264D01*
X31008401Y12494248D01*
X31012463Y12493232D01*
X31016187Y12491539D01*
X31020251Y12489169D01*
X31020587Y12488831D01*
X31021942Y12487815D01*
X31023636Y12486122D01*
X31026007Y12483752D01*
X31028714Y12480705D01*
X31031424Y12476980D01*
X31034131Y12472579D01*
X31036502Y12467162D01*
X31036841Y12466823D01*
X31037180Y12465130D01*
X31037857Y12462760D01*
X31038531Y12459036D01*
X31039209Y12454634D01*
X31039886Y12448878D01*
X31040564Y12442445D01*
Y12434658D01*
Y12364233D01*
Y12363555D01*
Y12361862D01*
Y12359154D01*
X31040903Y12355768D01*
X31041580Y12348658D01*
X31041919Y12345611D01*
X31042596Y12342902D01*
X31042935Y12342225D01*
X31044290Y12340532D01*
X31046320Y12338500D01*
X31049368Y12336130D01*
X31049707D01*
X31050385Y12335792D01*
X31051398Y12335453D01*
X31053091Y12334776D01*
X31055124Y12334437D01*
X31057831Y12333760D01*
X31061218Y12333422D01*
X31064944D01*
Y12326989D01*
X30984360D01*
Y12333422D01*
X30989438D01*
X30991470Y12333760D01*
X30993839Y12334099D01*
X30998920Y12335115D01*
X31001627Y12336130D01*
X31003998Y12337485D01*
X31004337D01*
X31004675Y12338162D01*
X31006369Y12339516D01*
X31008060Y12342563D01*
X31009076Y12344256D01*
X31009753Y12346626D01*
Y12346965D01*
X31010092Y12347303D01*
Y12348319D01*
X31010431Y12350012D01*
Y12352382D01*
X31010770Y12355429D01*
Y12359154D01*
Y12364233D01*
Y12434319D01*
Y12434658D01*
Y12435335D01*
Y12436351D01*
Y12437705D01*
X31010431Y12441091D01*
X31010092Y12445492D01*
X31009415Y12449894D01*
X31008737Y12454634D01*
X31007385Y12459036D01*
X31005692Y12462760D01*
X31005353Y12463099D01*
X31004337Y12464453D01*
X31002643Y12466484D01*
X31000275Y12468516D01*
X30997226Y12470547D01*
X30993164Y12472579D01*
X30988763Y12473933D01*
X30983344Y12474272D01*
X30981653D01*
X30979959Y12473933D01*
X30977249Y12473595D01*
X30974542Y12472917D01*
X30971155Y12472240D01*
X30967770Y12470886D01*
X30964044Y12469193D01*
X30963708Y12468854D01*
X30962354Y12468177D01*
X30960321Y12467162D01*
X30957611Y12465130D01*
X30954227Y12462760D01*
X30950500Y12459713D01*
X30945761Y12455988D01*
X30941022Y12451587D01*
X30940683Y12449894D01*
X30941360Y12442106D01*
Y12364233D01*
Y12363894D01*
Y12363555D01*
Y12361524D01*
Y12358477D01*
X30941699Y12355091D01*
Y12351366D01*
X30942038Y12347981D01*
X30942377Y12344933D01*
X30943054Y12342902D01*
X30943393Y12342225D01*
X30944745Y12340532D01*
X30946777Y12338500D01*
X30950162Y12336130D01*
X30950500D01*
X30951178Y12335792D01*
X30952533Y12335453D01*
X30954227Y12334776D01*
X30956595Y12334437D01*
X30959644Y12333760D01*
X30963367Y12333422D01*
X30967770D01*
Y12326989D01*
X30885156D01*
Y12333422D01*
X30887186D01*
X30889557Y12333760D01*
X30892267D01*
X30898361Y12334776D01*
X30901068Y12335453D01*
X30903439Y12336469D01*
X30903778D01*
X30904117Y12337146D01*
X30906149Y12338839D01*
X30908517Y12341886D01*
X30910550Y12346288D01*
Y12346626D01*
X30910889Y12346965D01*
Y12347981D01*
X30911227Y12349674D01*
Y12352044D01*
X30911566Y12355091D01*
Y12359154D01*
Y12364233D01*
Y12434319D01*
Y12434658D01*
Y12435335D01*
Y12436351D01*
Y12437705D01*
X30911227Y12441091D01*
X30910889Y12445492D01*
X30910211Y12450232D01*
X30908856Y12454973D01*
X30907501Y12459374D01*
X30905472Y12463099D01*
X30905133Y12463776D01*
X30904117Y12465130D01*
X30902423Y12466823D01*
X30899716Y12469193D01*
X30896667Y12471224D01*
X30892944Y12473256D01*
X30888541Y12474610D01*
X30883463Y12474949D01*
X30881769D01*
X30880078Y12474610D01*
X30877707Y12474272D01*
X30874661Y12473595D01*
X30871613Y12472579D01*
X30867889Y12471224D01*
X30864502Y12469532D01*
X30863824Y12469193D01*
X30862131Y12468177D01*
X30859424Y12466484D01*
X30856039Y12464453D01*
X30852313Y12461744D01*
X30848590Y12458697D01*
X30845203Y12455311D01*
X30841818Y12451587D01*
Y12364233D01*
Y12363894D01*
Y12363555D01*
Y12361524D01*
Y12358815D01*
X30842157Y12355429D01*
Y12352044D01*
X30842834Y12348319D01*
X30843170Y12345272D01*
X30843848Y12342902D01*
Y12342563D01*
X30844186Y12342225D01*
X30845541Y12340193D01*
X30847574Y12337823D01*
X30850281Y12335792D01*
X30850620D01*
X30851297Y12335453D01*
X30852313Y12335115D01*
X30854346Y12334776D01*
X30856714Y12334099D01*
X30859763Y12333760D01*
X30863486Y12333422D01*
X30868228D01*
Y12326989D01*
X30786966D01*
Y12333422D01*
X30790692D01*
X30793060Y12333760D01*
X30798141Y12334437D01*
X30800510Y12335115D01*
X30802542Y12335792D01*
X30802881D01*
X30803220Y12336130D01*
X30805249Y12337485D01*
X30807620Y12339855D01*
X30809653Y12343240D01*
Y12343579D01*
X30809991Y12344256D01*
X30810330Y12345949D01*
X30811005Y12347981D01*
X30811346Y12350689D01*
X30811682Y12354414D01*
X30812021Y12358815D01*
Y12364233D01*
Y12426870D01*
Y12427209D01*
Y12427886D01*
Y12429240D01*
Y12431272D01*
Y12433303D01*
Y12435673D01*
X30811682Y12441429D01*
Y12447185D01*
X30811346Y12452941D01*
X30811005Y12458020D01*
X30810669Y12460051D01*
X30810330Y12461744D01*
Y12462083D01*
X30809991Y12462760D01*
X30809314Y12464791D01*
X30807959Y12467500D01*
X30807281Y12468516D01*
X30806265Y12469532D01*
X30805927Y12469870D01*
X30804236Y12470886D01*
X30801865Y12471563D01*
X30798816Y12471902D01*
X30796786D01*
X30795432Y12471563D01*
X30791708Y12470886D01*
X30786627Y12469532D01*
X30784259Y12475965D01*
X30834030Y12495941D01*
X30841818D01*
Y12460728D01*
X30842157Y12461067D01*
X30842493Y12461406D01*
X30844525Y12463437D01*
X30847574Y12466484D01*
X30850958Y12470209D01*
X30854684Y12473595D01*
X30858069Y12476980D01*
X30860779Y12479689D01*
X30862131Y12480705D01*
X30862808Y12481382D01*
X30863147Y12481721D01*
X30864163Y12482398D01*
X30865857Y12483752D01*
X30867889Y12485106D01*
X30870258Y12486799D01*
X30873306Y12488831D01*
X30879739Y12491878D01*
X30880078Y12492217D01*
X30881430Y12492555D01*
X30883124Y12493232D01*
X30885495Y12493909D01*
X30888541Y12494587D01*
X30891589Y12495264D01*
X30894974Y12495941D01*
X30901068D01*
X30903778Y12495602D01*
X30907501Y12494925D01*
X30911566Y12493571D01*
X30915967Y12492217D01*
X30920367Y12489846D01*
X30924771Y12486799D01*
X30925107Y12486461D01*
X30926462Y12485106D01*
X30928494Y12483075D01*
X30930865Y12480028D01*
X30933234Y12476303D01*
X30935944Y12471902D01*
X30937973Y12466823D01*
X30939667Y12460728D01*
X30940005Y12461067D01*
X30940344Y12461744D01*
X30941360Y12462760D01*
X30942715Y12464114D01*
X30946100Y12467839D01*
X30950500Y12472579D01*
X30955582Y12477319D01*
X30960660Y12481721D01*
X30965738Y12486122D01*
X30968448Y12487815D01*
X30970816Y12489169D01*
X30971494Y12489508D01*
X30973187Y12490185D01*
X30975558Y12491201D01*
X30978943Y12492555D01*
X30983005Y12493909D01*
X30987408Y12494925D01*
X30992148Y12495602D01*
X30997226Y12495941D01*
X30999258D01*
X31001965Y12495602D01*
D02*
G37*
G36*
X31261658Y12569752D02*
X31264706D01*
X31268430Y12569413D01*
X31272156D01*
X31280280Y12568398D01*
X31288745Y12567382D01*
X31297211Y12565689D01*
X31304660Y12563319D01*
X31304996D01*
X31305673Y12562980D01*
X31306351Y12562642D01*
X31307706Y12561964D01*
X31311429Y12560272D01*
X31315833Y12557901D01*
X31320911Y12554854D01*
X31325989Y12550791D01*
X31331406Y12546051D01*
X31336484Y12540634D01*
Y12540295D01*
X31337164Y12539957D01*
X31337839Y12538941D01*
X31338516Y12537925D01*
X31340549Y12534539D01*
X31343256Y12529799D01*
X31345627Y12524382D01*
X31347659Y12517949D01*
X31349014Y12510839D01*
X31349689Y12502713D01*
Y12502374D01*
Y12501358D01*
Y12500004D01*
X31349353Y12497634D01*
X31349014Y12495264D01*
X31348672Y12492217D01*
X31347321Y12485445D01*
X31344949Y12477658D01*
X31343256Y12473933D01*
X31341565Y12469870D01*
X31339194Y12465807D01*
X31336484Y12461744D01*
X31333438Y12458020D01*
X31330051Y12454295D01*
X31329715Y12453957D01*
X31329037Y12453618D01*
X31328021Y12452602D01*
X31326328Y12451587D01*
X31324298Y12450232D01*
X31321927Y12448539D01*
X31319217Y12446847D01*
X31315833Y12445154D01*
X31312109Y12443461D01*
X31308044Y12441768D01*
X31303305Y12440414D01*
X31298227Y12438721D01*
X31293146Y12437705D01*
X31287390Y12436689D01*
X31280957Y12436351D01*
X31274524Y12436012D01*
X31268768D01*
X31266061Y12436351D01*
X31262674D01*
X31255563Y12437028D01*
X31255225D01*
X31253870Y12437366D01*
X31251840Y12437705D01*
X31249130Y12438043D01*
X31245746Y12438382D01*
X31242020Y12439059D01*
X31233896Y12440752D01*
Y12369988D01*
Y12369650D01*
Y12368973D01*
Y12367957D01*
Y12366264D01*
X31234235Y12362540D01*
X31234573Y12357800D01*
X31234912Y12353059D01*
X31235928Y12348319D01*
X31236942Y12344256D01*
X31237958Y12342902D01*
X31238635Y12341548D01*
X31238974Y12341209D01*
X31239990Y12340193D01*
X31241684Y12339178D01*
X31243713Y12337823D01*
X31246762Y12336130D01*
X31250146Y12335115D01*
X31254550Y12334099D01*
X31259290Y12333760D01*
X31268768D01*
Y12326989D01*
X31164487D01*
Y12333760D01*
X31175998D01*
X31178705Y12334437D01*
X31182092Y12335115D01*
X31185815Y12336130D01*
X31189203Y12337823D01*
X31192587Y12340193D01*
X31195636Y12343579D01*
X31195975Y12343918D01*
X31196313Y12344933D01*
X31196991Y12346288D01*
X31197668Y12348996D01*
X31198343Y12352382D01*
X31198682Y12357122D01*
X31199359Y12362878D01*
Y12366264D01*
Y12369988D01*
Y12527091D01*
Y12527429D01*
Y12528106D01*
Y12529122D01*
Y12530815D01*
X31199020Y12534539D01*
X31198682Y12539279D01*
X31198004Y12544020D01*
X31197327Y12548421D01*
X31195975Y12552484D01*
X31195297Y12553838D01*
X31194281Y12555193D01*
X31193942Y12555531D01*
X31192926Y12556547D01*
X31191235Y12557901D01*
X31189203Y12559256D01*
X31186154Y12560610D01*
X31182431Y12561964D01*
X31178369Y12562980D01*
X31173627Y12563319D01*
X31164487D01*
Y12570090D01*
X31258951D01*
X31261658Y12569752D01*
D02*
G37*
G36*
X30086780D02*
X30093552Y12569413D01*
X30101001Y12569075D01*
X30109125Y12568398D01*
X30116913Y12567043D01*
X30124023Y12565689D01*
X30124362D01*
X30125378Y12565350D01*
X30126733Y12565012D01*
X30128424Y12564335D01*
X30130795Y12563657D01*
X30133167Y12562642D01*
X30139261Y12560272D01*
X30145694Y12557224D01*
X30152463Y12553161D01*
X30159235Y12548421D01*
X30164993Y12542665D01*
X30165329Y12542327D01*
X30165668Y12541988D01*
X30166345Y12540972D01*
X30167361Y12539957D01*
X30169394Y12536571D01*
X30172101Y12531831D01*
X30174811Y12526413D01*
X30176843Y12519980D01*
X30178534Y12512870D01*
X30179211Y12505083D01*
Y12504744D01*
Y12504406D01*
Y12503390D01*
Y12502035D01*
X30178534Y12498650D01*
X30177859Y12494248D01*
X30176505Y12489169D01*
X30174472Y12483413D01*
X30171762Y12477996D01*
X30168039Y12472240D01*
X30167361Y12471563D01*
X30166006Y12469870D01*
X30163300Y12467500D01*
X30159912Y12464114D01*
X30155173Y12460728D01*
X30149417Y12457343D01*
X30142984Y12453957D01*
X30135196Y12450910D01*
X30135535D01*
X30136212Y12450571D01*
X30137567Y12450232D01*
X30139261Y12449894D01*
X30141290Y12449217D01*
X30143661Y12448539D01*
X30149417Y12446847D01*
X30155511Y12444477D01*
X30161606Y12441768D01*
X30167700Y12438043D01*
X30172778Y12433980D01*
X30173117Y12433642D01*
X30173456Y12433303D01*
X30174472Y12432288D01*
X30175488Y12430933D01*
X30178195Y12427547D01*
X30181583Y12422807D01*
X30184967Y12416713D01*
X30187677Y12409941D01*
X30189709Y12402154D01*
X30190048Y12397752D01*
X30190384Y12393351D01*
Y12393012D01*
Y12392673D01*
Y12391658D01*
Y12390303D01*
X30189709Y12386918D01*
X30189032Y12382177D01*
X30187677Y12377099D01*
X30185645Y12371343D01*
X30182599Y12364910D01*
X30178873Y12358815D01*
Y12358477D01*
X30178195Y12358138D01*
X30176843Y12356107D01*
X30174133Y12353059D01*
X30170749Y12349674D01*
X30166006Y12345611D01*
X30160590Y12341548D01*
X30154495Y12337823D01*
X30147385Y12334437D01*
X30147046D01*
X30146371Y12334099D01*
X30145355Y12333760D01*
X30143661Y12333422D01*
X30141629Y12332744D01*
X30138922Y12332067D01*
X30135873Y12331390D01*
X30132150Y12330713D01*
X30128085Y12330036D01*
X30123685Y12329359D01*
X30118607Y12328681D01*
X30113190Y12328004D01*
X30107434Y12327666D01*
X30101001Y12327327D01*
X30093890Y12326989D01*
X29972000D01*
Y12333760D01*
X29983173D01*
X29985883Y12334437D01*
X29989267Y12335115D01*
X29992654Y12336130D01*
X29996378Y12337823D01*
X29999765Y12340193D01*
X30002472Y12343240D01*
X30002811Y12343579D01*
X30003149Y12344595D01*
X30003827Y12346288D01*
X30004843Y12348996D01*
X30005521Y12352382D01*
X30006198Y12357122D01*
X30006534Y12362878D01*
X30006873Y12366264D01*
Y12369988D01*
Y12527091D01*
Y12527429D01*
Y12528106D01*
Y12529122D01*
Y12530815D01*
X30006534Y12534539D01*
X30006198Y12538941D01*
X30005521Y12543681D01*
X30004504Y12548421D01*
X30003149Y12552484D01*
X30002472Y12553838D01*
X30001456Y12555193D01*
X30001117Y12555531D01*
X30000101Y12556547D01*
X29998749Y12557901D01*
X29996378Y12559256D01*
X29993332Y12560610D01*
X29989944Y12561964D01*
X29985544Y12562980D01*
X29980804Y12563319D01*
X29972000D01*
Y12570090D01*
X30084070D01*
X30086780Y12569752D01*
D02*
G37*
G36*
X31727548Y12491201D02*
X31765808D01*
Y12479012D01*
X31727548Y12478673D01*
Y12372020D01*
Y12371681D01*
Y12371343D01*
Y12369311D01*
X31727887Y12366603D01*
X31728226Y12363217D01*
X31728564Y12359492D01*
X31729578Y12356107D01*
X31730594Y12352721D01*
X31731949Y12350351D01*
X31732288Y12350012D01*
X31732626Y12349674D01*
X31733643Y12348658D01*
X31734995Y12347642D01*
X31738721Y12345949D01*
X31741092Y12345272D01*
X31743460Y12344933D01*
X31744476D01*
X31745831Y12345272D01*
X31747186D01*
X31750909Y12346288D01*
X31754974Y12348319D01*
X31755310Y12348658D01*
X31755988Y12348996D01*
X31757004Y12350012D01*
X31758359Y12351028D01*
X31759714Y12352721D01*
X31761066Y12354752D01*
X31762421Y12356784D01*
X31763776Y12359492D01*
X31770886D01*
Y12359154D01*
X31770547Y12358815D01*
X31769870Y12356784D01*
X31768179Y12353398D01*
X31766147Y12349674D01*
X31763776Y12345272D01*
X31760730Y12340870D01*
X31757004Y12336807D01*
X31752942Y12333083D01*
X31752603Y12332744D01*
X31750909Y12331729D01*
X31748541Y12330374D01*
X31745831Y12328681D01*
X31742108Y12326989D01*
X31738043Y12325634D01*
X31733643Y12324618D01*
X31729242Y12324280D01*
X31727887D01*
X31726193Y12324618D01*
X31724161Y12324957D01*
X31721793Y12325296D01*
X31719083Y12326311D01*
X31716037Y12327327D01*
X31712988Y12328681D01*
X31712650Y12329020D01*
X31711633Y12329697D01*
X31710281Y12330713D01*
X31708588Y12332067D01*
X31706894Y12334099D01*
X31704865Y12336130D01*
X31703171Y12338839D01*
X31701477Y12341886D01*
Y12342225D01*
X31700800Y12343579D01*
X31700461Y12345611D01*
X31699783Y12348319D01*
X31699106Y12352044D01*
X31698431Y12356445D01*
X31698090Y12361862D01*
X31697751Y12368296D01*
Y12479012D01*
X31671683D01*
Y12484429D01*
X31672021Y12484768D01*
X31673376Y12485106D01*
X31675406Y12486122D01*
X31677777Y12487476D01*
X31680823Y12489508D01*
X31684210Y12491878D01*
X31687933Y12494587D01*
X31691656Y12497634D01*
X31691998Y12497972D01*
X31693350Y12499327D01*
X31695383Y12501358D01*
X31698090Y12504067D01*
X31700800Y12507114D01*
X31703848Y12511177D01*
X31707233Y12515240D01*
X31710281Y12519980D01*
X31710620Y12520319D01*
X31710956Y12521335D01*
X31711972Y12523028D01*
X31713327Y12525736D01*
X31715021Y12529122D01*
X31717053Y12533524D01*
X31719421Y12538602D01*
X31722131Y12545035D01*
X31727548D01*
Y12491201D01*
D02*
G37*
G36*
X30555038D02*
X30593298D01*
Y12479012D01*
X30555038Y12478673D01*
Y12372020D01*
Y12371681D01*
Y12371343D01*
Y12369311D01*
X30555377Y12366603D01*
X30555716Y12363217D01*
X30556055Y12359492D01*
X30557071Y12356107D01*
X30558084Y12352721D01*
X30559439Y12350351D01*
X30559778Y12350012D01*
X30560117Y12349674D01*
X30561133Y12348658D01*
X30562488Y12347642D01*
X30566211Y12345949D01*
X30568582Y12345272D01*
X30570953Y12344933D01*
X30571967D01*
X30573322Y12345272D01*
X30574677D01*
X30578400Y12346288D01*
X30582462Y12348319D01*
X30582803Y12348658D01*
X30583478Y12348996D01*
X30584494Y12350012D01*
X30585849Y12351028D01*
X30587204Y12352721D01*
X30588559Y12354752D01*
X30589911Y12356784D01*
X30591266Y12359492D01*
X30598376D01*
Y12359154D01*
X30598038Y12358815D01*
X30597360Y12356784D01*
X30595667Y12353398D01*
X30593637Y12349674D01*
X30591266Y12345272D01*
X30588220Y12340870D01*
X30584494Y12336807D01*
X30580432Y12333083D01*
X30580093Y12332744D01*
X30578400Y12331729D01*
X30576031Y12330374D01*
X30573322Y12328681D01*
X30569598Y12326989D01*
X30565533Y12325634D01*
X30561133Y12324618D01*
X30556732Y12324280D01*
X30555377D01*
X30553683Y12324618D01*
X30551651Y12324957D01*
X30549283Y12325296D01*
X30546573Y12326311D01*
X30543527Y12327327D01*
X30540479Y12328681D01*
X30540140Y12329020D01*
X30539124Y12329697D01*
X30537772Y12330713D01*
X30536078Y12332067D01*
X30534384Y12334099D01*
X30532352Y12336130D01*
X30530661Y12338839D01*
X30528967Y12341886D01*
Y12342225D01*
X30528290Y12343579D01*
X30527951Y12345611D01*
X30527274Y12348319D01*
X30526596Y12352044D01*
X30525919Y12356445D01*
X30525583Y12361862D01*
X30525244Y12368296D01*
Y12479012D01*
X30499173D01*
Y12484429D01*
X30499512Y12484768D01*
X30500864Y12485106D01*
X30502896Y12486122D01*
X30505267Y12487476D01*
X30508313Y12489508D01*
X30511700Y12491878D01*
X30515424Y12494587D01*
X30519150Y12497634D01*
X30519489Y12497972D01*
X30520840Y12499327D01*
X30522873Y12501358D01*
X30525583Y12504067D01*
X30528290Y12507114D01*
X30531339Y12511177D01*
X30534723Y12515240D01*
X30537772Y12519980D01*
X30538110Y12520319D01*
X30538449Y12521335D01*
X30539462Y12523028D01*
X30540817Y12525736D01*
X30542511Y12529122D01*
X30544543Y12533524D01*
X30546912Y12538602D01*
X30549622Y12545035D01*
X30555038D01*
Y12491201D01*
D02*
G37*
G36*
X30453125D02*
X30491385D01*
Y12479012D01*
X30453125Y12478673D01*
Y12372020D01*
Y12371681D01*
Y12371343D01*
Y12369311D01*
X30453464Y12366603D01*
X30453802Y12363217D01*
X30454141Y12359492D01*
X30455157Y12356107D01*
X30456171Y12352721D01*
X30457526Y12350351D01*
X30457864Y12350012D01*
X30458203Y12349674D01*
X30459219Y12348658D01*
X30460574Y12347642D01*
X30464297Y12345949D01*
X30466669Y12345272D01*
X30469037Y12344933D01*
X30470053D01*
X30471408Y12345272D01*
X30472763D01*
X30476486Y12346288D01*
X30480551Y12348319D01*
X30480890Y12348658D01*
X30481567Y12348996D01*
X30482581Y12350012D01*
X30483936Y12351028D01*
X30485291Y12352721D01*
X30486646Y12354752D01*
X30488000Y12356784D01*
X30489352Y12359492D01*
X30496463D01*
Y12359154D01*
X30496124Y12358815D01*
X30495447Y12356784D01*
X30493756Y12353398D01*
X30491724Y12349674D01*
X30489352Y12345272D01*
X30486307Y12340870D01*
X30482581Y12336807D01*
X30478519Y12333083D01*
X30478180Y12332744D01*
X30476486Y12331729D01*
X30474118Y12330374D01*
X30471408Y12328681D01*
X30467685Y12326989D01*
X30463620Y12325634D01*
X30459219Y12324618D01*
X30454819Y12324280D01*
X30453464D01*
X30451770Y12324618D01*
X30449738Y12324957D01*
X30447369Y12325296D01*
X30444659Y12326311D01*
X30441614Y12327327D01*
X30438565Y12328681D01*
X30438226Y12329020D01*
X30437213Y12329697D01*
X30435858Y12330713D01*
X30434164Y12332067D01*
X30432471Y12334099D01*
X30430441Y12336130D01*
X30428748Y12338839D01*
X30427054Y12341886D01*
Y12342225D01*
X30426376Y12343579D01*
X30426038Y12345611D01*
X30425360Y12348319D01*
X30424683Y12352044D01*
X30424008Y12356445D01*
X30423669Y12361862D01*
X30423331Y12368296D01*
Y12479012D01*
X30397260D01*
Y12484429D01*
X30397598Y12484768D01*
X30398953Y12485106D01*
X30400983Y12486122D01*
X30403354Y12487476D01*
X30406400Y12489508D01*
X30409787Y12491878D01*
X30413510Y12494587D01*
X30417236Y12497634D01*
X30417575Y12497972D01*
X30418927Y12499327D01*
X30420959Y12501358D01*
X30423669Y12504067D01*
X30426376Y12507114D01*
X30429425Y12511177D01*
X30432809Y12515240D01*
X30435858Y12519980D01*
X30436197Y12520319D01*
X30436536Y12521335D01*
X30437549Y12523028D01*
X30438904Y12525736D01*
X30440598Y12529122D01*
X30442630Y12533524D01*
X30444998Y12538602D01*
X30447708Y12545035D01*
X30453125D01*
Y12491201D01*
D02*
G37*
G36*
X31446863Y12495602D02*
X31449234D01*
X31454312Y12494925D01*
X31459729Y12494248D01*
X31465823Y12492894D01*
X31471918Y12490862D01*
X31477335Y12488492D01*
X31477673Y12488154D01*
X31479028Y12487476D01*
X31481061Y12486122D01*
X31483090Y12484091D01*
X31485800Y12481721D01*
X31488510Y12478673D01*
X31490878Y12475287D01*
X31492911Y12471224D01*
Y12470886D01*
X31493588Y12469532D01*
X31493927Y12467500D01*
X31494604Y12464453D01*
X31495279Y12460051D01*
X31495618Y12454634D01*
X31495959Y12451587D01*
X31496295Y12447862D01*
Y12444138D01*
Y12439736D01*
Y12383870D01*
Y12383532D01*
Y12382855D01*
Y12381839D01*
Y12380146D01*
Y12376083D01*
Y12371681D01*
X31496634Y12366603D01*
Y12361862D01*
Y12357800D01*
X31496973Y12356445D01*
Y12355091D01*
Y12354752D01*
X31497311Y12354414D01*
X31497650Y12352382D01*
X31498666Y12350012D01*
X31500021Y12348319D01*
X31500360Y12347981D01*
X31501376Y12347642D01*
X31502728Y12346965D01*
X31504761Y12346626D01*
X31506454D01*
X31508148Y12346965D01*
X31509839Y12347642D01*
X31510178D01*
X31510516Y12348319D01*
X31511533Y12348996D01*
X31513226Y12350351D01*
X31514917Y12352044D01*
X31517627Y12354075D01*
X31520673Y12357122D01*
X31524399Y12360847D01*
Y12350689D01*
X31524060Y12350351D01*
X31523383Y12349674D01*
X31522366Y12348319D01*
X31521014Y12346626D01*
X31518982Y12344595D01*
X31516949Y12342225D01*
X31511871Y12337485D01*
X31506116Y12332406D01*
X31499683Y12328004D01*
X31496295Y12326311D01*
X31492911Y12324957D01*
X31489526Y12324280D01*
X31486139Y12323941D01*
X31484784D01*
X31483090Y12324280D01*
X31481061Y12324618D01*
X31478690Y12325296D01*
X31476321Y12326311D01*
X31473950Y12327666D01*
X31471918Y12329697D01*
X31471579Y12330036D01*
X31471240Y12331052D01*
X31470224Y12332406D01*
X31469547Y12334437D01*
X31468533Y12337485D01*
X31467517Y12340870D01*
X31467178Y12345272D01*
X31466840Y12350351D01*
X31466501Y12350012D01*
X31465823Y12349674D01*
X31464468Y12348658D01*
X31462778Y12347303D01*
X31458374Y12344256D01*
X31453296Y12340193D01*
X31447879Y12336469D01*
X31442801Y12332744D01*
X31438400Y12329697D01*
X31436368Y12328681D01*
X31435013Y12328004D01*
X31434674Y12327666D01*
X31433319Y12327327D01*
X31431287Y12326650D01*
X31428918Y12325973D01*
X31425534Y12324957D01*
X31422147Y12324280D01*
X31418423Y12323941D01*
X31414359Y12323603D01*
X31413681D01*
X31411652Y12323941D01*
X31408264Y12324280D01*
X31404541Y12324957D01*
X31400140Y12326311D01*
X31395398Y12328343D01*
X31390659Y12331390D01*
X31386258Y12335115D01*
X31385919Y12335792D01*
X31384564Y12337146D01*
X31382870Y12339855D01*
X31380841Y12343240D01*
X31378809Y12347642D01*
X31377115Y12352721D01*
X31375760Y12358815D01*
X31375421Y12365587D01*
Y12366264D01*
Y12367618D01*
X31375760Y12369988D01*
X31376099Y12372697D01*
X31376776Y12376083D01*
X31377454Y12379469D01*
X31378809Y12383193D01*
X31380502Y12386579D01*
X31380841Y12387256D01*
X31381854Y12388610D01*
X31383887Y12390981D01*
X31386597Y12394028D01*
X31389981Y12397414D01*
X31394382Y12401138D01*
X31399799Y12405201D01*
X31406232Y12409264D01*
X31406573D01*
X31407248Y12409603D01*
X31408264Y12410280D01*
X31409619Y12411295D01*
X31411652Y12412311D01*
X31414359Y12413666D01*
X31417068Y12415020D01*
X31420792Y12416713D01*
X31424518Y12418406D01*
X31428918Y12420437D01*
X31433997Y12422807D01*
X31439413Y12424839D01*
X31445508Y12427547D01*
X31451941Y12429917D01*
X31459052Y12432965D01*
X31466840Y12435673D01*
Y12442106D01*
Y12442445D01*
Y12443122D01*
Y12444477D01*
Y12446169D01*
X31466501Y12448201D01*
Y12450232D01*
X31465823Y12455311D01*
X31464807Y12461067D01*
X31463455Y12466484D01*
X31461761Y12471563D01*
X31460406Y12473595D01*
X31459052Y12475626D01*
X31458713Y12475965D01*
X31457697Y12476980D01*
X31455667Y12478673D01*
X31453296Y12480366D01*
X31450250Y12482059D01*
X31446185Y12483752D01*
X31441785Y12484768D01*
X31436368Y12485106D01*
X31434674D01*
X31432642Y12484768D01*
X31429935Y12484429D01*
X31427225Y12483413D01*
X31424179Y12482398D01*
X31421130Y12480705D01*
X31418423Y12478673D01*
X31418085Y12478335D01*
X31417407Y12477658D01*
X31416391Y12476303D01*
X31415036Y12474610D01*
X31413681Y12472579D01*
X31412665Y12470209D01*
X31411990Y12467500D01*
X31411652Y12464791D01*
X31412329Y12454295D01*
Y12453957D01*
Y12452941D01*
X31411990Y12451587D01*
X31411652Y12449555D01*
X31410635Y12445492D01*
X31409280Y12443461D01*
X31407925Y12441768D01*
X31407587Y12441429D01*
X31407248Y12441091D01*
X31406232Y12440414D01*
X31404880Y12439736D01*
X31401492Y12438043D01*
X31399124Y12437705D01*
X31396753Y12437366D01*
X31395737D01*
X31394382Y12437705D01*
X31393030Y12438043D01*
X31389642Y12439398D01*
X31387610Y12440414D01*
X31385919Y12441768D01*
Y12442106D01*
X31385242Y12442784D01*
X31384564Y12443799D01*
X31383887Y12445154D01*
X31383209Y12446847D01*
X31382532Y12449217D01*
X31382193Y12451925D01*
X31381854Y12454634D01*
Y12454973D01*
Y12455311D01*
X31382193Y12457343D01*
X31382532Y12460051D01*
X31383887Y12463776D01*
X31385580Y12468177D01*
X31388290Y12472917D01*
X31392352Y12477996D01*
X31394724Y12480366D01*
X31397430Y12482736D01*
X31397769D01*
X31398108Y12483413D01*
X31399124Y12484091D01*
X31400476Y12484768D01*
X31401831Y12485784D01*
X31403864Y12486799D01*
X31406232Y12488154D01*
X31408942Y12489508D01*
X31415036Y12491878D01*
X31422485Y12493909D01*
X31431287Y12495264D01*
X31441446Y12495941D01*
X31445169D01*
X31446863Y12495602D01*
D02*
G37*
G36*
X31863995D02*
X31866367Y12495264D01*
X31869073Y12494925D01*
X31875507Y12493571D01*
X31882617Y12491539D01*
X31890067Y12488154D01*
X31893790Y12486122D01*
X31897516Y12483752D01*
X31901239Y12481043D01*
X31904626Y12477658D01*
X31904965Y12477319D01*
X31905304Y12476980D01*
X31906320Y12475626D01*
X31907336Y12474272D01*
X31908688Y12472579D01*
X31910382Y12470209D01*
X31912076Y12467839D01*
X31913766Y12464791D01*
X31915121Y12461406D01*
X31916815Y12457681D01*
X31918509Y12453618D01*
X31919861Y12449555D01*
X31921893Y12439736D01*
X31922232Y12434319D01*
X31922571Y12428902D01*
X31809146D01*
Y12428563D01*
Y12427209D01*
Y12425516D01*
X31809485Y12422807D01*
Y12419760D01*
X31810162Y12416374D01*
X31810501Y12412311D01*
X31811176Y12407910D01*
X31813208Y12398768D01*
X31816595Y12389288D01*
X31818625Y12384547D01*
X31820996Y12380146D01*
X31823706Y12375744D01*
X31826752Y12371681D01*
X31827090Y12371343D01*
X31827429Y12370666D01*
X31828445Y12369650D01*
X31829800Y12368634D01*
X31831491Y12366941D01*
X31833862Y12365248D01*
X31838602Y12361524D01*
X31845035Y12357461D01*
X31852145Y12354414D01*
X31855869Y12353059D01*
X31859933Y12352044D01*
X31864334Y12351366D01*
X31868735Y12351028D01*
X31871445D01*
X31874493Y12351366D01*
X31878217Y12352044D01*
X31882617Y12353059D01*
X31887357Y12354752D01*
X31892099Y12356784D01*
X31896838Y12359492D01*
X31897516Y12359831D01*
X31898871Y12361185D01*
X31901239Y12363555D01*
X31903949Y12366603D01*
X31907336Y12371004D01*
X31910721Y12376083D01*
X31914105Y12382516D01*
X31917154Y12390303D01*
X31922571Y12386579D01*
Y12386240D01*
X31922232Y12385563D01*
Y12384209D01*
X31921555Y12382516D01*
X31921216Y12380146D01*
X31920200Y12377776D01*
X31918170Y12371681D01*
X31915460Y12364910D01*
X31911737Y12357461D01*
X31906659Y12349674D01*
X31900562Y12341886D01*
X31900223Y12341548D01*
X31899887Y12340870D01*
X31898871Y12340193D01*
X31897177Y12338839D01*
X31895483Y12337146D01*
X31893454Y12335453D01*
X31891083Y12333760D01*
X31888037Y12332067D01*
X31881601Y12328343D01*
X31873816Y12324957D01*
X31869415Y12323603D01*
X31865012Y12322926D01*
X31860272Y12322248D01*
X31855194Y12321910D01*
X31852484D01*
X31850113Y12322248D01*
X31847745Y12322587D01*
X31844696Y12323264D01*
X31841312Y12323941D01*
X31837924Y12324618D01*
X31829800Y12327327D01*
X31825735Y12329359D01*
X31821335Y12331390D01*
X31817273Y12334099D01*
X31812869Y12337146D01*
X31808807Y12340532D01*
X31804745Y12344595D01*
X31804407Y12344933D01*
X31803729Y12345611D01*
X31802713Y12346965D01*
X31801358Y12348658D01*
X31800003Y12351028D01*
X31797974Y12354075D01*
X31796280Y12357122D01*
X31794247Y12360847D01*
X31792218Y12365248D01*
X31790524Y12369988D01*
X31788492Y12375067D01*
X31787137Y12380485D01*
X31785785Y12386240D01*
X31784769Y12392673D01*
X31784091Y12399445D01*
X31783752Y12406555D01*
Y12406894D01*
Y12408248D01*
Y12410618D01*
X31784091Y12413666D01*
X31784430Y12417051D01*
X31784769Y12421114D01*
X31785446Y12425516D01*
X31786462Y12430595D01*
X31788831Y12441091D01*
X31790863Y12446508D01*
X31792896Y12451925D01*
X31795264Y12457343D01*
X31797974Y12462760D01*
X31801358Y12467500D01*
X31805084Y12472240D01*
X31805423Y12472579D01*
X31806100Y12473256D01*
X31807452Y12474272D01*
X31809146Y12475965D01*
X31811176Y12477658D01*
X31813547Y12479689D01*
X31816595Y12482059D01*
X31819980Y12484091D01*
X31823706Y12486461D01*
X31827768Y12488492D01*
X31832169Y12490524D01*
X31837247Y12492217D01*
X31842328Y12493909D01*
X31847745Y12494925D01*
X31853162Y12495602D01*
X31859256Y12495941D01*
X31861966D01*
X31863995Y12495602D01*
D02*
G37*
G36*
X30693179D02*
X30695551D01*
X30698935Y12494925D01*
X30702322Y12494587D01*
X30706384Y12493571D01*
X30710785Y12492555D01*
X30715527Y12490862D01*
X30720605Y12489169D01*
X30725345Y12486799D01*
X30730423Y12484091D01*
X30735501Y12480705D01*
X30740244Y12476980D01*
X30744983Y12472579D01*
X30749384Y12467500D01*
X30749722Y12467162D01*
X30750061Y12466484D01*
X30751077Y12465130D01*
X30752432Y12463099D01*
X30753787Y12461067D01*
X30755478Y12458020D01*
X30757172Y12454973D01*
X30759204Y12451587D01*
X30760895Y12447524D01*
X30762589Y12443122D01*
X30765637Y12433642D01*
X30766992Y12428563D01*
X30768005Y12423146D01*
X30768344Y12417729D01*
X30768683Y12411973D01*
Y12411634D01*
Y12410957D01*
Y12409941D01*
Y12408248D01*
X30768344Y12406217D01*
X30768005Y12403847D01*
X30767328Y12398091D01*
X30765976Y12391319D01*
X30764282Y12383870D01*
X30761572Y12375744D01*
X30757849Y12367280D01*
Y12366941D01*
X30757510Y12366264D01*
X30756833Y12365248D01*
X30755817Y12363555D01*
X30753448Y12359492D01*
X30750400Y12354414D01*
X30745999Y12348996D01*
X30741257Y12343240D01*
X30735501Y12337823D01*
X30728732Y12333083D01*
X30728391D01*
X30728055Y12332744D01*
X30727039Y12332067D01*
X30725345Y12331390D01*
X30723651Y12330374D01*
X30721622Y12329697D01*
X30716541Y12327666D01*
X30710446Y12325296D01*
X30703336Y12323603D01*
X30695889Y12322248D01*
X30687424Y12321910D01*
X30685730D01*
X30684039Y12322248D01*
X30681329D01*
X30678281Y12322926D01*
X30674557Y12323603D01*
X30670496Y12324280D01*
X30666092Y12325634D01*
X30661691Y12327327D01*
X30656952Y12329020D01*
X30651874Y12331390D01*
X30647134Y12334437D01*
X30642053Y12337823D01*
X30637314Y12341548D01*
X30632913Y12346288D01*
X30628510Y12351366D01*
X30628171Y12351705D01*
X30627832Y12352382D01*
X30626819Y12353737D01*
X30625803Y12355768D01*
X30624448Y12358138D01*
X30622754Y12360847D01*
X30621063Y12363894D01*
X30619370Y12367618D01*
X30617676Y12371681D01*
X30615982Y12375744D01*
X30612936Y12385225D01*
X30610904Y12396059D01*
X30610565Y12401477D01*
X30610226Y12407232D01*
Y12407571D01*
Y12408248D01*
Y12409603D01*
X30610565Y12411295D01*
Y12413327D01*
X30610904Y12415697D01*
X30611581Y12421453D01*
X30612936Y12428225D01*
X30614966Y12435673D01*
X30617676Y12443799D01*
X30621399Y12452264D01*
Y12452602D01*
X30622076Y12453280D01*
X30622415Y12454295D01*
X30623431Y12455988D01*
X30625803Y12460051D01*
X30629187Y12464791D01*
X30633588Y12470209D01*
X30638669Y12475626D01*
X30644424Y12480705D01*
X30650858Y12485106D01*
X30651196D01*
X30651535Y12485445D01*
X30652551Y12486122D01*
X30653903Y12486799D01*
X30657629Y12488492D01*
X30662708Y12490524D01*
X30668463Y12492555D01*
X30674896Y12494248D01*
X30682007Y12495602D01*
X30689456Y12495941D01*
X30691147D01*
X30693179Y12495602D01*
D02*
G37*
G36*
X30305841D02*
X30308212D01*
X30311597Y12494925D01*
X30314984Y12494587D01*
X30319046Y12493571D01*
X30323447Y12492555D01*
X30328189Y12490862D01*
X30333267Y12489169D01*
X30338007Y12486799D01*
X30343085Y12484091D01*
X30348166Y12480705D01*
X30352905Y12476980D01*
X30357645Y12472579D01*
X30362045Y12467500D01*
X30362384Y12467162D01*
X30362723Y12466484D01*
X30363739Y12465130D01*
X30365094Y12463099D01*
X30366449Y12461067D01*
X30368140Y12458020D01*
X30369833Y12454973D01*
X30371866Y12451587D01*
X30373557Y12447524D01*
X30375250Y12443122D01*
X30378299Y12433642D01*
X30379654Y12428563D01*
X30380667Y12423146D01*
X30381006Y12417729D01*
X30381345Y12411973D01*
Y12411634D01*
Y12410957D01*
Y12409941D01*
Y12408248D01*
X30381006Y12406217D01*
X30380667Y12403847D01*
X30379990Y12398091D01*
X30378638Y12391319D01*
X30376944Y12383870D01*
X30374234Y12375744D01*
X30370511Y12367280D01*
Y12366941D01*
X30370172Y12366264D01*
X30369495Y12365248D01*
X30368481Y12363555D01*
X30366110Y12359492D01*
X30363062Y12354414D01*
X30358661Y12348996D01*
X30353922Y12343240D01*
X30348166Y12337823D01*
X30341394Y12333083D01*
X30341055D01*
X30340717Y12332744D01*
X30339700Y12332067D01*
X30338007Y12331390D01*
X30336313Y12330374D01*
X30334283Y12329697D01*
X30329205Y12327666D01*
X30323111Y12325296D01*
X30316000Y12323603D01*
X30308551Y12322248D01*
X30300085Y12321910D01*
X30298392D01*
X30296701Y12322248D01*
X30293991D01*
X30290945Y12322926D01*
X30287219Y12323603D01*
X30283157Y12324280D01*
X30278754Y12325634D01*
X30274353Y12327327D01*
X30269614Y12329020D01*
X30264536Y12331390D01*
X30259796Y12334437D01*
X30254715Y12337823D01*
X30249976Y12341548D01*
X30245575Y12346288D01*
X30241174Y12351366D01*
X30240833Y12351705D01*
X30240497Y12352382D01*
X30239481Y12353737D01*
X30238464Y12355768D01*
X30237109Y12358138D01*
X30235416Y12360847D01*
X30233725Y12363894D01*
X30232031Y12367618D01*
X30230338Y12371681D01*
X30228644Y12375744D01*
X30225598Y12385225D01*
X30223566Y12396059D01*
X30223227Y12401477D01*
X30222888Y12407232D01*
Y12407571D01*
Y12408248D01*
Y12409603D01*
X30223227Y12411295D01*
Y12413327D01*
X30223566Y12415697D01*
X30224243Y12421453D01*
X30225598Y12428225D01*
X30227628Y12435673D01*
X30230338Y12443799D01*
X30234061Y12452264D01*
Y12452602D01*
X30234741Y12453280D01*
X30235077Y12454295D01*
X30236093Y12455988D01*
X30238464Y12460051D01*
X30241849Y12464791D01*
X30246252Y12470209D01*
X30251331Y12475626D01*
X30257086Y12480705D01*
X30263519Y12485106D01*
X30263858D01*
X30264197Y12485445D01*
X30265213Y12486122D01*
X30266565Y12486799D01*
X30270291Y12488492D01*
X30275369Y12490524D01*
X30281125Y12492555D01*
X30287558Y12494248D01*
X30294669Y12495602D01*
X30302118Y12495941D01*
X30303809D01*
X30305841Y12495602D01*
D02*
G37*
%LPC*%
G36*
X31257257Y12555531D02*
X31255563D01*
X31253534Y12555193D01*
X31250824D01*
X31247437Y12554516D01*
X31243713Y12553838D01*
X31238974Y12553161D01*
X31233896Y12551807D01*
Y12450910D01*
X31234235D01*
X31235587Y12450571D01*
X31237280Y12450232D01*
X31239313Y12449894D01*
X31242020Y12449555D01*
X31244730Y12449217D01*
X31250485Y12448201D01*
X31251840D01*
X31253195Y12447862D01*
X31254886D01*
X31258951Y12447524D01*
X31264706D01*
X31266061Y12447862D01*
X31269785Y12448201D01*
X31274185Y12449217D01*
X31278928Y12450910D01*
X31284344Y12453618D01*
X31289761Y12457004D01*
X31295178Y12461744D01*
Y12462083D01*
X31295856Y12462421D01*
X31297211Y12464453D01*
X31299579Y12467500D01*
X31301950Y12471902D01*
X31304321Y12477319D01*
X31306689Y12483752D01*
X31308044Y12490862D01*
X31308722Y12498988D01*
Y12499327D01*
Y12499665D01*
Y12501697D01*
X31308383Y12504744D01*
X31308044Y12508807D01*
X31307028Y12513209D01*
X31306012Y12518287D01*
X31304321Y12523366D01*
X31302289Y12528445D01*
X31301950Y12529122D01*
X31301273Y12530815D01*
X31299579Y12533185D01*
X31297549Y12536232D01*
X31294839Y12539279D01*
X31291794Y12542665D01*
X31288068Y12546051D01*
X31284006Y12548760D01*
X31283328Y12549098D01*
X31281973Y12549776D01*
X31279605Y12550791D01*
X31276218Y12552146D01*
X31272156Y12553500D01*
X31267752Y12554516D01*
X31262674Y12555193D01*
X31257257Y12555531D01*
D02*
G37*
G36*
X30079669Y12558240D02*
X30070526D01*
X30067142Y12557901D01*
X30062741D01*
X30057999Y12557224D01*
X30052582Y12556547D01*
X30046826Y12555531D01*
X30041409Y12554177D01*
Y12461067D01*
X30041748D01*
X30042426Y12460728D01*
X30043781D01*
X30045810Y12460390D01*
X30047842Y12460051D01*
X30050552Y12459713D01*
X30056308Y12459036D01*
X30061725D01*
X30064432Y12458697D01*
X30079330D01*
X30081363Y12459036D01*
X30084070D01*
X30089828Y12459374D01*
X30096259Y12460051D01*
X30102692Y12461067D01*
X30108786Y12462421D01*
X30114203Y12464114D01*
X30114883Y12464453D01*
X30116235Y12465130D01*
X30118607Y12466484D01*
X30121652Y12468516D01*
X30125040Y12470886D01*
X30128424Y12473933D01*
X30131473Y12477319D01*
X30134518Y12481382D01*
X30134857Y12482059D01*
X30135535Y12483413D01*
X30136890Y12485784D01*
X30138245Y12488831D01*
X30139261Y12492555D01*
X30140613Y12496957D01*
X30141290Y12501697D01*
X30141629Y12506776D01*
Y12507114D01*
Y12507791D01*
Y12508807D01*
X30141290Y12510500D01*
X30140613Y12514224D01*
X30139597Y12519303D01*
X30137228Y12525059D01*
X30134180Y12531153D01*
X30132150Y12534201D01*
X30129779Y12537248D01*
X30127072Y12540295D01*
X30124023Y12543004D01*
X30123685Y12543342D01*
X30123346Y12543681D01*
X30122330Y12544358D01*
X30120975Y12545374D01*
X30118945Y12546390D01*
X30116913Y12547744D01*
X30114203Y12549098D01*
X30111157Y12550791D01*
X30107770Y12552146D01*
X30104047Y12553500D01*
X30099985Y12554854D01*
X30095581Y12555870D01*
X30090503Y12556886D01*
X30085425Y12557563D01*
X30079669Y12558240D01*
D02*
G37*
G36*
X30072897Y12445831D02*
X30063416D01*
X30060031Y12445492D01*
X30053937Y12445154D01*
X30051227D01*
X30049536Y12444815D01*
X30045471Y12444477D01*
X30041409Y12444138D01*
Y12344595D01*
X30041748D01*
X30042426Y12344256D01*
X30043442D01*
X30045135Y12343918D01*
X30046826Y12343579D01*
X30048859Y12343240D01*
X30054276Y12342225D01*
X30060370Y12341209D01*
X30067480Y12340532D01*
X30074930Y12340193D01*
X30082379Y12339855D01*
X30085425D01*
X30087796Y12340193D01*
X30090503D01*
X30093552Y12340532D01*
X30096936Y12341209D01*
X30100662Y12341548D01*
X30108786Y12343579D01*
X30117252Y12345949D01*
X30125040Y12349674D01*
X30128763Y12351705D01*
X30132150Y12354414D01*
X30132489Y12354752D01*
X30132825Y12355091D01*
X30134857Y12357122D01*
X30137567Y12360170D01*
X30140952Y12364233D01*
X30144000Y12369650D01*
X30146707Y12375744D01*
X30148740Y12382516D01*
X30149078Y12386240D01*
X30149417Y12390303D01*
Y12390981D01*
Y12392673D01*
X30149078Y12395382D01*
X30148401Y12399107D01*
X30147385Y12403170D01*
X30146030Y12407910D01*
X30144000Y12412650D01*
X30141290Y12417390D01*
X30140952Y12418067D01*
X30139597Y12419421D01*
X30137906Y12422130D01*
X30135196Y12424839D01*
X30131473Y12428225D01*
X30127072Y12431610D01*
X30121991Y12434996D01*
X30115897Y12438043D01*
X30115558D01*
X30115219Y12438382D01*
X30114203Y12438721D01*
X30112851Y12439398D01*
X30111157Y12439736D01*
X30109125Y12440414D01*
X30104047Y12442106D01*
X30097952Y12443461D01*
X30090503Y12444477D01*
X30082040Y12445492D01*
X30072897Y12445831D01*
D02*
G37*
G36*
X31466840Y12424839D02*
X31466501D01*
X31465823Y12424500D01*
X31464130Y12423823D01*
X31462439Y12423146D01*
X31460406Y12422130D01*
X31457697Y12421114D01*
X31452280Y12418744D01*
X31446185Y12416374D01*
X31440430Y12413666D01*
X31435352Y12411295D01*
X31433319Y12410280D01*
X31431628Y12409264D01*
X31430951Y12408925D01*
X31429257Y12407910D01*
X31426886Y12406217D01*
X31423840Y12404185D01*
X31420453Y12401815D01*
X31417068Y12399107D01*
X31414020Y12396059D01*
X31411313Y12392673D01*
X31410974Y12392335D01*
X31410297Y12391319D01*
X31409619Y12389626D01*
X31408603Y12387256D01*
X31407248Y12384547D01*
X31406573Y12381162D01*
X31405896Y12377776D01*
X31405557Y12374051D01*
Y12373374D01*
Y12372020D01*
X31405896Y12369650D01*
X31406573Y12366603D01*
X31407248Y12363217D01*
X31408603Y12359492D01*
X31410635Y12356107D01*
X31413004Y12352721D01*
X31413345Y12352382D01*
X31414359Y12351366D01*
X31416052Y12350012D01*
X31418085Y12348658D01*
X31420792Y12346965D01*
X31423840Y12345611D01*
X31427225Y12344595D01*
X31430951Y12344256D01*
X31431628D01*
X31433319Y12344595D01*
X31436368Y12345272D01*
X31440430Y12346626D01*
X31445508Y12348658D01*
X31451941Y12351705D01*
X31455328Y12353737D01*
X31459052Y12356445D01*
X31462778Y12359154D01*
X31466840Y12362201D01*
Y12424839D01*
D02*
G37*
G36*
X31849438Y12483075D02*
X31848761D01*
X31847067Y12482736D01*
X31844019Y12482398D01*
X31840634Y12481721D01*
X31836234Y12480028D01*
X31831830Y12477996D01*
X31827090Y12475287D01*
X31822690Y12471224D01*
X31822351Y12470547D01*
X31820657Y12469193D01*
X31818964Y12466484D01*
X31816595Y12463099D01*
X31814224Y12458358D01*
X31811856Y12452941D01*
X31810162Y12446508D01*
X31809146Y12439398D01*
X31885327D01*
Y12439736D01*
Y12440075D01*
X31884988Y12442106D01*
Y12444815D01*
X31884311Y12447862D01*
X31883295Y12455311D01*
X31882281Y12458697D01*
X31881265Y12461406D01*
X31880927Y12461744D01*
X31880588Y12463099D01*
X31879572Y12464791D01*
X31877878Y12467162D01*
X31876184Y12469870D01*
X31873816Y12472579D01*
X31871106Y12474949D01*
X31868060Y12477319D01*
X31867722Y12477658D01*
X31866705Y12478335D01*
X31864673Y12479012D01*
X31862302Y12480366D01*
X31859595Y12481382D01*
X31856546Y12482059D01*
X31853162Y12482736D01*
X31849438Y12483075D01*
D02*
G37*
G36*
X30684039Y12484429D02*
X30682346D01*
X30680313Y12484091D01*
X30677942Y12483752D01*
X30674896Y12483075D01*
X30671848Y12482059D01*
X30668463Y12480705D01*
X30664740Y12478673D01*
X30664401Y12478335D01*
X30663046Y12477658D01*
X30661353Y12475965D01*
X30659320Y12473933D01*
X30656613Y12471224D01*
X30654242Y12467839D01*
X30651535Y12463776D01*
X30649164Y12458697D01*
X30648825Y12458020D01*
X30648148Y12456327D01*
X30647470Y12453280D01*
X30646454Y12448878D01*
X30645102Y12443799D01*
X30644424Y12437705D01*
X30643747Y12430595D01*
X30643408Y12422469D01*
Y12422130D01*
Y12420776D01*
Y12419083D01*
X30643747Y12416374D01*
Y12413327D01*
X30644086Y12409603D01*
X30644763Y12405540D01*
X30645102Y12401138D01*
X30646793Y12391658D01*
X30649503Y12381162D01*
X30652887Y12370666D01*
X30657629Y12360508D01*
X30657968Y12360170D01*
X30658307Y12359492D01*
X30658984Y12358138D01*
X30660336Y12356445D01*
X30663385Y12352382D01*
X30667786Y12347642D01*
X30673203Y12342902D01*
X30679636Y12338839D01*
X30683023Y12337146D01*
X30686746Y12335792D01*
X30690811Y12335115D01*
X30695212Y12334776D01*
X30696906D01*
X30698257Y12335115D01*
X30701306Y12335453D01*
X30705368Y12336469D01*
X30710110Y12338162D01*
X30714850Y12340870D01*
X30719589Y12344256D01*
X30723990Y12348996D01*
Y12349335D01*
X30724329Y12349674D01*
X30725006Y12350689D01*
X30725684Y12351705D01*
X30726700Y12353398D01*
X30727716Y12355429D01*
X30728732Y12357800D01*
X30729745Y12360508D01*
X30730762Y12363555D01*
X30731778Y12367280D01*
X30732794Y12371343D01*
X30733810Y12375744D01*
X30734488Y12380485D01*
X30735165Y12385902D01*
X30735501Y12391658D01*
Y12398091D01*
Y12398768D01*
Y12400122D01*
Y12402492D01*
X30735165Y12405540D01*
X30734824Y12408925D01*
X30734488Y12413327D01*
X30733810Y12418067D01*
X30733133Y12423146D01*
X30730762Y12434319D01*
X30727377Y12445831D01*
X30725345Y12451587D01*
X30722974Y12457004D01*
X30719928Y12462421D01*
X30716541Y12467162D01*
Y12467500D01*
X30715866Y12467839D01*
X30714172Y12469870D01*
X30711462Y12472579D01*
X30707739Y12475965D01*
X30703000Y12479012D01*
X30697580Y12481721D01*
X30691147Y12483752D01*
X30687762Y12484091D01*
X30684039Y12484429D01*
D02*
G37*
G36*
X30296701D02*
X30295007D01*
X30292975Y12484091D01*
X30290607Y12483752D01*
X30287558Y12483075D01*
X30284512Y12482059D01*
X30281125Y12480705D01*
X30277402Y12478673D01*
X30277063Y12478335D01*
X30275708Y12477658D01*
X30274014Y12475965D01*
X30271985Y12473933D01*
X30269275Y12471224D01*
X30266904Y12467839D01*
X30264197Y12463776D01*
X30261826Y12458697D01*
X30261487Y12458020D01*
X30260809Y12456327D01*
X30260132Y12453280D01*
X30259119Y12448878D01*
X30257764Y12443799D01*
X30257086Y12437705D01*
X30256409Y12430595D01*
X30256070Y12422469D01*
Y12422130D01*
Y12420776D01*
Y12419083D01*
X30256409Y12416374D01*
Y12413327D01*
X30256747Y12409603D01*
X30257425Y12405540D01*
X30257764Y12401138D01*
X30259457Y12391658D01*
X30262164Y12381162D01*
X30265552Y12370666D01*
X30270291Y12360508D01*
X30270630Y12360170D01*
X30270969Y12359492D01*
X30271646Y12358138D01*
X30272998Y12356445D01*
X30276047Y12352382D01*
X30280447Y12347642D01*
X30285867Y12342902D01*
X30292300Y12338839D01*
X30295685Y12337146D01*
X30299408Y12335792D01*
X30303473Y12335115D01*
X30307874Y12334776D01*
X30309567D01*
X30310922Y12335115D01*
X30313968Y12335453D01*
X30318030Y12336469D01*
X30322772Y12338162D01*
X30327512Y12340870D01*
X30332251Y12344256D01*
X30336652Y12348996D01*
Y12349335D01*
X30336990Y12349674D01*
X30337668Y12350689D01*
X30338345Y12351705D01*
X30339362Y12353398D01*
X30340378Y12355429D01*
X30341394Y12357800D01*
X30342410Y12360508D01*
X30343423Y12363555D01*
X30344440Y12367280D01*
X30345456Y12371343D01*
X30346472Y12375744D01*
X30347150Y12380485D01*
X30347827Y12385902D01*
X30348166Y12391658D01*
Y12398091D01*
Y12398768D01*
Y12400122D01*
Y12402492D01*
X30347827Y12405540D01*
X30347488Y12408925D01*
X30347150Y12413327D01*
X30346472Y12418067D01*
X30345795Y12423146D01*
X30343423Y12434319D01*
X30340039Y12445831D01*
X30338007Y12451587D01*
X30335638Y12457004D01*
X30332590Y12462421D01*
X30329205Y12467162D01*
Y12467500D01*
X30328528Y12467839D01*
X30326834Y12469870D01*
X30324124Y12472579D01*
X30320401Y12475965D01*
X30315662Y12479012D01*
X30310242Y12481721D01*
X30303809Y12483752D01*
X30300424Y12484091D01*
X30296701Y12484429D01*
D02*
G37*
%LPD*%
%TF.MD5,7315d78d9610f601c0d94cdb8aae82d3*%
M02*
