%TF.GenerationSoftware,Altium Limited,Altium Designer,21.3.0 (21)*%
G04 Layer_Physical_Order=1*
G04 Layer_Color=255*
%FSLAX45Y45*%
%MOMM*%
%TF.SameCoordinates,798F48EE-B9F3-42F3-8741-5E889E50E555*%
%TF.FilePolarity,Positive*%
%TF.FileFunction,Copper,L1,Top,Signal*%
%TF.Part,Single*%
G01*
G75*
%TA.AperFunction,SMDPad,CuDef*%
G04:AMPARAMS|DCode=10|XSize=0.6mm|YSize=1.778mm|CornerRadius=0.06mm|HoleSize=0mm|Usage=FLASHONLY|Rotation=180.000|XOffset=0mm|YOffset=0mm|HoleType=Round|Shape=RoundedRectangle|*
%AMROUNDEDRECTD10*
21,1,0.60000,1.65800,0,0,180.0*
21,1,0.48000,1.77800,0,0,180.0*
1,1,0.12000,-0.24000,0.82900*
1,1,0.12000,0.24000,0.82900*
1,1,0.12000,0.24000,-0.82900*
1,1,0.12000,-0.24000,-0.82900*
%
%ADD10ROUNDEDRECTD10*%
G04:AMPARAMS|DCode=11|XSize=2.286mm|YSize=2.032mm|CornerRadius=0.2032mm|HoleSize=0mm|Usage=FLASHONLY|Rotation=0.000|XOffset=0mm|YOffset=0mm|HoleType=Round|Shape=RoundedRectangle|*
%AMROUNDEDRECTD11*
21,1,2.28600,1.62560,0,0,0.0*
21,1,1.87960,2.03200,0,0,0.0*
1,1,0.40640,0.93980,-0.81280*
1,1,0.40640,-0.93980,-0.81280*
1,1,0.40640,-0.93980,0.81280*
1,1,0.40640,0.93980,0.81280*
%
%ADD11ROUNDEDRECTD11*%
G04:AMPARAMS|DCode=12|XSize=1.8mm|YSize=1.1mm|CornerRadius=0.11mm|HoleSize=0mm|Usage=FLASHONLY|Rotation=0.000|XOffset=0mm|YOffset=0mm|HoleType=Round|Shape=RoundedRectangle|*
%AMROUNDEDRECTD12*
21,1,1.80000,0.88000,0,0,0.0*
21,1,1.58000,1.10000,0,0,0.0*
1,1,0.22000,0.79000,-0.44000*
1,1,0.22000,-0.79000,-0.44000*
1,1,0.22000,-0.79000,0.44000*
1,1,0.22000,0.79000,0.44000*
%
%ADD12ROUNDEDRECTD12*%
G04:AMPARAMS|DCode=13|XSize=1.4mm|YSize=1.2mm|CornerRadius=0.12mm|HoleSize=0mm|Usage=FLASHONLY|Rotation=0.000|XOffset=0mm|YOffset=0mm|HoleType=Round|Shape=RoundedRectangle|*
%AMROUNDEDRECTD13*
21,1,1.40000,0.96000,0,0,0.0*
21,1,1.16000,1.20000,0,0,0.0*
1,1,0.24000,0.58000,-0.48000*
1,1,0.24000,-0.58000,-0.48000*
1,1,0.24000,-0.58000,0.48000*
1,1,0.24000,0.58000,0.48000*
%
%ADD13ROUNDEDRECTD13*%
%TA.AperFunction,Conductor*%
%ADD14C,0.50800*%
%ADD15C,0.25400*%
%ADD16C,0.76200*%
%TA.AperFunction,ComponentPad*%
%ADD17C,2.70000*%
%ADD18R,2.70000X2.70000*%
%ADD19C,1.70000*%
%ADD20R,1.70000X1.70000*%
%ADD21R,1.70000X1.70000*%
%TA.AperFunction,ViaPad*%
%ADD22C,1.27000*%
G36*
X30175827Y12549945D02*
X30168716D01*
Y12550283D01*
Y12550622D01*
X30168378Y12552315D01*
X30168039Y12555023D01*
X30167361Y12558409D01*
X30166006Y12565519D01*
X30164993Y12568905D01*
X30163638Y12571614D01*
X30163300Y12571953D01*
X30162622Y12573307D01*
X30161267Y12575000D01*
X30159573Y12577370D01*
X30157544Y12579740D01*
X30154834Y12582449D01*
X30152127Y12584819D01*
X30148740Y12586850D01*
X30148401Y12587189D01*
X30147046Y12587527D01*
X30145016Y12588543D01*
X30142307Y12589559D01*
X30138922Y12590236D01*
X30134518Y12591252D01*
X30129779Y12591590D01*
X30124362Y12591929D01*
X30090503D01*
Y12406047D01*
Y12405709D01*
Y12405032D01*
Y12404016D01*
Y12402323D01*
X30090842Y12398599D01*
X30091180Y12394197D01*
X30091519Y12389457D01*
X30092535Y12385055D01*
X30093552Y12380992D01*
X30094568Y12379638D01*
X30095245Y12378284D01*
X30095581Y12377945D01*
X30096597Y12377268D01*
X30098291Y12375914D01*
X30100323Y12374559D01*
X30103369Y12373205D01*
X30107095Y12371851D01*
X30111157Y12371173D01*
X30116235Y12370835D01*
X30124701D01*
Y12364063D01*
X30021094D01*
Y12370835D01*
X30032269D01*
X30034976Y12371173D01*
X30038361Y12371851D01*
X30041748Y12373205D01*
X30045471Y12374559D01*
X30048859Y12376929D01*
X30051904Y12379977D01*
X30052243Y12380315D01*
X30052582Y12381331D01*
X30053259Y12383024D01*
X30053937Y12385394D01*
X30054614Y12388780D01*
X30055292Y12393520D01*
X30055969Y12398937D01*
Y12402323D01*
Y12406047D01*
Y12591929D01*
X30020755D01*
X30017032Y12591590D01*
X30009244Y12590913D01*
X30005521Y12590236D01*
X30002472Y12589220D01*
X30002133D01*
X30000778Y12588543D01*
X29999088Y12587527D01*
X29997055Y12586173D01*
X29994345Y12584480D01*
X29991638Y12582110D01*
X29988928Y12579401D01*
X29986221Y12576015D01*
X29985883Y12575677D01*
X29985205Y12574323D01*
X29984189Y12572291D01*
X29982834Y12569244D01*
X29981479Y12565519D01*
X29980466Y12561118D01*
X29979449Y12555701D01*
X29978772Y12549945D01*
X29972000D01*
X29974371Y12607165D01*
X30173456D01*
X30175827Y12549945D01*
D02*
G37*
G36*
X31482077Y12532677D02*
X31484445Y12532338D01*
X31486816Y12531661D01*
X31489862Y12530307D01*
X31492572Y12528953D01*
X31494943Y12526921D01*
X31495279Y12526583D01*
X31495959Y12525905D01*
X31496973Y12524551D01*
X31498328Y12522858D01*
X31499683Y12520827D01*
X31500699Y12518457D01*
X31501376Y12515748D01*
X31501712Y12513039D01*
Y12512701D01*
Y12512023D01*
X31501376Y12510669D01*
X31501035Y12508976D01*
X31499683Y12504913D01*
X31498666Y12503220D01*
X31496973Y12501189D01*
X31496634Y12500850D01*
X31496295Y12500512D01*
X31495279Y12499835D01*
X31493927Y12498819D01*
X31490201Y12497126D01*
X31488171Y12496787D01*
X31485800Y12496449D01*
X31484784D01*
X31483429Y12496787D01*
X31481738Y12497126D01*
X31479367Y12497803D01*
X31476996Y12499157D01*
X31474289Y12500512D01*
X31471579Y12502543D01*
X31471240Y12502882D01*
X31470224Y12503559D01*
X31468872Y12504575D01*
X31467178Y12505929D01*
X31463455Y12507961D01*
X31461761Y12508638D01*
X31460068Y12508976D01*
X31459390D01*
X31458035Y12508638D01*
X31456006Y12507283D01*
X31454651Y12506606D01*
X31453296Y12505252D01*
X31452957Y12504913D01*
X31451941Y12503898D01*
X31450250Y12501866D01*
X31448218Y12499496D01*
X31445847Y12496110D01*
X31442801Y12491709D01*
X31439752Y12486630D01*
X31436707Y12480874D01*
Y12402323D01*
Y12401646D01*
Y12399953D01*
X31437045Y12397583D01*
Y12394536D01*
X31438062Y12387764D01*
X31439075Y12384378D01*
X31440091Y12381669D01*
Y12381331D01*
X31440430Y12380992D01*
X31442123Y12378961D01*
X31444492Y12376252D01*
X31448218Y12373543D01*
X31448557D01*
X31449234Y12373205D01*
X31450589Y12372528D01*
X31452618Y12372189D01*
X31454990Y12371512D01*
X31458035Y12370835D01*
X31461423Y12370496D01*
X31465485D01*
Y12364063D01*
X31381177D01*
Y12370496D01*
X31383209D01*
X31385242Y12370835D01*
X31387949D01*
X31394043Y12372189D01*
X31397092Y12372866D01*
X31399463Y12374221D01*
X31399799D01*
X31400140Y12374898D01*
X31402170Y12376591D01*
X31404202Y12379638D01*
X31405896Y12383701D01*
Y12384039D01*
X31406232Y12384378D01*
Y12385394D01*
X31406573Y12387087D01*
Y12389457D01*
X31406912Y12392504D01*
Y12396228D01*
Y12401307D01*
Y12464622D01*
Y12464961D01*
Y12465976D01*
Y12467331D01*
Y12469024D01*
Y12471394D01*
Y12473764D01*
Y12479520D01*
X31406573Y12485276D01*
X31406232Y12491031D01*
Y12493401D01*
X31405896Y12495433D01*
Y12497126D01*
X31405557Y12498480D01*
Y12498819D01*
X31405219Y12499496D01*
X31404541Y12501527D01*
X31403186Y12504236D01*
X31401154Y12506606D01*
X31400476Y12506945D01*
X31399124Y12507961D01*
X31396753Y12508638D01*
X31393365Y12508976D01*
X31391336D01*
X31389642Y12508638D01*
X31385919Y12507961D01*
X31380841Y12506606D01*
X31379147Y12513039D01*
X31428918Y12533016D01*
X31436707D01*
Y12495772D01*
X31437045Y12496110D01*
X31437720Y12497464D01*
X31438736Y12499157D01*
X31440091Y12501527D01*
X31442123Y12504575D01*
X31444156Y12507622D01*
X31449573Y12514394D01*
X31456006Y12521165D01*
X31459390Y12524551D01*
X31463116Y12527260D01*
X31466840Y12529630D01*
X31470563Y12531323D01*
X31474628Y12532677D01*
X31478690Y12533016D01*
X31480383D01*
X31482077Y12532677D01*
D02*
G37*
G36*
X30481903D02*
X30483936Y12532338D01*
X30486646Y12532000D01*
X30492401Y12530645D01*
X30498834Y12528275D01*
X30502219Y12526583D01*
X30505606Y12524890D01*
X30509329Y12522520D01*
X30512714Y12519811D01*
X30516101Y12516764D01*
X30519150Y12513378D01*
X30519489Y12513039D01*
X30520163Y12512362D01*
X30521179Y12511008D01*
X30522195Y12508976D01*
X30523889Y12506606D01*
X30525583Y12503898D01*
X30527274Y12500512D01*
X30529306Y12496787D01*
X30531339Y12492724D01*
X30533029Y12487984D01*
X30534723Y12482905D01*
X30536417Y12477488D01*
X30537433Y12471394D01*
X30538449Y12465299D01*
X30539124Y12458866D01*
X30539462Y12451756D01*
Y12451417D01*
Y12450063D01*
Y12447693D01*
X30539124Y12444646D01*
X30538785Y12441260D01*
X30538110Y12436858D01*
X30537433Y12432118D01*
X30536417Y12427039D01*
X30535062Y12421622D01*
X30533368Y12416205D01*
X30531339Y12410110D01*
X30528967Y12404354D01*
X30526260Y12398599D01*
X30522873Y12392504D01*
X30519150Y12387087D01*
X30514746Y12381669D01*
X30514407Y12381331D01*
X30513730Y12380654D01*
X30512714Y12379638D01*
X30511023Y12378284D01*
X30509329Y12376252D01*
X30506961Y12374559D01*
X30503912Y12372528D01*
X30500864Y12370496D01*
X30497479Y12368126D01*
X30493756Y12366095D01*
X30484952Y12362709D01*
X30480212Y12361016D01*
X30475134Y12360000D01*
X30470053Y12359323D01*
X30464297Y12358984D01*
X30461929D01*
X30459558Y12359323D01*
X30456512Y12359662D01*
X30452786Y12360000D01*
X30449063Y12360677D01*
X30444998Y12361693D01*
X30441275Y12363047D01*
X30440936D01*
X30439920Y12363725D01*
X30438565Y12364402D01*
X30436536Y12365417D01*
X30434164Y12366772D01*
X30431458Y12368465D01*
X30428748Y12370835D01*
X30425360Y12373543D01*
Y12323433D01*
Y12323095D01*
Y12322756D01*
Y12320725D01*
Y12318016D01*
X30425699Y12314630D01*
Y12310906D01*
X30426376Y12307520D01*
X30426715Y12304473D01*
X30427393Y12302103D01*
Y12301764D01*
X30427731Y12301425D01*
X30429086Y12299394D01*
X30431116Y12297024D01*
X30434503Y12294654D01*
X30434842D01*
X30435519Y12294315D01*
X30436874Y12293977D01*
X30438904Y12293300D01*
X30441275Y12292961D01*
X30444659Y12292284D01*
X30448386Y12291945D01*
X30453125D01*
Y12285512D01*
X30367126D01*
Y12291945D01*
X30373221D01*
X30374911Y12292284D01*
X30377283Y12292622D01*
X30382700Y12293638D01*
X30385410Y12294654D01*
X30388116Y12296008D01*
X30388794Y12296347D01*
X30390149Y12297363D01*
X30391843Y12299394D01*
X30393536Y12302103D01*
Y12302441D01*
X30393872Y12303118D01*
X30394211Y12304473D01*
X30394550Y12306504D01*
X30394888Y12309551D01*
X30395227Y12313276D01*
X30395566Y12318355D01*
Y12324449D01*
Y12480197D01*
Y12480535D01*
Y12480874D01*
Y12482905D01*
Y12485614D01*
X30395227Y12488661D01*
Y12492047D01*
X30394888Y12495433D01*
X30394550Y12498142D01*
X30393872Y12500173D01*
Y12500512D01*
X30393536Y12500850D01*
X30392856Y12502543D01*
X30391165Y12504913D01*
X30389133Y12506606D01*
X30388455Y12506945D01*
X30387103Y12507961D01*
X30384393Y12508638D01*
X30380667Y12508976D01*
X30378976D01*
X30377960Y12508638D01*
X30374234Y12507961D01*
X30369833Y12506606D01*
X30367801Y12512362D01*
X30418250Y12532338D01*
X30425360D01*
Y12494417D01*
X30426038Y12495094D01*
X30426715Y12496110D01*
X30427393Y12497464D01*
X30430099Y12501189D01*
X30433148Y12505929D01*
X30437213Y12510669D01*
X30441275Y12515748D01*
X30446014Y12520488D01*
X30450754Y12524212D01*
X30451431Y12524551D01*
X30453125Y12525567D01*
X30455496Y12526921D01*
X30458881Y12528614D01*
X30462943Y12530307D01*
X30467685Y12531661D01*
X30472763Y12532677D01*
X30477841Y12533016D01*
X30480212D01*
X30481903Y12532677D01*
D02*
G37*
G36*
X31211887Y12521842D02*
X31211548D01*
X31210873Y12521504D01*
X31209518D01*
X31208163Y12521165D01*
X31204776Y12520149D01*
X31201730Y12518795D01*
X31201053Y12518457D01*
X31199359Y12517102D01*
X31196991Y12514394D01*
X31195297Y12512701D01*
X31193942Y12510669D01*
X31193604Y12509992D01*
X31193265Y12509315D01*
X31192587Y12507961D01*
X31191571Y12506268D01*
X31190558Y12503898D01*
X31189542Y12500850D01*
X31187848Y12497126D01*
X31120810Y12333252D01*
Y12332914D01*
X31120471Y12332236D01*
X31119794Y12330882D01*
X31119116Y12329528D01*
X31118100Y12327496D01*
X31117084Y12325126D01*
X31114038Y12320047D01*
X31110312Y12313953D01*
X31106250Y12308197D01*
X31101172Y12302441D01*
X31095416Y12297363D01*
X31094739Y12296685D01*
X31092706Y12295331D01*
X31089658Y12293300D01*
X31085934Y12291268D01*
X31081195Y12288898D01*
X31076453Y12286866D01*
X31071036Y12285512D01*
X31065619Y12284835D01*
X31063928D01*
X31061896Y12285174D01*
X31059525Y12285512D01*
X31056818Y12286528D01*
X31053769Y12287544D01*
X31051062Y12289237D01*
X31048352Y12291268D01*
X31048013Y12291607D01*
X31047336Y12292284D01*
X31046320Y12293638D01*
X31044965Y12295331D01*
X31043613Y12297363D01*
X31042596Y12299733D01*
X31041919Y12302441D01*
X31041580Y12305150D01*
Y12305488D01*
Y12306504D01*
X31041919Y12307859D01*
X31042258Y12309551D01*
X31043613Y12313614D01*
X31044629Y12315307D01*
X31046320Y12317339D01*
X31046658Y12317677D01*
X31047336Y12318016D01*
X31048352Y12318693D01*
X31049707Y12319709D01*
X31051740Y12320386D01*
X31054108Y12321063D01*
X31056818Y12321402D01*
X31059863Y12321740D01*
X31060880D01*
X31062234Y12321402D01*
X31063928D01*
X31066296Y12320725D01*
X31069006Y12320047D01*
X31072052Y12319370D01*
X31075778Y12318016D01*
X31076117D01*
X31076794Y12317677D01*
X31078146Y12317339D01*
X31079501Y12316662D01*
X31082550Y12315646D01*
X31083566Y12315307D01*
X31085596D01*
X31086612Y12315646D01*
X31087967Y12315985D01*
X31089999Y12316662D01*
X31092029Y12317677D01*
X31094061Y12319032D01*
X31096432Y12321063D01*
X31096768Y12321402D01*
X31097446Y12322079D01*
X31098801Y12323772D01*
X31100494Y12325803D01*
X31102524Y12328512D01*
X31104556Y12332236D01*
X31106927Y12336977D01*
X31109296Y12342394D01*
X31120810Y12370835D01*
X31061896Y12494079D01*
Y12494417D01*
X31061557Y12495094D01*
X31060880Y12496449D01*
X31059863Y12498142D01*
X31058511Y12500173D01*
X31057156Y12502543D01*
X31053430Y12507961D01*
X31053091Y12508299D01*
X31052753Y12508976D01*
X31051740Y12509992D01*
X31050723Y12511346D01*
X31048352Y12514394D01*
X31046997Y12515748D01*
X31045981Y12516764D01*
X31045645D01*
X31045306Y12517102D01*
X31044290Y12517779D01*
X31042935Y12518457D01*
X31040903Y12519134D01*
X31038873Y12520149D01*
X31035825Y12520827D01*
X31032776Y12521842D01*
Y12528275D01*
X31109296D01*
Y12521842D01*
X31104218D01*
X31102863Y12521504D01*
X31101172D01*
X31097107Y12520149D01*
X31095078Y12519472D01*
X31093384Y12518118D01*
X31092706Y12517441D01*
X31091351Y12515748D01*
X31089999Y12513039D01*
X31089658Y12511346D01*
X31089322Y12509315D01*
Y12508976D01*
Y12507961D01*
X31089658Y12506606D01*
X31089999Y12504236D01*
X31090674Y12501527D01*
X31092029Y12498480D01*
X31093384Y12494417D01*
X31095416Y12490016D01*
X31135367Y12407063D01*
X31172272Y12497803D01*
Y12498142D01*
X31172614Y12499157D01*
X31173288Y12500512D01*
X31173965Y12502543D01*
X31174982Y12506945D01*
X31175320Y12512362D01*
Y12513039D01*
Y12514394D01*
X31174643Y12516086D01*
X31173965Y12517441D01*
X31173627Y12517779D01*
X31172949Y12518457D01*
X31171597Y12519472D01*
X31169565Y12520488D01*
X31168887Y12520827D01*
X31168210D01*
X31167194Y12521165D01*
X31165503Y12521504D01*
X31163809D01*
X31161438Y12521842D01*
X31158731D01*
Y12528275D01*
X31211887D01*
Y12521842D01*
D02*
G37*
G36*
X30761234Y12600393D02*
X30758188D01*
X30754462Y12600055D01*
X30750400D01*
X30745999Y12599378D01*
X30741257Y12598700D01*
X30737195Y12598023D01*
X30733810Y12596669D01*
X30733472D01*
X30732455Y12595992D01*
X30731100Y12595315D01*
X30729745Y12593960D01*
X30726022Y12591252D01*
X30724667Y12589220D01*
X30723312Y12587189D01*
Y12586850D01*
X30722974Y12586173D01*
X30722635Y12584480D01*
X30721960Y12581771D01*
X30721622Y12578386D01*
X30720944Y12573645D01*
Y12570937D01*
X30720605Y12567890D01*
Y12564165D01*
Y12560441D01*
Y12407402D01*
Y12406724D01*
Y12405032D01*
Y12402323D01*
X30720944Y12399276D01*
X30721622Y12392504D01*
X30722299Y12389457D01*
X30723312Y12386748D01*
X30723651Y12386071D01*
X30725006Y12384717D01*
X30727039Y12383024D01*
X30729745Y12381331D01*
X30730084D01*
X30730762Y12380992D01*
X30732455Y12380654D01*
X30735165D01*
X30738550Y12380315D01*
X30740921Y12379977D01*
X30743628D01*
X30746677Y12379638D01*
X30782565D01*
X30785275Y12379977D01*
X30791031Y12380315D01*
X30797464Y12380654D01*
X30803897Y12381331D01*
X30809991Y12382347D01*
X30812360Y12383024D01*
X30814731Y12383701D01*
X30815408Y12384039D01*
X30816763Y12384378D01*
X30818793Y12385394D01*
X30821503Y12387087D01*
X30824887Y12389118D01*
X30828275Y12391488D01*
X30831998Y12394536D01*
X30835385Y12398260D01*
X30835724Y12398599D01*
X30837076Y12400291D01*
X30838770Y12402662D01*
X30841479Y12406386D01*
X30844186Y12411126D01*
X30847235Y12416543D01*
X30850958Y12423654D01*
X30854346Y12431441D01*
X30860101Y12430087D01*
X30839447Y12364063D01*
X30651196D01*
Y12370835D01*
X30662708D01*
X30665417Y12371512D01*
X30668463Y12372189D01*
X30672189Y12373205D01*
X30675912Y12374898D01*
X30679297Y12377268D01*
X30682007Y12380654D01*
X30682346Y12380992D01*
X30682684Y12382008D01*
X30683362Y12383701D01*
X30684039Y12386071D01*
X30684714Y12389795D01*
X30685391Y12394197D01*
X30686069Y12399953D01*
Y12403339D01*
Y12407063D01*
Y12564165D01*
Y12564504D01*
Y12565181D01*
Y12566197D01*
Y12567890D01*
X30685730Y12571614D01*
X30685391Y12576015D01*
X30684714Y12580756D01*
X30684039Y12585496D01*
X30682684Y12589559D01*
X30682007Y12590913D01*
X30680991Y12592267D01*
X30680652Y12592606D01*
X30679636Y12593622D01*
X30677942Y12594976D01*
X30675574Y12596330D01*
X30672864Y12597685D01*
X30669141Y12599039D01*
X30664740Y12600055D01*
X30659998Y12600393D01*
X30651196D01*
Y12607165D01*
X30761234D01*
Y12600393D01*
D02*
G37*
G36*
X30952194Y12532677D02*
X30954565D01*
X30959644Y12532000D01*
X30965060Y12531323D01*
X30971155Y12529968D01*
X30977249Y12527937D01*
X30982666Y12525567D01*
X30983005Y12525228D01*
X30984360Y12524551D01*
X30986392Y12523197D01*
X30988422Y12521165D01*
X30991132Y12518795D01*
X30993839Y12515748D01*
X30996210Y12512362D01*
X30998242Y12508299D01*
Y12507961D01*
X30998920Y12506606D01*
X30999258Y12504575D01*
X30999936Y12501527D01*
X31000613Y12497126D01*
X31000952Y12491709D01*
X31001288Y12488661D01*
X31001627Y12484937D01*
Y12481213D01*
Y12476811D01*
Y12420945D01*
Y12420606D01*
Y12419929D01*
Y12418913D01*
Y12417221D01*
Y12413158D01*
Y12408756D01*
X31001965Y12403677D01*
Y12398937D01*
Y12394874D01*
X31002304Y12393520D01*
Y12392165D01*
Y12391827D01*
X31002643Y12391488D01*
X31002982Y12389457D01*
X31003998Y12387087D01*
X31005353Y12385394D01*
X31005692Y12385055D01*
X31006708Y12384717D01*
X31008060Y12384039D01*
X31010092Y12383701D01*
X31011786D01*
X31013477Y12384039D01*
X31015170Y12384717D01*
X31015509D01*
X31015848Y12385394D01*
X31016864Y12386071D01*
X31018558Y12387425D01*
X31020251Y12389118D01*
X31022958Y12391150D01*
X31026007Y12394197D01*
X31029730Y12397921D01*
Y12387764D01*
X31029391Y12387425D01*
X31028714Y12386748D01*
X31027698Y12385394D01*
X31026343Y12383701D01*
X31024313Y12381669D01*
X31022281Y12379299D01*
X31017203Y12374559D01*
X31011447Y12369480D01*
X31005014Y12365079D01*
X31001627Y12363386D01*
X30998242Y12362032D01*
X30994855Y12361355D01*
X30991470Y12361016D01*
X30990115D01*
X30988422Y12361355D01*
X30986392Y12361693D01*
X30984021Y12362370D01*
X30981653Y12363386D01*
X30979282Y12364740D01*
X30977249Y12366772D01*
X30976910Y12367110D01*
X30976572Y12368126D01*
X30975558Y12369480D01*
X30974881Y12371512D01*
X30973865Y12374559D01*
X30972849Y12377945D01*
X30972510Y12382347D01*
X30972171Y12387425D01*
X30971832Y12387087D01*
X30971155Y12386748D01*
X30969800Y12385732D01*
X30968109Y12384378D01*
X30963708Y12381331D01*
X30958627Y12377268D01*
X30953210Y12373543D01*
X30948132Y12369819D01*
X30943729Y12366772D01*
X30941699Y12365756D01*
X30940344Y12365079D01*
X30940005Y12364740D01*
X30938651Y12364402D01*
X30936621Y12363725D01*
X30934250Y12363047D01*
X30930865Y12362032D01*
X30927478Y12361355D01*
X30923755Y12361016D01*
X30919690Y12360677D01*
X30919016D01*
X30916983Y12361016D01*
X30913596Y12361355D01*
X30909872Y12362032D01*
X30905472Y12363386D01*
X30900729Y12365417D01*
X30895990Y12368465D01*
X30891589Y12372189D01*
X30891251Y12372866D01*
X30889896Y12374221D01*
X30888202Y12376929D01*
X30886172Y12380315D01*
X30884140Y12384717D01*
X30882446Y12389795D01*
X30881094Y12395890D01*
X30880753Y12402662D01*
Y12403339D01*
Y12404693D01*
X30881094Y12407063D01*
X30881430Y12409772D01*
X30882108Y12413158D01*
X30882785Y12416543D01*
X30884140Y12420268D01*
X30885834Y12423654D01*
X30886172Y12424331D01*
X30887186Y12425685D01*
X30889218Y12428055D01*
X30891928Y12431102D01*
X30895312Y12434488D01*
X30899716Y12438213D01*
X30905133Y12442276D01*
X30911566Y12446339D01*
X30911905D01*
X30912582Y12446677D01*
X30913596Y12447354D01*
X30914951Y12448370D01*
X30916983Y12449386D01*
X30919690Y12450740D01*
X30922400Y12452094D01*
X30926123Y12453787D01*
X30929849Y12455480D01*
X30934250Y12457512D01*
X30939328Y12459882D01*
X30944745Y12461913D01*
X30950842Y12464622D01*
X30957275Y12466992D01*
X30964383Y12470039D01*
X30972171Y12472748D01*
Y12479181D01*
Y12479520D01*
Y12480197D01*
Y12481551D01*
Y12483244D01*
X30971832Y12485276D01*
Y12487307D01*
X30971155Y12492386D01*
X30970139Y12498142D01*
X30968784Y12503559D01*
X30967093Y12508638D01*
X30965738Y12510669D01*
X30964383Y12512701D01*
X30964044Y12513039D01*
X30963031Y12514055D01*
X30960999Y12515748D01*
X30958627Y12517441D01*
X30955582Y12519134D01*
X30951517Y12520827D01*
X30947116Y12521842D01*
X30941699Y12522181D01*
X30940005D01*
X30937973Y12521842D01*
X30935266Y12521504D01*
X30932556Y12520488D01*
X30929510Y12519472D01*
X30926462Y12517779D01*
X30923755Y12515748D01*
X30923416Y12515409D01*
X30922739Y12514732D01*
X30921722Y12513378D01*
X30920367Y12511685D01*
X30919016Y12509653D01*
X30917999Y12507283D01*
X30917322Y12504575D01*
X30916983Y12501866D01*
X30917661Y12491370D01*
Y12491031D01*
Y12490016D01*
X30917322Y12488661D01*
X30916983Y12486630D01*
X30915967Y12482567D01*
X30914612Y12480535D01*
X30913257Y12478842D01*
X30912918Y12478504D01*
X30912582Y12478165D01*
X30911566Y12477488D01*
X30910211Y12476811D01*
X30906824Y12475118D01*
X30904456Y12474779D01*
X30902084Y12474441D01*
X30901068D01*
X30899716Y12474779D01*
X30898361Y12475118D01*
X30894974Y12476472D01*
X30892944Y12477488D01*
X30891251Y12478842D01*
Y12479181D01*
X30890573Y12479858D01*
X30889896Y12480874D01*
X30889218Y12482228D01*
X30888541Y12483921D01*
X30887863Y12486291D01*
X30887527Y12489000D01*
X30887186Y12491709D01*
Y12492047D01*
Y12492386D01*
X30887527Y12494417D01*
X30887863Y12497126D01*
X30889218Y12500850D01*
X30890912Y12505252D01*
X30893619Y12509992D01*
X30897684Y12515071D01*
X30900052Y12517441D01*
X30902762Y12519811D01*
X30903101D01*
X30903439Y12520488D01*
X30904456Y12521165D01*
X30905807Y12521842D01*
X30907162Y12522858D01*
X30909195Y12523874D01*
X30911566Y12525228D01*
X30914273Y12526583D01*
X30920367Y12528953D01*
X30927817Y12530984D01*
X30936621Y12532338D01*
X30946777Y12533016D01*
X30950500D01*
X30952194Y12532677D01*
D02*
G37*
G36*
X31308044D02*
X31310416Y12532338D01*
X31313123Y12532000D01*
X31319556Y12530645D01*
X31326666Y12528614D01*
X31334116Y12525228D01*
X31337839Y12523197D01*
X31341565Y12520827D01*
X31345288Y12518118D01*
X31348672Y12514732D01*
X31349014Y12514394D01*
X31349353Y12514055D01*
X31350366Y12512701D01*
X31351382Y12511346D01*
X31352737Y12509653D01*
X31354431Y12507283D01*
X31356122Y12504913D01*
X31357816Y12501866D01*
X31359171Y12498480D01*
X31360864Y12494756D01*
X31362555Y12490693D01*
X31363910Y12486630D01*
X31365942Y12476811D01*
X31366281Y12471394D01*
X31366620Y12465976D01*
X31253195D01*
Y12465638D01*
Y12464283D01*
Y12462591D01*
X31253534Y12459882D01*
Y12456835D01*
X31254211Y12453449D01*
X31254550Y12449386D01*
X31255225Y12444984D01*
X31257257Y12435843D01*
X31260641Y12426362D01*
X31262674Y12421622D01*
X31265045Y12417221D01*
X31267752Y12412819D01*
X31270801Y12408756D01*
X31271140Y12408417D01*
X31271478Y12407740D01*
X31272495Y12406724D01*
X31273849Y12405709D01*
X31275540Y12404016D01*
X31277911Y12402323D01*
X31282651Y12398599D01*
X31289084Y12394536D01*
X31296194Y12391488D01*
X31299918Y12390134D01*
X31303983Y12389118D01*
X31308383Y12388441D01*
X31312784Y12388102D01*
X31315494D01*
X31318542Y12388441D01*
X31322266Y12389118D01*
X31326666Y12390134D01*
X31331406Y12391827D01*
X31336148Y12393858D01*
X31340887Y12396567D01*
X31341565Y12396906D01*
X31342920Y12398260D01*
X31345288Y12400630D01*
X31347998Y12403677D01*
X31351382Y12408079D01*
X31354770Y12413158D01*
X31358154Y12419591D01*
X31361203Y12427378D01*
X31366620Y12423654D01*
Y12423315D01*
X31366281Y12422638D01*
Y12421284D01*
X31365604Y12419591D01*
X31365265Y12417221D01*
X31364249Y12414850D01*
X31362219Y12408756D01*
X31359509Y12401984D01*
X31355786Y12394536D01*
X31350705Y12386748D01*
X31344611Y12378961D01*
X31344272Y12378622D01*
X31343933Y12377945D01*
X31342920Y12377268D01*
X31341226Y12375914D01*
X31339532Y12374221D01*
X31337500Y12372528D01*
X31335132Y12370835D01*
X31332083Y12369142D01*
X31325650Y12365417D01*
X31317862Y12362032D01*
X31313461Y12360677D01*
X31309061Y12360000D01*
X31304321Y12359323D01*
X31299240Y12358984D01*
X31296533D01*
X31294162Y12359323D01*
X31291794Y12359662D01*
X31288745Y12360339D01*
X31285361Y12361016D01*
X31281973Y12361693D01*
X31273849Y12364402D01*
X31269785Y12366433D01*
X31265384Y12368465D01*
X31261319Y12371173D01*
X31256918Y12374221D01*
X31252856Y12377606D01*
X31248792Y12381669D01*
X31248453Y12382008D01*
X31247778Y12382685D01*
X31246762Y12384039D01*
X31245407Y12385732D01*
X31244052Y12388102D01*
X31242020Y12391150D01*
X31240329Y12394197D01*
X31238297Y12397921D01*
X31236264Y12402323D01*
X31234573Y12407063D01*
X31232541Y12412142D01*
X31231186Y12417559D01*
X31229831Y12423315D01*
X31228815Y12429748D01*
X31228140Y12436520D01*
X31227802Y12443630D01*
Y12443969D01*
Y12445323D01*
Y12447693D01*
X31228140Y12450740D01*
X31228479Y12454126D01*
X31228815Y12458189D01*
X31229495Y12462591D01*
X31230508Y12467669D01*
X31232880Y12478165D01*
X31234912Y12483583D01*
X31236942Y12489000D01*
X31239313Y12494417D01*
X31242020Y12499835D01*
X31245407Y12504575D01*
X31249130Y12509315D01*
X31249469Y12509653D01*
X31250146Y12510331D01*
X31251501Y12511346D01*
X31253195Y12513039D01*
X31255225Y12514732D01*
X31257596Y12516764D01*
X31260641Y12519134D01*
X31264029Y12521165D01*
X31267752Y12523535D01*
X31271817Y12525567D01*
X31276218Y12527598D01*
X31281296Y12529291D01*
X31286374Y12530984D01*
X31291794Y12532000D01*
X31297211Y12532677D01*
X31303305Y12533016D01*
X31306012D01*
X31308044Y12532677D01*
D02*
G37*
G36*
X30280447D02*
X30282819D01*
X30286203Y12532000D01*
X30289590Y12531661D01*
X30293652Y12530645D01*
X30298053Y12529630D01*
X30302795Y12527937D01*
X30307874Y12526244D01*
X30312613Y12523874D01*
X30317691Y12521165D01*
X30322772Y12517779D01*
X30327512Y12514055D01*
X30332251Y12509653D01*
X30336652Y12504575D01*
X30336990Y12504236D01*
X30337329Y12503559D01*
X30338345Y12502205D01*
X30339700Y12500173D01*
X30341055Y12498142D01*
X30342746Y12495094D01*
X30344440Y12492047D01*
X30346472Y12488661D01*
X30348166Y12484598D01*
X30349857Y12480197D01*
X30352905Y12470716D01*
X30354260Y12465638D01*
X30355276Y12460220D01*
X30355612Y12454803D01*
X30355951Y12449047D01*
Y12448709D01*
Y12448031D01*
Y12447016D01*
Y12445323D01*
X30355612Y12443291D01*
X30355276Y12440921D01*
X30354599Y12435165D01*
X30353244Y12428394D01*
X30351550Y12420945D01*
X30348843Y12412819D01*
X30345117Y12404354D01*
Y12404016D01*
X30344778Y12403339D01*
X30344101Y12402323D01*
X30343085Y12400630D01*
X30340717Y12396567D01*
X30337668Y12391488D01*
X30333267Y12386071D01*
X30328528Y12380315D01*
X30322772Y12374898D01*
X30316000Y12370158D01*
X30315662D01*
X30315323Y12369819D01*
X30314307Y12369142D01*
X30312613Y12368465D01*
X30310922Y12367449D01*
X30308890Y12366772D01*
X30303809Y12364740D01*
X30297717Y12362370D01*
X30290607Y12360677D01*
X30283157Y12359323D01*
X30274692Y12358984D01*
X30272998D01*
X30271307Y12359323D01*
X30268597D01*
X30265552Y12360000D01*
X30261826Y12360677D01*
X30257764Y12361355D01*
X30253363Y12362709D01*
X30248959Y12364402D01*
X30244220Y12366095D01*
X30239142Y12368465D01*
X30234402Y12371512D01*
X30229321Y12374898D01*
X30224582Y12378622D01*
X30220181Y12383362D01*
X30215778Y12388441D01*
X30215439Y12388780D01*
X30215103Y12389457D01*
X30214087Y12390811D01*
X30213071Y12392843D01*
X30211716Y12395213D01*
X30210022Y12397921D01*
X30208331Y12400969D01*
X30206638Y12404693D01*
X30204944Y12408756D01*
X30203253Y12412819D01*
X30200204Y12422299D01*
X30198172Y12433134D01*
X30197833Y12438551D01*
X30197495Y12444307D01*
Y12444646D01*
Y12445323D01*
Y12446677D01*
X30197833Y12448370D01*
Y12450402D01*
X30198172Y12452772D01*
X30198849Y12458528D01*
X30200204Y12465299D01*
X30202237Y12472748D01*
X30204944Y12480874D01*
X30208670Y12489338D01*
Y12489677D01*
X30209344Y12490354D01*
X30209686Y12491370D01*
X30210699Y12493063D01*
X30213071Y12497126D01*
X30216455Y12501866D01*
X30220859Y12507283D01*
X30225937Y12512701D01*
X30231693Y12517779D01*
X30238126Y12522181D01*
X30238464D01*
X30238803Y12522520D01*
X30239819Y12523197D01*
X30241174Y12523874D01*
X30244897Y12525567D01*
X30249976Y12527598D01*
X30255731Y12529630D01*
X30262164Y12531323D01*
X30269275Y12532677D01*
X30276724Y12533016D01*
X30278418D01*
X30280447Y12532677D01*
D02*
G37*
%LPC*%
G36*
X30463620Y12507283D02*
X30462268D01*
X30460574Y12506945D01*
X30458203Y12506606D01*
X30455835Y12506268D01*
X30452786Y12505590D01*
X30449738Y12504236D01*
X30446692Y12502882D01*
X30446353D01*
X30445337Y12502205D01*
X30443982Y12500850D01*
X30441614Y12499157D01*
X30438565Y12496787D01*
X30434842Y12493401D01*
X30430441Y12489000D01*
X30425360Y12483583D01*
Y12421961D01*
Y12421622D01*
Y12420945D01*
Y12419929D01*
Y12418913D01*
Y12415189D01*
X30425699Y12411126D01*
Y12406724D01*
X30426038Y12402662D01*
X30426376Y12398937D01*
X30426715Y12395890D01*
Y12395551D01*
X30427393Y12394197D01*
X30428070Y12392165D01*
X30429425Y12389795D01*
X30431116Y12386748D01*
X30433148Y12383701D01*
X30435858Y12380654D01*
X30439243Y12377606D01*
X30439581Y12377268D01*
X30440936Y12376252D01*
X30443307Y12375236D01*
X30446014Y12373882D01*
X30449738Y12372189D01*
X30453802Y12371173D01*
X30458542Y12370158D01*
X30463959Y12369819D01*
X30465652D01*
X30467007Y12370158D01*
X30470392Y12370496D01*
X30474457Y12371512D01*
X30478857Y12373205D01*
X30483936Y12375575D01*
X30488675Y12378961D01*
X30493079Y12383701D01*
X30493417Y12384039D01*
X30493756Y12384717D01*
X30494431Y12385732D01*
X30495447Y12387087D01*
X30496463Y12389118D01*
X30497818Y12391150D01*
X30499173Y12393858D01*
X30500528Y12396906D01*
X30501880Y12400630D01*
X30502896Y12404354D01*
X30504251Y12408417D01*
X30505267Y12413158D01*
X30506281Y12418236D01*
X30506961Y12423315D01*
X30507635Y12429071D01*
Y12435165D01*
Y12435504D01*
Y12436858D01*
Y12438890D01*
X30507297Y12441260D01*
Y12444646D01*
X30506622Y12448031D01*
X30506281Y12452094D01*
X30505606Y12456496D01*
X30503574Y12465976D01*
X30500528Y12475457D01*
X30498834Y12480197D01*
X30496463Y12484598D01*
X30494092Y12489000D01*
X30491046Y12493063D01*
X30490369Y12493740D01*
X30489014Y12495433D01*
X30486646Y12497464D01*
X30483258Y12500173D01*
X30479196Y12502882D01*
X30474792Y12504913D01*
X30469376Y12506606D01*
X30463620Y12507283D01*
D02*
G37*
G36*
X30972171Y12461913D02*
X30971832D01*
X30971155Y12461575D01*
X30969464Y12460898D01*
X30967770Y12460220D01*
X30965738Y12459205D01*
X30963031Y12458189D01*
X30957611Y12455819D01*
X30951517Y12453449D01*
X30945761Y12450740D01*
X30940683Y12448370D01*
X30938651Y12447354D01*
X30936960Y12446339D01*
X30936282Y12446000D01*
X30934589Y12444984D01*
X30932220Y12443291D01*
X30929172Y12441260D01*
X30925784Y12438890D01*
X30922400Y12436181D01*
X30919351Y12433134D01*
X30916644Y12429748D01*
X30916306Y12429409D01*
X30915628Y12428394D01*
X30914951Y12426701D01*
X30913934Y12424331D01*
X30912582Y12421622D01*
X30911905Y12418236D01*
X30911227Y12414850D01*
X30910889Y12411126D01*
Y12410449D01*
Y12409095D01*
X30911227Y12406724D01*
X30911905Y12403677D01*
X30912582Y12400291D01*
X30913934Y12396567D01*
X30915967Y12393181D01*
X30918338Y12389795D01*
X30918674Y12389457D01*
X30919690Y12388441D01*
X30921384Y12387087D01*
X30923416Y12385732D01*
X30926123Y12384039D01*
X30929172Y12382685D01*
X30932556Y12381669D01*
X30936282Y12381331D01*
X30936960D01*
X30938651Y12381669D01*
X30941699Y12382347D01*
X30945761Y12383701D01*
X30950842Y12385732D01*
X30957275Y12388780D01*
X30960660Y12390811D01*
X30964383Y12393520D01*
X30968109Y12396228D01*
X30972171Y12399276D01*
Y12461913D01*
D02*
G37*
G36*
X31293484Y12520149D02*
X31292807D01*
X31291116Y12519811D01*
X31288068Y12519472D01*
X31284683Y12518795D01*
X31280280Y12517102D01*
X31275879Y12515071D01*
X31271140Y12512362D01*
X31266739Y12508299D01*
X31266400Y12507622D01*
X31264706Y12506268D01*
X31263013Y12503559D01*
X31260641Y12500173D01*
X31258273Y12495433D01*
X31255902Y12490016D01*
X31254211Y12483583D01*
X31253195Y12476472D01*
X31329376D01*
Y12476811D01*
Y12477150D01*
X31329037Y12479181D01*
Y12481890D01*
X31328360Y12484937D01*
X31327344Y12492386D01*
X31326328Y12495772D01*
X31325311Y12498480D01*
X31324973Y12498819D01*
X31324634Y12500173D01*
X31323618Y12501866D01*
X31321927Y12504236D01*
X31320233Y12506945D01*
X31317862Y12509653D01*
X31315155Y12512023D01*
X31312109Y12514394D01*
X31311768Y12514732D01*
X31310754Y12515409D01*
X31308722Y12516086D01*
X31306351Y12517441D01*
X31303644Y12518457D01*
X31300595Y12519134D01*
X31297211Y12519811D01*
X31293484Y12520149D01*
D02*
G37*
G36*
X30271307Y12521504D02*
X30269614D01*
X30267581Y12521165D01*
X30265213Y12520827D01*
X30262164Y12520149D01*
X30259119Y12519134D01*
X30255731Y12517779D01*
X30252008Y12515748D01*
X30251669Y12515409D01*
X30250314Y12514732D01*
X30248621Y12513039D01*
X30246591Y12511008D01*
X30243881Y12508299D01*
X30241510Y12504913D01*
X30238803Y12500850D01*
X30236432Y12495772D01*
X30236093Y12495094D01*
X30235416Y12493401D01*
X30234741Y12490354D01*
X30233725Y12485953D01*
X30232370Y12480874D01*
X30231693Y12474779D01*
X30231015Y12467669D01*
X30230676Y12459543D01*
Y12459205D01*
Y12457850D01*
Y12456157D01*
X30231015Y12453449D01*
Y12450402D01*
X30231354Y12446677D01*
X30232031Y12442614D01*
X30232370Y12438213D01*
X30234061Y12428732D01*
X30236771Y12418236D01*
X30240158Y12407740D01*
X30244897Y12397583D01*
X30245236Y12397244D01*
X30245575Y12396567D01*
X30246252Y12395213D01*
X30247607Y12393520D01*
X30250653Y12389457D01*
X30255054Y12384717D01*
X30260471Y12379977D01*
X30266904Y12375914D01*
X30270291Y12374221D01*
X30274014Y12372866D01*
X30278079Y12372189D01*
X30282480Y12371851D01*
X30284174D01*
X30285526Y12372189D01*
X30288574Y12372528D01*
X30292636Y12373543D01*
X30297375Y12375236D01*
X30302118Y12377945D01*
X30306857Y12381331D01*
X30311258Y12386071D01*
Y12386410D01*
X30311597Y12386748D01*
X30312274Y12387764D01*
X30312952Y12388780D01*
X30313968Y12390473D01*
X30314984Y12392504D01*
X30316000Y12394874D01*
X30317014Y12397583D01*
X30318030Y12400630D01*
X30319046Y12404354D01*
X30320062Y12408417D01*
X30321078Y12412819D01*
X30321756Y12417559D01*
X30322433Y12422976D01*
X30322772Y12428732D01*
Y12435165D01*
Y12435843D01*
Y12437197D01*
Y12439567D01*
X30322433Y12442614D01*
X30322095Y12446000D01*
X30321756Y12450402D01*
X30321078Y12455142D01*
X30320401Y12460220D01*
X30318030Y12471394D01*
X30314645Y12482905D01*
X30312613Y12488661D01*
X30310242Y12494079D01*
X30307196Y12499496D01*
X30303809Y12504236D01*
Y12504575D01*
X30303134Y12504913D01*
X30301440Y12506945D01*
X30298734Y12509653D01*
X30295007Y12513039D01*
X30290268Y12516086D01*
X30284851Y12518795D01*
X30278418Y12520827D01*
X30275031Y12521165D01*
X30271307Y12521504D01*
D02*
G37*
%LPD*%
D10*
X24003000Y20084500D02*
D03*
X23875999D02*
D03*
X23749001D02*
D03*
X23622000D02*
D03*
X24003000Y19539500D02*
D03*
X23875999D02*
D03*
X23749001D02*
D03*
X23622000D02*
D03*
D11*
X24955499Y19367500D02*
D03*
Y18986501D02*
D03*
Y20256500D02*
D03*
Y20637500D02*
D03*
Y20002499D02*
D03*
Y19621500D02*
D03*
D12*
X24193500Y19657001D02*
D03*
Y19967000D02*
D03*
D13*
X23939500Y19267000D02*
D03*
Y19087000D02*
D03*
X23685500Y19087000D02*
D03*
Y19267000D02*
D03*
D14*
X24955499Y19024500D02*
Y19024899D01*
Y19024500D02*
X25209399D01*
X25209500Y19024600D01*
X23945300Y19081200D02*
X24136900D01*
X24142700Y19075400D01*
X23939500Y19087000D02*
X23945300Y19081200D01*
X23685500Y19087000D02*
X23939500D01*
X23685500Y19087000D02*
X23685500Y19087000D01*
X24955499Y19621500D02*
Y19659500D01*
Y19367500D02*
Y19621500D01*
Y19329500D02*
X25108000D01*
X24727000Y19659500D02*
X24955499D01*
Y20294501D02*
X25108000D01*
X24955499Y20256500D02*
Y20294501D01*
Y20002499D02*
Y20256500D01*
Y19964500D02*
Y20002499D01*
X24228500Y19657001D02*
X24258099Y19627400D01*
Y19620399D02*
X24320500Y19558000D01*
X24193500Y19657001D02*
X24228500D01*
X24258099Y19620399D02*
Y19627400D01*
X24320500Y19558000D02*
X24574500D01*
X24158501Y19967000D02*
X24193500D01*
X24092400Y19900900D02*
X24158501Y19967000D01*
X23799800Y19900900D02*
X24092400D01*
X23964900Y20447000D02*
X24752299D01*
X24942799Y20256500D02*
X24955499D01*
X24752299Y20447000D02*
X24942799Y20256500D01*
X24015700Y20345399D02*
X24625301D01*
X24752299Y19989799D02*
Y20218401D01*
X24625301Y20345399D02*
X24752299Y20218401D01*
X24574500Y19812000D02*
X24752299Y19989799D01*
X23880600Y20210300D02*
X24015700Y20345399D01*
X23880600Y20089101D02*
Y20210300D01*
X23875999Y20084500D02*
X23880600Y20089101D01*
X23749001Y20231100D02*
X23964900Y20447000D01*
X23749001Y20084500D02*
Y20231100D01*
X23753600Y19947099D02*
X23799800Y19900900D01*
X23753600Y19947099D02*
Y20079900D01*
X23749001Y20084500D02*
X23753600Y20079900D01*
X23749001Y19539500D02*
Y19598399D01*
X23797920Y19647321D02*
Y19721220D01*
X23749001Y19598399D02*
X23797920Y19647321D01*
Y19721220D02*
X23812500Y19735800D01*
X23939500Y19267000D02*
Y19380200D01*
X23880600Y19439101D02*
X23939500Y19380200D01*
X23875999Y19539500D02*
X23880600Y19534900D01*
Y19439101D02*
Y19534900D01*
X24955499Y19329500D02*
Y19367500D01*
X24574500Y19812000D02*
X24727000Y19659500D01*
X25209399Y20599500D02*
X25209500Y20599400D01*
X24955499Y20599500D02*
X25209399D01*
X25336501Y19812000D02*
X25717499D01*
X25108000Y20294501D02*
X25336501Y20066000D01*
X25108000Y19329500D02*
X25336501Y19558000D01*
X25340942Y19553558D01*
X25467941D02*
X25717499Y19303999D01*
X25340942Y19553558D02*
X25467941D01*
X25463499Y20066000D02*
X25717499Y20320000D01*
X25336501Y20066000D02*
X25463499D01*
D15*
X24003000Y19539500D02*
Y19748500D01*
X23914101Y19837399D02*
X24003000Y19748500D01*
X23279100Y19837399D02*
X23914101D01*
X23286000Y20084500D02*
X23622000D01*
X23177499Y20192999D02*
X23286000Y20084500D01*
X23177499Y19939000D02*
X23279100Y19837399D01*
X23177499Y19685001D02*
X23314780Y19547720D01*
X23613779D01*
X23622000Y19539500D01*
D16*
X23939500Y19267000D02*
X23939500Y19267000D01*
X23685500Y19267000D02*
X23939500D01*
X23179037Y19177000D02*
X23269037Y19267000D01*
X23177499Y19177000D02*
X23179037D01*
X23269037Y19267000D02*
X23685500D01*
D17*
X25717499Y20320000D02*
D03*
Y19812000D02*
D03*
D18*
Y19303999D02*
D03*
D19*
X23177499Y19177000D02*
D03*
Y19431000D02*
D03*
Y19685001D02*
D03*
Y19939000D02*
D03*
Y20192999D02*
D03*
X25336501Y19812000D02*
D03*
Y20066000D02*
D03*
X24574500D02*
D03*
Y19812000D02*
D03*
D20*
X23177499Y20447000D02*
D03*
D21*
X25336501Y19558000D02*
D03*
X24574500D02*
D03*
D22*
X25209500Y19024600D02*
D03*
X24142700Y19075400D02*
D03*
X23812500Y19735800D02*
D03*
X25209500Y20599400D02*
D03*
%TF.MD5,8a3510ad2a98d3861b3d1a0f55c45450*%
M02*
