%TF.GenerationSoftware,Altium Limited,Altium Designer,21.3.0 (21)*%
G04 Layer_Color=2752767*
%FSLAX45Y45*%
%MOMM*%
%TF.SameCoordinates,798F48EE-B9F3-42F3-8741-5E889E50E555*%
%TF.FilePolarity,Positive*%
%TF.FileFunction,Drawing*%
%TF.Part,Single*%
G01*
G75*
%TA.AperFunction,NonConductor*%
%ADD35C,0.12700*%
%ADD46C,0.16933*%
D35*
X25666699Y20269200D02*
Y20370799D01*
X25768301D01*
Y20269200D01*
X25666699D01*
Y19761200D02*
Y19862801D01*
X25768301D01*
Y19761200D01*
X25666699D01*
Y19253200D02*
Y19354800D01*
X25768301D01*
Y19253200D01*
X25666699D01*
X25336501Y19507201D02*
X25285699Y19608800D01*
X25387300D01*
X25336501Y19507201D01*
Y19761200D02*
X25285699Y19862801D01*
X25387300D01*
X25336501Y19761200D01*
Y20015199D02*
X25285699Y20116800D01*
X25387300D01*
X25336501Y20015199D01*
X24574500D02*
X24523700Y20116800D01*
X24625301D01*
X24574500Y20015199D01*
Y19761200D02*
X24523700Y19862801D01*
X24625301D01*
X24574500Y19761200D01*
Y19507201D02*
X24523700Y19608800D01*
X24625301D01*
X24574500Y19507201D01*
X25209500Y18973801D02*
X25234900Y18999200D01*
X25260300D01*
X25234900Y19024600D01*
X25260300Y19050000D01*
X25234900D01*
X25209500Y19075400D01*
X25184100Y19050000D01*
X25158701D01*
X25184100Y19024600D01*
X25158701Y18999200D01*
X25184100D01*
X25209500Y18973801D01*
X24142700Y19024600D02*
X24168100Y19050000D01*
X24193500D01*
X24168100Y19075400D01*
X24193500Y19100800D01*
X24168100D01*
X24142700Y19126199D01*
X24117300Y19100800D01*
X24091901D01*
X24117300Y19075400D01*
X24091901Y19050000D01*
X24117300D01*
X24142700Y19024600D01*
X23812500Y19685001D02*
X23837900Y19710400D01*
X23863300D01*
X23837900Y19735800D01*
X23863300Y19761200D01*
X23837900D01*
X23812500Y19786600D01*
X23787100Y19761200D01*
X23761700D01*
X23787100Y19735800D01*
X23761700Y19710400D01*
X23787100D01*
X23812500Y19685001D01*
X25209500Y20548599D02*
X25234900Y20574001D01*
X25260300D01*
X25234900Y20599400D01*
X25260300Y20624800D01*
X25234900D01*
X25209500Y20650200D01*
X25184100Y20624800D01*
X25158701D01*
X25184100Y20599400D01*
X25158701Y20574001D01*
X25184100D01*
X25209500Y20548599D01*
D46*
X23228300Y19177000D02*
G03*
X23228300Y19177000I-50800J0D01*
G01*
Y19431000D02*
G03*
X23228300Y19431000I-50800J0D01*
G01*
Y19685001D02*
G03*
X23228300Y19685001I-50800J0D01*
G01*
Y19939000D02*
G03*
X23228300Y19939000I-50800J0D01*
G01*
Y20447000D02*
G03*
X23228300Y20447000I-50800J0D01*
G01*
Y20192999D02*
G03*
X23228300Y20192999I-50800J0D01*
G01*
%TF.MD5,8878a7991dba8fbe158c6465bdacee11*%
M02*
